%FSLAX25Y25*%
%MOIN*%
G70*
G01*
G75*
G04 Layer_Color=16711935*
%ADD10C,0.00787*%
%ADD11C,0.01181*%
%ADD12C,0.00984*%
%ADD13R,0.01969X0.02362*%
%ADD14R,0.03937X0.03150*%
%ADD15R,0.03150X0.03543*%
%ADD16R,0.02756X0.01575*%
%ADD17R,0.02362X0.01969*%
%ADD18R,0.04724X0.03543*%
%ADD19R,0.03937X0.02756*%
%ADD20R,0.01969X0.03937*%
%ADD21R,0.02362X0.03937*%
%ADD22O,0.07874X0.05906*%
%ADD23R,0.07874X0.05906*%
%ADD24R,0.03937X0.04724*%
%ADD25R,0.03543X0.03937*%
%ADD26R,0.04921X0.02362*%
%ADD27O,0.04921X0.02362*%
%ADD28R,0.04724X0.03937*%
%ADD29R,0.03543X0.02362*%
%ADD30R,0.06299X0.04921*%
%ADD31O,0.02362X0.07874*%
%ADD32R,0.04724X0.01575*%
%ADD33O,0.02362X0.07874*%
%ADD34R,0.03400X0.10000*%
%ADD35R,0.03400X0.05000*%
%ADD36R,0.02362X0.03543*%
G04:AMPARAMS|DCode=37|XSize=59.06mil|YSize=78.74mil|CornerRadius=0mil|HoleSize=0mil|Usage=FLASHONLY|Rotation=45.000|XOffset=0mil|YOffset=0mil|HoleType=Round|Shape=Round|*
%AMOVALD37*
21,1,0.01969,0.05906,0.00000,0.00000,135.0*
1,1,0.05906,0.00696,-0.00696*
1,1,0.05906,-0.00696,0.00696*
%
%ADD37OVALD37*%

%ADD38R,0.01575X0.04921*%
%ADD39R,0.02362X0.05315*%
%ADD40C,0.01969*%
%ADD41C,0.03937*%
%ADD42C,0.05906*%
%ADD43R,0.06717X0.02806*%
%ADD44R,0.15106X0.14091*%
%ADD45R,0.12325X0.05909*%
%ADD46R,0.08728X0.04000*%
%ADD47R,0.07905X0.22706*%
%ADD48R,0.47900X0.06374*%
%ADD49R,0.06200X0.11200*%
%ADD50R,0.02400X0.07447*%
%ADD51R,0.11060X0.04191*%
%ADD52R,0.38700X0.08270*%
%ADD53R,0.31672X0.09600*%
%ADD54C,0.03937*%
%ADD55C,0.09843*%
%ADD56O,0.11811X0.09843*%
%ADD57C,0.05118*%
%ADD58O,0.04331X0.07087*%
%ADD59C,0.02362*%
%ADD60C,0.07874*%
%ADD61R,0.07874X0.07874*%
%ADD62R,0.05906X0.07874*%
%ADD63C,0.04724*%
%ADD64C,0.00197*%
%ADD65C,0.00394*%
%ADD66C,0.00591*%
%ADD67C,0.01969*%
%ADD68C,0.00250*%
%ADD69C,0.00200*%
%ADD70C,0.00500*%
%ADD71C,0.00374*%
%ADD72C,0.00400*%
%ADD73C,0.00800*%
%ADD74R,0.00200X0.00700*%
%ADD75R,0.00300X0.00600*%
%ADD76R,0.00300X0.00500*%
%ADD77O,0.05906X0.09843*%
%ADD78C,0.05906*%
%ADD79R,0.11083X0.10189*%
%ADD80R,0.15688X0.05292*%
%ADD81R,0.02769X0.03162*%
%ADD82R,0.04737X0.03950*%
%ADD83R,0.03950X0.04343*%
%ADD84R,0.03556X0.02375*%
%ADD85R,0.03162X0.02769*%
%ADD86R,0.05524X0.04343*%
%ADD87R,0.04737X0.03556*%
%ADD88R,0.02769X0.04737*%
%ADD89R,0.03162X0.04737*%
%ADD90O,0.08674X0.06706*%
%ADD91R,0.08674X0.06706*%
%ADD92R,0.04737X0.05524*%
%ADD93R,0.04343X0.04737*%
%ADD94R,0.05721X0.03162*%
%ADD95O,0.05721X0.03162*%
%ADD96R,0.05524X0.04737*%
%ADD97R,0.04343X0.03162*%
%ADD98R,0.07099X0.05721*%
%ADD99O,0.03162X0.08674*%
%ADD100R,0.05524X0.02375*%
%ADD101O,0.03162X0.08674*%
%ADD102R,0.04200X0.10800*%
%ADD103R,0.04200X0.05800*%
%ADD104R,0.03162X0.04343*%
G04:AMPARAMS|DCode=105|XSize=67.06mil|YSize=86.74mil|CornerRadius=0mil|HoleSize=0mil|Usage=FLASHONLY|Rotation=45.000|XOffset=0mil|YOffset=0mil|HoleType=Round|Shape=Round|*
%AMOVALD105*
21,1,0.01969,0.06706,0.00000,0.00000,135.0*
1,1,0.06706,0.00696,-0.00696*
1,1,0.06706,-0.00696,0.00696*
%
%ADD105OVALD105*%

%ADD106C,0.04737*%
%ADD107C,0.10642*%
%ADD108O,0.12611X0.10642*%
%ADD109C,0.03162*%
%ADD110R,0.08674X0.08674*%
%ADD111R,0.06706X0.08674*%
%ADD112C,0.05524*%
%ADD113C,0.01000*%
D10*
X-38543Y87331D02*
G03*
X-58968Y78786I38601J-120958D01*
G01*
X58823Y78753D02*
G03*
X38398Y87297I-59027J-112414D01*
G01*
X18783Y77340D02*
Y90484D01*
Y77340D02*
X19425Y76697D01*
X32098D01*
X-38302Y87297D02*
X-30302D01*
Y76597D02*
Y87297D01*
Y76597D02*
X-20602D01*
X-20587D02*
Y90483D01*
X32098Y76697D02*
Y87297D01*
X38398D01*
D11*
X-68903Y-70394D02*
G03*
X68754Y-70573I68920J70268D01*
G01*
X-68859Y-70329D02*
G03*
X68741Y-70564I68920J70268D01*
G01*
X63403Y66075D02*
G03*
X63403Y66075I-4331J0D01*
G01*
X-54699Y66074D02*
G03*
X-54699Y66074I-4331J0D01*
G01*
X68986Y-70591D02*
Y68707D01*
X-69060Y68556D02*
X-58920Y78695D01*
X58776Y78662D02*
X68915Y68522D01*
Y-70390D02*
Y68522D01*
X-68883Y-70591D02*
Y68707D01*
D65*
X9860Y-6032D02*
G03*
X9860Y-6032I-9843J0D01*
G01*
X-34034Y81680D02*
G03*
X-34034Y81680I-3937J0D01*
G01*
X41754Y81483D02*
G03*
X41754Y81483I-2362J0D01*
G01*
X-15341Y67562D02*
G03*
X-15341Y67562I-2953J0D01*
G01*
X21076D02*
G03*
X21076Y67562I-3937J0D01*
G01*
X-14257Y40003D02*
G03*
X-14257Y40003I-3937J0D01*
G01*
X20289D02*
G03*
X20289Y40003I-3150J0D01*
G01*
X-20587Y90483D02*
X18782D01*
M02*
