M48
;Layer_Color=9474304
;FILE_FORMAT=2:5
INCH,LZ
;TYPE=PLATED
T1F00S00C0.01575
T2F00S00C0.01968
T4F00S00C0.02756
T5F00S00C0.03150
T6F00S00C0.07087
%
T01
X-0065945Y-0067957
X-00582Y-00626
X-0061024Y-0058071
X-0064883Y-0053362
X-0059802Y-0050039
X-0049333Y-0050251
X-00525Y-00463
X-00539Y-0038091
X-0059429Y-0035433
X-0042983Y-0029091
X-0042683Y-0020491
X-0042583Y-001659
X-0033883Y-0011491
X-0035883Y-0004762
X-00248Y-0006157
X-0018Y-0008091
X-0018184Y-0011669
X-0021583Y-0014591
X-0009808Y-0014626
X-0012174Y-0003802
X-0011608Y-0000426
X-0015Y-00017
X-0013308Y-0029626
X-00204Y-00326
X-0032618Y-0028401
X-0034283Y-0047691
X-0025739Y-0050428
X-00131Y-00513
X-00148Y-00452
X-00096Y-00584
X00007Y-00577
X0005072Y-0062758
X0004937Y-00674
X0013117Y-0070191
X0016617Y-006709
X0023622Y-006496
X0027876Y-0072955
X00247Y-0077
X00164Y-00769
X00034Y-00795
X-00105Y-00796
X-0013745Y-00746
X-00169Y-00774
X-00206Y-00811
X-00209Y-00871
X-00225Y-00755
X-00335Y-0073835
X-0039454Y-00717
X-0038893Y-00615
X-0049069Y-00621
X-00473Y-00661
X-00523Y-00587
X-00505Y-00083
X-00585Y00061
X0019517Y-0006091
X0017917Y-0011691
X00171Y-00169
X0009392Y-0020026
X00082Y-00249
X00028Y-00261
X0002486Y-0038243
X0008092Y-00395
X0013313Y-00432
X0008687Y-0054168
X0026717Y-0048312
X00188Y-0030471
X0026592Y-0002953
X0023622Y-00857
X00375Y-0076659
X00428Y-00761
X00457Y-00605
X0046Y-00565
X00464Y-00524
X0046417Y-0043165
Y-0038091
X0046517Y-0033291
Y-0027891
Y-0023491
X0046417Y-001939
X0042717Y-001929
X0043017Y-0013191
X0046517Y-001439
X0033982Y-0011669
X0034466Y-000689
X0031117Y-0002991
X0040092Y-0001426
X00537Y-00034
X0037417Y-0048891
X0037517Y-005409
X0033017
X0031417Y-0048491
X00389Y-00582
X0057Y-00687
X004234Y0036417
X0031513
X003937Y0052165
X0036417Y0062992
X0043307Y0064591
X0048228Y0063492
X0050292Y0075787
X00322Y00698
X00291Y006941
X00265Y00694
X0028946Y00729
X00299Y0065032
X0014452Y00798
X0010236Y00807
X0002617Y006941
X-0001083
X-0000183Y0061709
X0000417Y005881
X-0002125Y0059974
X-0003708Y0058574
X-0005572Y0060074
X-0007683Y0058909
X-0010183Y0059009
X-0010283Y006151
X-0007643Y0061709
X-0003783Y006211
X-00244Y00624
X-00307Y00661
X-0028543Y0068729
X-0032067Y007
X-0035357Y00699
X-0033465Y0076772
X-0029Y00735
X-00247Y00736
X-00167Y0076597
Y00809
X-0010661Y00822
X-00085Y00857
X-0013308Y0074
X-0047825Y0071582
X-0045024Y0067026
X-0050197Y0077756
X-0047227Y0035433
X-00364
T02
X00171Y0018711
X0016749Y00324
T04
X-0010236Y0076246
X0010236
T05
X-001Y-0087598
X0
X001
T06
X-0009Y00072
X00059Y0038
M30
