%FSLAX25Y25*%
%MOIN*%
G70*
G01*
G75*
G04 Layer_Physical_Order=1*
G04 Layer_Color=255*
%ADD10C,0.00787*%
%ADD11C,0.01181*%
%ADD12C,0.00984*%
%ADD13R,0.01969X0.02362*%
%ADD14R,0.03937X0.03150*%
%ADD15R,0.03150X0.03543*%
%ADD16R,0.02756X0.01575*%
%ADD17R,0.02362X0.01969*%
%ADD18R,0.04724X0.03543*%
%ADD19R,0.03937X0.02756*%
%ADD20R,0.01969X0.03937*%
%ADD21R,0.02362X0.03937*%
%ADD22O,0.07874X0.05906*%
%ADD23R,0.07874X0.05906*%
%ADD24R,0.03937X0.04724*%
%ADD25R,0.03543X0.03937*%
%ADD26R,0.04921X0.02362*%
%ADD27O,0.04921X0.02362*%
%ADD28R,0.04724X0.03937*%
%ADD29R,0.03543X0.02362*%
%ADD30R,0.06299X0.04921*%
%ADD31O,0.02362X0.07874*%
%ADD32R,0.04724X0.01575*%
%ADD33O,0.02362X0.07874*%
%ADD34R,0.03400X0.10000*%
%ADD35R,0.03400X0.05000*%
%ADD36R,0.02362X0.03543*%
G04:AMPARAMS|DCode=37|XSize=59.06mil|YSize=78.74mil|CornerRadius=0mil|HoleSize=0mil|Usage=FLASHONLY|Rotation=45.000|XOffset=0mil|YOffset=0mil|HoleType=Round|Shape=Round|*
%AMOVALD37*
21,1,0.01969,0.05906,0.00000,0.00000,135.0*
1,1,0.05906,0.00696,-0.00696*
1,1,0.05906,-0.00696,0.00696*
%
%ADD37OVALD37*%

%ADD38R,0.01575X0.04921*%
%ADD39R,0.02362X0.05315*%
%ADD40C,0.01969*%
%ADD41C,0.03937*%
%ADD42C,0.05906*%
%ADD43R,0.06717X0.02806*%
%ADD44R,0.15106X0.14091*%
%ADD45R,0.12325X0.05909*%
%ADD46R,0.08728X0.04000*%
%ADD47R,0.07905X0.22706*%
%ADD48R,0.47900X0.06374*%
%ADD49R,0.06200X0.11200*%
%ADD50R,0.02400X0.07447*%
%ADD51R,0.11060X0.04191*%
%ADD52R,0.38700X0.08270*%
%ADD53R,0.31672X0.09600*%
%ADD54C,0.03937*%
%ADD55C,0.09843*%
%ADD56O,0.11811X0.09843*%
%ADD57C,0.05118*%
%ADD58O,0.04331X0.07087*%
%ADD59C,0.02362*%
G36*
X-11652Y-13487D02*
X-11848Y-13781D01*
X-12016Y-14626D01*
X-11848Y-15471D01*
X-11433Y-16093D01*
X-11414Y-16138D01*
Y-16792D01*
X-11414Y-16792D01*
X-11312Y-17304D01*
X-11292Y-17406D01*
X-10944Y-17927D01*
X-9935Y-18935D01*
X-9414Y-19283D01*
X-8800Y-19406D01*
X-8800Y-19406D01*
X-8060D01*
X-7698Y-19647D01*
X-6854Y-19815D01*
X-4294D01*
X-3449Y-19647D01*
X-3088Y-19406D01*
X6190D01*
X6190Y-19406D01*
X6702Y-19304D01*
X6804Y-19283D01*
X6869Y-19240D01*
X7285Y-19518D01*
X7184Y-20026D01*
X7352Y-20871D01*
X7768Y-21494D01*
X7382Y-21811D01*
X6931Y-21360D01*
X6410Y-21012D01*
X6308Y-20992D01*
X5795Y-20890D01*
X5795Y-20890D01*
X5242D01*
Y-20330D01*
X-2239D01*
Y-20925D01*
X-2717Y-21071D01*
X-2733Y-21046D01*
X-3449Y-20568D01*
X-4294Y-20400D01*
X-6854D01*
X-7698Y-20568D01*
X-8415Y-21046D01*
X-8893Y-21763D01*
X-9061Y-22608D01*
X-8893Y-23452D01*
X-8415Y-24169D01*
X-7698Y-24647D01*
X-6854Y-24815D01*
X-4294D01*
X-3449Y-24647D01*
X-2733Y-24169D01*
X-2717Y-24145D01*
X-2239Y-24290D01*
Y-24661D01*
X627D01*
X863Y-25102D01*
X760Y-25255D01*
X592Y-26100D01*
X481Y-26235D01*
X-283D01*
X-449Y-26124D01*
X-551Y-26104D01*
X-1063Y-26002D01*
X-1063Y-26002D01*
X-2800D01*
X-3449Y-25568D01*
X-4294Y-25400D01*
X-6854D01*
X-7698Y-25568D01*
X-8415Y-26046D01*
X-8893Y-26763D01*
X-9061Y-27608D01*
X-8893Y-28453D01*
X-8415Y-29169D01*
X-7698Y-29647D01*
X-6854Y-29815D01*
X-4294D01*
X-3449Y-29647D01*
X-2800Y-29213D01*
X-2239D01*
Y-30566D01*
X5242D01*
Y-26235D01*
X5119D01*
X5008Y-26100D01*
X4840Y-25255D01*
X4737Y-25102D01*
X4973Y-24661D01*
X5242D01*
X5242Y-24661D01*
Y-24661D01*
X5559Y-24529D01*
X5996Y-24967D01*
X6014Y-25011D01*
X6160Y-25745D01*
X6639Y-26461D01*
X7355Y-26940D01*
X8200Y-27108D01*
X9045Y-26940D01*
X9761Y-26461D01*
X10240Y-25745D01*
X10377Y-25054D01*
X10875Y-25103D01*
Y-29628D01*
X16387D01*
Y-26777D01*
X17158D01*
Y-27340D01*
X21488D01*
Y-23831D01*
X25588D01*
Y-23831D01*
X25868D01*
X25911Y-23873D01*
Y-23873D01*
X29848D01*
Y-27123D01*
X28836Y-28135D01*
X23145D01*
Y-28957D01*
X22917Y-29002D01*
X22461Y-29307D01*
X21265Y-30503D01*
X20960Y-30959D01*
X20853Y-31497D01*
Y-36196D01*
X20739Y-36243D01*
X20324Y-35965D01*
Y-33172D01*
X14812D01*
Y-39077D01*
X18112D01*
Y-44001D01*
X17042Y-45071D01*
X15197D01*
X14961Y-44630D01*
X15352Y-44045D01*
X15520Y-43200D01*
X15352Y-42355D01*
X14874Y-41639D01*
X14157Y-41160D01*
X13313Y-40992D01*
X12468Y-41160D01*
X11751Y-41639D01*
X11273Y-42355D01*
X11105Y-43200D01*
X10607Y-43299D01*
X6691D01*
X6153Y-43406D01*
X5697Y-43711D01*
X5073Y-44335D01*
X1698D01*
Y-40688D01*
X2085Y-40371D01*
X2486Y-40451D01*
X3331Y-40283D01*
X4047Y-39804D01*
X4525Y-39088D01*
X4693Y-38243D01*
X4525Y-37398D01*
X4047Y-36682D01*
X3331Y-36204D01*
X2486Y-36035D01*
X2252Y-36082D01*
X1850Y-36002D01*
X1850Y-36002D01*
X-370D01*
X-475Y-35988D01*
Y-36002D01*
X-2800D01*
X-3449Y-35568D01*
X-4294Y-35400D01*
X-6854D01*
X-7698Y-35568D01*
X-8415Y-36046D01*
X-8417Y-36050D01*
X-8895Y-35904D01*
Y-34582D01*
X-8476Y-34163D01*
X-8415Y-34169D01*
X-7698Y-34647D01*
X-6854Y-34815D01*
X-4294D01*
X-3449Y-34647D01*
X-2733Y-34169D01*
X-2717Y-34145D01*
X-2239Y-34290D01*
Y-35487D01*
X1698D01*
Y-31157D01*
X-2239D01*
Y-31203D01*
X-2629D01*
X-2733Y-31047D01*
X-3449Y-30568D01*
X-4294Y-30400D01*
X-6854D01*
X-7698Y-30568D01*
X-8415Y-31047D01*
X-8519Y-31203D01*
X-8908D01*
X-9445Y-31310D01*
X-9901Y-31614D01*
X-11293Y-33007D01*
X-11598Y-33462D01*
X-11705Y-34000D01*
Y-39018D01*
X-12118Y-39431D01*
X-17546D01*
X-18083Y-39538D01*
X-18539Y-39843D01*
X-19542Y-40845D01*
X-20004Y-40654D01*
Y-34729D01*
X-19555Y-34640D01*
X-18839Y-34161D01*
X-18360Y-33445D01*
X-18192Y-32600D01*
X-18360Y-31755D01*
X-18839Y-31039D01*
X-19555Y-30560D01*
X-20400Y-30392D01*
X-21245Y-30560D01*
X-21335Y-30620D01*
X-21776Y-30384D01*
Y-21610D01*
X-21882Y-21072D01*
X-22187Y-20617D01*
X-23248Y-19555D01*
X-23143Y-19025D01*
X-23138Y-19013D01*
X-16001D01*
X-14787Y-20227D01*
Y-28010D01*
X-14869Y-28065D01*
X-15348Y-28781D01*
X-15516Y-29626D01*
X-15348Y-30471D01*
X-14869Y-31187D01*
X-14153Y-31666D01*
X-13308Y-31834D01*
X-12463Y-31666D01*
X-11747Y-31187D01*
X-11269Y-30471D01*
X-11101Y-29626D01*
X-11269Y-28781D01*
X-11747Y-28065D01*
X-11977Y-27911D01*
Y-19645D01*
X-12084Y-19107D01*
X-12389Y-18651D01*
X-14426Y-16614D01*
X-14747Y-16400D01*
X-14649Y-15909D01*
X-14545Y-15889D01*
X-14089Y-15584D01*
X-13253Y-14748D01*
X-12949Y-14292D01*
X-12842Y-13754D01*
Y-13046D01*
X-11887D01*
X-11652Y-13487D01*
D02*
G37*
G36*
X-66628Y-18718D02*
X-65997Y-19540D01*
X-65175Y-20171D01*
X-64217Y-20568D01*
X-63189Y-20703D01*
X-61221D01*
X-60193Y-20568D01*
X-59235Y-20171D01*
X-58413Y-19540D01*
X-58288Y-19378D01*
X-57815Y-19539D01*
Y-28371D01*
X-57815Y-28371D01*
X-57815D01*
X-57708Y-28909D01*
X-57403Y-29365D01*
X-52386Y-34382D01*
Y-41357D01*
X-53365Y-42336D01*
X-55369D01*
X-55907Y-42443D01*
X-56363Y-42748D01*
X-56692Y-43077D01*
X-56997Y-43533D01*
X-57104Y-44070D01*
Y-49600D01*
X-56997Y-50138D01*
X-56692Y-50594D01*
X-55851Y-51435D01*
X-55785Y-51479D01*
X-55931Y-51957D01*
X-57949D01*
X-58185Y-51516D01*
X-57762Y-50884D01*
X-57594Y-50039D01*
X-57762Y-49194D01*
X-58241Y-48477D01*
X-58957Y-47999D01*
X-59802Y-47831D01*
X-60647Y-47999D01*
X-61363Y-48477D01*
X-61841Y-49194D01*
X-62010Y-50039D01*
X-61841Y-50884D01*
X-61419Y-51516D01*
X-61654Y-51957D01*
X-63217D01*
X-63322Y-51801D01*
X-64038Y-51322D01*
X-64883Y-51154D01*
X-65728Y-51322D01*
X-66444Y-51801D01*
X-66799Y-52332D01*
X-67277Y-52187D01*
Y-34180D01*
X-66787Y-34082D01*
X-66628Y-34466D01*
X-65997Y-35288D01*
X-65175Y-35919D01*
X-64217Y-36316D01*
X-63189Y-36451D01*
X-61353D01*
X-60990Y-36994D01*
X-60274Y-37473D01*
X-59429Y-37641D01*
X-58584Y-37473D01*
X-57868Y-36994D01*
X-57389Y-36278D01*
X-57222Y-35433D01*
X-57389Y-34588D01*
X-57663Y-34179D01*
X-57385Y-33508D01*
X-57249Y-32480D01*
X-57385Y-31453D01*
X-57781Y-30495D01*
X-58413Y-29672D01*
X-59235Y-29041D01*
X-60193Y-28645D01*
X-61221Y-28509D01*
X-63189D01*
X-64217Y-28645D01*
X-65175Y-29041D01*
X-65997Y-29672D01*
X-66628Y-30495D01*
X-66787Y-30878D01*
X-67277Y-30781D01*
Y-18432D01*
X-66787Y-18334D01*
X-66628Y-18718D01*
D02*
G37*
G36*
X-24585Y-22192D02*
Y-48056D01*
X-24972Y-48373D01*
X-25480Y-48272D01*
X-25590Y-48108D01*
X-32584D01*
X-32515Y-48453D01*
X-32428Y-48583D01*
X-32664Y-49023D01*
X-35790D01*
X-36695Y-48118D01*
Y-46600D01*
X-36802Y-46062D01*
X-37106Y-45606D01*
X-37905Y-44808D01*
X-37714Y-44346D01*
X-36020D01*
X-35857Y-44454D01*
X-35089Y-44607D01*
X-31381D01*
X-31320Y-44647D01*
X-30476Y-44815D01*
X-27916D01*
X-27072Y-44647D01*
X-26355Y-44169D01*
X-25877Y-43453D01*
X-25709Y-42608D01*
X-25877Y-41763D01*
X-26355Y-41047D01*
X-27072Y-40568D01*
X-27916Y-40400D01*
X-30476D01*
X-31320Y-40568D01*
X-31358Y-40593D01*
X-33144D01*
Y-40015D01*
X-40624D01*
Y-40775D01*
X-42751D01*
X-44261Y-39265D01*
Y-31530D01*
X-44368Y-30992D01*
X-44672Y-30536D01*
X-49690Y-25519D01*
Y-24659D01*
X-49228Y-24468D01*
X-49223Y-24473D01*
X-48767Y-24778D01*
X-48229Y-24884D01*
X-40624D01*
Y-25645D01*
X-33144D01*
Y-24213D01*
X-31970D01*
X-31320Y-24647D01*
X-30476Y-24815D01*
X-27916D01*
X-27072Y-24647D01*
X-26355Y-24169D01*
X-25877Y-23452D01*
X-25709Y-22608D01*
X-25877Y-21763D01*
X-26196Y-21285D01*
X-25809Y-20968D01*
X-24585Y-22192D01*
D02*
G37*
G36*
X36049Y-10487D02*
Y-13046D01*
X36049D01*
Y-13178D01*
X35695Y-13532D01*
X35301D01*
Y-14978D01*
X35124Y-15097D01*
X33795Y-16426D01*
X33333Y-16235D01*
Y-13532D01*
X27427D01*
Y-14161D01*
X22467D01*
X22150Y-13774D01*
X22222Y-13413D01*
Y-13189D01*
X26001D01*
Y-12822D01*
X26001D01*
X26539Y-12715D01*
X26995Y-12411D01*
X27585Y-11820D01*
X27890Y-11364D01*
X27997Y-10827D01*
Y-10487D01*
X28175D01*
Y-10487D01*
X32899D01*
Y-10121D01*
X36049D01*
Y-10487D01*
D02*
G37*
G36*
X-47105Y-10566D02*
X-46810Y-10624D01*
Y-12457D01*
X-42488D01*
Y-13791D01*
X-42488Y-13791D01*
X-42488D01*
X-42381Y-14328D01*
X-42076Y-14784D01*
X-41776Y-15084D01*
X-41320Y-15389D01*
X-40783Y-15495D01*
X-32641D01*
Y-17153D01*
X-33144D01*
Y-16393D01*
X-37081D01*
Y-20724D01*
X-35117D01*
X-35060Y-20913D01*
X-35357Y-21314D01*
X-40624D01*
Y-22075D01*
X-47647D01*
X-47918Y-21804D01*
Y-10553D01*
X-47477Y-10317D01*
X-47105Y-10566D01*
D02*
G37*
G36*
X-8415Y-44169D02*
X-7698Y-44647D01*
X-6854Y-44815D01*
X-4294D01*
X-3449Y-44647D01*
X-2733Y-44169D01*
X-2717Y-44145D01*
X-2239Y-44290D01*
Y-44335D01*
X-2240D01*
Y-45601D01*
X-3401D01*
X-3449Y-45568D01*
X-4294Y-45400D01*
X-6854D01*
X-7698Y-45568D01*
X-8415Y-46047D01*
X-8893Y-46763D01*
X-9061Y-47608D01*
X-8893Y-48453D01*
X-8415Y-49169D01*
X-8343Y-49217D01*
X-8488Y-49695D01*
X-9176D01*
X-9713Y-49802D01*
X-10169Y-50107D01*
X-11669Y-51607D01*
X-11974Y-52062D01*
X-12081Y-52600D01*
Y-54415D01*
X-13152Y-55487D01*
X-13457Y-55943D01*
X-13564Y-56481D01*
Y-63478D01*
X-23494Y-73407D01*
X-23677Y-73682D01*
X-24061Y-73939D01*
X-24540Y-74655D01*
X-24708Y-75500D01*
X-24540Y-76345D01*
X-24061Y-77061D01*
X-23993Y-77407D01*
X-23993D01*
X-23993Y-77407D01*
X-24294Y-77707D01*
X-24598Y-78162D01*
X-24705Y-78700D01*
Y-78960D01*
X-26665D01*
Y-82503D01*
X-26935D01*
Y-82503D01*
X-31265D01*
Y-82695D01*
X-31754D01*
X-32296Y-81988D01*
X-33688Y-80596D01*
X-34510Y-79965D01*
X-35468Y-79568D01*
X-36496Y-79433D01*
X-37524Y-79568D01*
X-38482Y-79965D01*
X-39304Y-80596D01*
X-39935Y-81419D01*
X-40332Y-82376D01*
X-40467Y-83404D01*
X-40332Y-84432D01*
X-39935Y-85390D01*
X-40366Y-85720D01*
X-43982Y-83959D01*
X-48240Y-81558D01*
X-48145Y-81067D01*
X-47876Y-81032D01*
X-46918Y-80635D01*
X-46496Y-80311D01*
X-49954Y-76854D01*
X-53411Y-73396D01*
X-53735Y-73818D01*
X-54132Y-74776D01*
X-54267Y-75804D01*
X-54132Y-76832D01*
X-53926Y-77329D01*
X-54319Y-77638D01*
X-58373Y-74655D01*
X-62766Y-70994D01*
X-64364Y-69489D01*
X-63905Y-68802D01*
X-63737Y-67957D01*
X-63905Y-67112D01*
X-64384Y-66396D01*
X-64540Y-66292D01*
Y-60136D01*
X-63635Y-59231D01*
X-62853D01*
X-62585Y-59632D01*
X-61869Y-60111D01*
X-61024Y-60279D01*
X-60179Y-60111D01*
X-59462Y-59632D01*
X-58984Y-58916D01*
X-58816Y-58071D01*
X-58887Y-57713D01*
X-58570Y-57326D01*
X-54517D01*
X-54281Y-57767D01*
X-54340Y-57855D01*
X-54508Y-58700D01*
X-54340Y-59545D01*
X-53866Y-60254D01*
X-54102Y-60695D01*
X-57153D01*
X-57355Y-60560D01*
X-58200Y-60392D01*
X-59045Y-60560D01*
X-59761Y-61039D01*
X-60240Y-61755D01*
X-60408Y-62600D01*
X-60240Y-63445D01*
X-59761Y-64161D01*
X-59045Y-64640D01*
X-58200Y-64808D01*
X-57355Y-64640D01*
X-56639Y-64161D01*
X-56200Y-63505D01*
X-50735D01*
X-50630Y-63661D01*
X-49914Y-64140D01*
X-49069Y-64308D01*
X-48224Y-64140D01*
X-47836Y-64347D01*
Y-64890D01*
X-45894D01*
Y-67252D01*
X-47836D01*
Y-72164D01*
X-48284Y-72385D01*
X-48311Y-72365D01*
X-49268Y-71968D01*
X-50296Y-71833D01*
X-51324Y-71968D01*
X-52281Y-72365D01*
X-52704Y-72689D01*
X-49246Y-76147D01*
X-45789Y-79604D01*
X-45465Y-79181D01*
X-45068Y-78224D01*
X-44933Y-77196D01*
X-44989Y-76767D01*
X-44541Y-76546D01*
X-43700Y-77387D01*
X-43244Y-77692D01*
X-42706Y-77798D01*
X-32846D01*
Y-78165D01*
X-26153D01*
Y-75606D01*
Y-73047D01*
Y-70488D01*
Y-69645D01*
X-26029Y-69621D01*
X-25573Y-69316D01*
X-15100Y-58843D01*
X-14796Y-58388D01*
X-14689Y-57850D01*
Y-47386D01*
X-13955Y-47240D01*
X-13239Y-46761D01*
X-12760Y-46045D01*
X-12592Y-45200D01*
X-12752Y-44399D01*
X-12434Y-44013D01*
X-8519D01*
X-8415Y-44169D01*
D02*
G37*
G36*
X21741Y-66042D02*
X22061Y-66522D01*
X22609Y-66888D01*
Y-67972D01*
X22714Y-68496D01*
X21026Y-70183D01*
X20722Y-70639D01*
X20692Y-70789D01*
X20051D01*
Y-75120D01*
X22822D01*
X23057Y-75561D01*
X22660Y-76155D01*
X22492Y-77000D01*
X22660Y-77845D01*
X23139Y-78561D01*
X23855Y-79040D01*
X24700Y-79208D01*
X25107Y-79127D01*
X25500Y-79205D01*
X26567D01*
X26631Y-79213D01*
Y-79205D01*
X28511D01*
X28532Y-79207D01*
D01*
X28532D01*
X28560Y-79235D01*
Y-79965D01*
X36040D01*
Y-75635D01*
X35757D01*
Y-75177D01*
X35757D01*
X35757Y-75054D01*
D01*
X36147D01*
Y-75054D01*
X41659D01*
Y-74495D01*
X56163D01*
X56319Y-74970D01*
X53241Y-77234D01*
X48488Y-80307D01*
X45955Y-81736D01*
X15765D01*
X14840Y-80811D01*
Y-79235D01*
X13562D01*
X13284Y-78819D01*
X13348Y-78665D01*
X15040D01*
Y-74665D01*
Y-71210D01*
X15157Y-71035D01*
X15325Y-70191D01*
X15157Y-69346D01*
X15112Y-69279D01*
X15313Y-69078D01*
X15525Y-68965D01*
X15772Y-69130D01*
X16617Y-69298D01*
X17462Y-69130D01*
X18178Y-68652D01*
X18657Y-67935D01*
X18825Y-67091D01*
X18970Y-66914D01*
X19699D01*
X20275Y-66799D01*
X20764Y-66473D01*
X21243Y-65993D01*
X21741Y-66042D01*
D02*
G37*
G36*
X-9224Y-77028D02*
Y-78160D01*
X-9265D01*
Y-82097D01*
X-4935D01*
Y-81533D01*
X-3811D01*
X-3666Y-82012D01*
X-4065Y-82278D01*
X-5393Y-83607D01*
X-5698Y-84062D01*
X-5805Y-84600D01*
Y-92700D01*
X-5805Y-92700D01*
X-5805D01*
X-5698Y-93238D01*
X-5393Y-93693D01*
X-4896Y-94191D01*
X-5094Y-94650D01*
X-5699Y-94631D01*
X-11395Y-94114D01*
X-17049Y-93253D01*
X-22641Y-92053D01*
X-28150Y-90517D01*
X-33200Y-88775D01*
X-33215Y-88275D01*
X-33119Y-88235D01*
X-32296Y-87604D01*
X-31665Y-86782D01*
X-31524Y-86440D01*
X-31265D01*
Y-86440D01*
X-26935D01*
Y-86440D01*
X-26935D01*
X-26935Y-86440D01*
X-26665D01*
Y-86440D01*
X-23371D01*
X-23053Y-86827D01*
X-23108Y-87100D01*
X-22940Y-87945D01*
X-22461Y-88661D01*
X-21745Y-89140D01*
X-20900Y-89308D01*
X-20055Y-89140D01*
X-19339Y-88661D01*
X-18860Y-87945D01*
X-18692Y-87100D01*
X-18767Y-86727D01*
X-18449Y-86340D01*
X-16135D01*
Y-82797D01*
Y-82697D01*
X-16065D01*
Y-82697D01*
X-11735D01*
Y-78886D01*
X-9686Y-76837D01*
X-9224Y-77028D01*
D02*
G37*
G36*
X44456Y-12461D02*
X44456Y-12461D01*
X44977Y-12809D01*
X45079Y-12830D01*
X45592Y-12932D01*
X45592Y-12932D01*
X48010D01*
Y-20391D01*
X48087Y-20775D01*
X48304Y-21100D01*
X48630Y-21318D01*
X49014Y-21394D01*
X53435D01*
Y-29885D01*
X53954D01*
Y-31972D01*
X57841D01*
Y-33562D01*
X57498D01*
Y-40255D01*
X57841D01*
Y-41633D01*
X55923D01*
Y-45964D01*
X57841D01*
X57917Y-46348D01*
X58135Y-46673D01*
X58461Y-46891D01*
X58845Y-46967D01*
X60844D01*
Y-50491D01*
X61404D01*
Y-50991D01*
X61329Y-51065D01*
X57301D01*
Y-57758D01*
X57456D01*
Y-64394D01*
X58648D01*
Y-66666D01*
X58207Y-66902D01*
X57845Y-66660D01*
X57000Y-66492D01*
X56155Y-66660D01*
X55439Y-67139D01*
X55335Y-67295D01*
X45882D01*
X44405Y-65818D01*
Y-41900D01*
X44298Y-41362D01*
X43993Y-40907D01*
X42900Y-39814D01*
X42445Y-39509D01*
X42399Y-39500D01*
X42025Y-39426D01*
Y-38051D01*
X41857Y-37206D01*
X41533Y-36722D01*
X41533Y-36265D01*
X41533D01*
Y-31972D01*
X41606D01*
Y-27641D01*
X41095D01*
Y-24661D01*
X41659D01*
Y-20330D01*
X37722D01*
Y-24661D01*
X38285D01*
Y-27641D01*
X34179D01*
Y-27417D01*
X34179D01*
Y-23873D01*
Y-22986D01*
X34311Y-22898D01*
X34311Y-22898D01*
X34311Y-22898D01*
X34711Y-22498D01*
X35015Y-22042D01*
X35122Y-21505D01*
X35122Y-21505D01*
X35122Y-21505D01*
Y-21505D01*
Y-19072D01*
X35545Y-18650D01*
X41207D01*
Y-13532D01*
X40773D01*
Y-13046D01*
X40773D01*
Y-12649D01*
X41155Y-12573D01*
X41611Y-12268D01*
X42511Y-11368D01*
X42591Y-11248D01*
X42695Y-11179D01*
X43131Y-11136D01*
X44456Y-12461D01*
D02*
G37*
G36*
X34126Y-27641D02*
X34126Y-27641D01*
X34126Y-27641D01*
Y-31935D01*
X34053D01*
Y-32303D01*
X33449Y-32907D01*
X33123Y-33396D01*
X33008Y-33972D01*
Y-36861D01*
X32778Y-37206D01*
X32609Y-38051D01*
Y-43563D01*
X32778Y-44408D01*
X33256Y-45124D01*
X33972Y-45603D01*
X34817Y-45771D01*
X35662Y-45603D01*
X36378Y-45124D01*
X36857Y-44408D01*
X37025Y-43563D01*
Y-38051D01*
X36857Y-37206D01*
X36523Y-36706D01*
X36759Y-36265D01*
X37876D01*
X38111Y-36706D01*
X37777Y-37206D01*
X37609Y-38051D01*
Y-43563D01*
X37777Y-44408D01*
X38256Y-45124D01*
X38972Y-45603D01*
X39817Y-45771D01*
X40662Y-45603D01*
X41154Y-45274D01*
X41595Y-45510D01*
Y-58099D01*
X41098Y-58148D01*
X40940Y-57355D01*
X40461Y-56639D01*
X39745Y-56160D01*
X38900Y-55992D01*
X38716Y-56029D01*
X38394Y-55707D01*
X37938Y-55402D01*
X37400Y-55295D01*
X28382D01*
X25563Y-52476D01*
Y-49200D01*
X25456Y-48662D01*
X25152Y-48206D01*
X23663Y-46718D01*
Y-32465D01*
X26803D01*
Y-36544D01*
X27367D01*
Y-38254D01*
X27474Y-38792D01*
X27609Y-38995D01*
Y-43563D01*
X27777Y-44408D01*
X28256Y-45124D01*
X28972Y-45603D01*
X29817Y-45771D01*
X30662Y-45603D01*
X31378Y-45124D01*
X31857Y-44408D01*
X32025Y-43563D01*
Y-38051D01*
X31857Y-37206D01*
X31378Y-36490D01*
X30740Y-36064D01*
Y-32213D01*
X30626D01*
Y-30318D01*
X33007Y-27937D01*
X33311Y-27482D01*
X33324Y-27417D01*
X34126D01*
Y-27641D01*
D02*
G37*
G36*
X13995Y-50182D02*
Y-52903D01*
X12730Y-54168D01*
X11154D01*
Y-54941D01*
X10679Y-55036D01*
X10223Y-55340D01*
X8656Y-56907D01*
X8194Y-56716D01*
Y-55476D01*
X6529D01*
Y-57731D01*
X6928D01*
X8167Y-57978D01*
Y-65605D01*
X7604D01*
Y-69936D01*
X10701D01*
X10909Y-70191D01*
X11078Y-71035D01*
X11103Y-71074D01*
Y-74335D01*
X7560D01*
Y-75795D01*
X7040D01*
Y-71935D01*
X3497D01*
Y-71865D01*
X3497D01*
Y-67665D01*
Y-63335D01*
X-440D01*
Y-64752D01*
X-2531D01*
Y-61827D01*
X-9224D01*
Y-62200D01*
X-9730Y-62300D01*
X-10186Y-62605D01*
X-10292Y-62712D01*
X-10754Y-62520D01*
Y-60772D01*
X-10368Y-60455D01*
X-9600Y-60608D01*
X-8755Y-60440D01*
X-8474Y-60252D01*
X-2531D01*
Y-57693D01*
Y-57527D01*
X-1648D01*
Y-57731D01*
X-1501D01*
X-1340Y-58545D01*
X-1089Y-58921D01*
Y-59215D01*
X-1089Y-59215D01*
X-986Y-59727D01*
X-966Y-59829D01*
X-618Y-60350D01*
X-618Y-60350D01*
X-618Y-60350D01*
X-618Y-60350D01*
Y-60350D01*
X-467Y-60501D01*
Y-62365D01*
X3470D01*
Y-58034D01*
X3182D01*
X2908Y-57700D01*
X2740Y-56855D01*
X2682Y-56770D01*
Y-53231D01*
X3864D01*
Y-54476D01*
X8194D01*
Y-52220D01*
X6826D01*
X6635Y-51758D01*
X8540Y-49852D01*
X13665D01*
X13995Y-50182D01*
D02*
G37*
G36*
X11739Y68774D02*
X11580Y67562D01*
X11769Y66123D01*
X12325Y64783D01*
X13208Y63631D01*
X14359Y62748D01*
X15700Y62192D01*
X17139Y62003D01*
X18578Y62192D01*
X19919Y62748D01*
X21070Y63631D01*
X21238Y63850D01*
X22152D01*
X22191Y63834D01*
X22197Y63832D01*
X22251Y63752D01*
X22321Y63682D01*
X22376Y63599D01*
X22458Y63545D01*
X22528Y63475D01*
X22619Y63437D01*
X22701Y63382D01*
X22798Y63363D01*
X22889Y63325D01*
X22988D01*
X23085Y63305D01*
X24203D01*
X24294Y63287D01*
X24372Y63236D01*
X27529Y60079D01*
X27611Y60024D01*
X27681Y59954D01*
X27888Y59815D01*
X27994Y59771D01*
X28250Y59665D01*
X28495Y59617D01*
X28594D01*
X28691Y59597D01*
X29232D01*
X29323Y59579D01*
X29401Y59527D01*
X29903Y59026D01*
X30056Y58872D01*
X30014Y58732D01*
X38000D01*
Y53942D01*
X37713Y53823D01*
X37026Y52165D01*
X37713Y50508D01*
X39370Y49822D01*
X41027Y50508D01*
X41714Y52165D01*
X41027Y53823D01*
X40983Y53841D01*
Y58732D01*
X64170D01*
X65470Y57432D01*
Y28032D01*
X64970Y27532D01*
X64170Y26732D01*
X56907D01*
Y26969D01*
X51395D01*
Y26732D01*
X50070D01*
X49970Y26632D01*
X49926Y26588D01*
X49831Y26607D01*
X49765Y26593D01*
X43815D01*
X43636Y26629D01*
X42537Y27084D01*
X42375D01*
X41999Y27240D01*
X29767D01*
X29391Y27084D01*
X29230D01*
X28130Y26629D01*
X27952Y26593D01*
X26500D01*
X26427Y26608D01*
X26395Y26629D01*
Y26969D01*
X25860D01*
X25798Y27010D01*
X25691Y26989D01*
X25590Y27030D01*
X21188D01*
X21039Y26969D01*
X20883D01*
Y26969D01*
X20633Y26969D01*
X20270Y27332D01*
X20265Y27336D01*
Y34800D01*
X19953Y35553D01*
X19437Y35767D01*
Y36267D01*
X20454Y36689D01*
X21827Y40003D01*
X20454Y43318D01*
X17139Y44691D01*
X16695Y44507D01*
X16070Y45132D01*
X15770Y45432D01*
X-20335D01*
Y52780D01*
X-20392Y52920D01*
X-20373Y53015D01*
X-20380Y53047D01*
X-20479Y53196D01*
X-20514Y53372D01*
X-20532Y53399D01*
X-20614Y53454D01*
X-20647Y53534D01*
X-20647D01*
X-20671Y53593D01*
X-20825Y53746D01*
X-22047Y54969D01*
Y57432D01*
X-11873D01*
X-11840Y57352D01*
X-10183Y56666D01*
X-9983Y56748D01*
X-9708Y56635D01*
X-7849D01*
X-7683Y56566D01*
X-7516Y56635D01*
X-4685D01*
X-3708Y56230D01*
X-2732Y56635D01*
X9D01*
X417Y56466D01*
X825Y56635D01*
X2617D01*
X3136Y56850D01*
X3552Y56572D01*
Y55543D01*
X7882D01*
Y56932D01*
X7894D01*
Y57450D01*
Y58184D01*
X7882Y58196D01*
Y58477D01*
Y59480D01*
X6697D01*
X6606Y59498D01*
X6528Y59550D01*
X4829Y61250D01*
X4347Y61731D01*
X4295Y61809D01*
X4277Y61900D01*
Y63150D01*
Y66938D01*
Y67997D01*
X4657Y68565D01*
X4773Y69150D01*
X11410D01*
X11739Y68774D01*
D02*
G37*
G36*
X15300Y44041D02*
X15275Y43919D01*
X14955Y43786D01*
X14050Y43092D01*
X13356Y42187D01*
X12920Y41134D01*
X12771Y40003D01*
X12920Y38873D01*
X13356Y37819D01*
X14050Y36914D01*
X14955Y36220D01*
X16008Y35784D01*
X17139Y35635D01*
X17505Y35683D01*
X17600Y35600D01*
Y35600D01*
X17600Y35600D01*
X18400Y34800D01*
X16300Y32700D01*
Y30000D01*
X15937Y29637D01*
X-15292D01*
X-19500Y33845D01*
Y34634D01*
X-19124Y34963D01*
X-18194Y34841D01*
X-16858Y35017D01*
X-15613Y35532D01*
X-14544Y36353D01*
X-13723Y37422D01*
X-13208Y38667D01*
X-13032Y40003D01*
X-13208Y41339D01*
X-13723Y42584D01*
X-14257Y43280D01*
Y43917D01*
X-13746Y44428D01*
X14983D01*
X15300Y44041D01*
D02*
G37*
G36*
X17378Y77340D02*
X17378Y77340D01*
X17378D01*
X17485Y76802D01*
X17790Y76346D01*
X18432Y75704D01*
X18888Y75399D01*
X19425Y75292D01*
X32098D01*
X32145Y75253D01*
Y71823D01*
X33693D01*
Y63252D01*
X33800Y62714D01*
X34105Y62259D01*
X34703Y61661D01*
X34856Y61431D01*
X35572Y60952D01*
X36417Y60784D01*
X37262Y60952D01*
X37646Y61209D01*
X38087Y60973D01*
Y59806D01*
X38000Y59735D01*
X30612D01*
X30041Y60307D01*
X29715Y60525D01*
X29331Y60601D01*
X28691D01*
X28446Y60650D01*
X28238Y60788D01*
X25012Y64015D01*
X24686Y64233D01*
X24302Y64309D01*
X23085D01*
X22918Y64559D01*
X22592Y64777D01*
X22387Y64818D01*
X22151Y65259D01*
X22509Y66123D01*
X22698Y67562D01*
X22509Y69001D01*
X21954Y70342D01*
X21070Y71493D01*
X19919Y72377D01*
X18578Y72932D01*
X17139Y73122D01*
X15700Y72932D01*
X14359Y72377D01*
X13208Y71493D01*
X12325Y70342D01*
X12222Y70095D01*
X12153Y70109D01*
X11929Y70153D01*
X11929Y70153D01*
X11929Y70153D01*
X8203D01*
Y74400D01*
X8127Y74784D01*
X7910Y75110D01*
X7584Y75327D01*
X7200Y75403D01*
X6890D01*
Y79691D01*
X-4331D01*
Y72801D01*
X-1388D01*
Y71557D01*
X-1928Y71449D01*
X-2644Y70971D01*
X-3122Y70254D01*
X-3291Y69410D01*
X-3122Y68565D01*
X-2644Y67848D01*
X-1928Y67370D01*
X-1083Y67202D01*
X-238Y67370D01*
X478Y67848D01*
X517Y67906D01*
X1017D01*
X1056Y67848D01*
X1772Y67370D01*
X2617Y67202D01*
X2887Y67255D01*
X3274Y66938D01*
Y63150D01*
Y61801D01*
X3337Y61481D01*
X3350Y61417D01*
X3568Y61091D01*
X4119Y60540D01*
X5889Y58771D01*
X6214Y58553D01*
X6598Y58477D01*
X6879D01*
Y58196D01*
X6890Y58139D01*
Y57450D01*
Y56989D01*
X6879Y56932D01*
Y56547D01*
X4555D01*
Y56572D01*
X4536Y56669D01*
Y56768D01*
X4498Y56859D01*
X4479Y56956D01*
X4424Y57038D01*
X4386Y57129D01*
X4316Y57199D01*
X4261Y57281D01*
X4179Y57336D01*
X4109Y57406D01*
X3694Y57684D01*
X3602Y57722D01*
X3520Y57777D01*
X3423Y57796D01*
X3332Y57834D01*
X3233D01*
X3136Y57853D01*
X3039Y57834D01*
X2940D01*
X2849Y57796D01*
X2752Y57777D01*
X2417Y57638D01*
X825D01*
X441Y57562D01*
X417Y57552D01*
X393Y57562D01*
X9Y57638D01*
X-2732D01*
X-3116Y57562D01*
X-3708Y57316D01*
X-4301Y57562D01*
X-4685Y57638D01*
X-7516D01*
X-7683Y57605D01*
X-7849Y57638D01*
X-9509D01*
X-9599Y57676D01*
X-9983Y57752D01*
X-10118Y57725D01*
X-11230Y58186D01*
X-11271Y58213D01*
X-11489Y58359D01*
X-11873Y58435D01*
X-22047D01*
X-22182Y58408D01*
X-22569Y58726D01*
Y61243D01*
X-22360Y61555D01*
X-22192Y62400D01*
X-22360Y63245D01*
X-22569Y63557D01*
Y64220D01*
X-23227D01*
X-23555Y64440D01*
X-24400Y64608D01*
X-25007Y64487D01*
X-25394Y64804D01*
Y69095D01*
X-26408D01*
X-26504Y69574D01*
X-26982Y70290D01*
X-27698Y70769D01*
X-28543Y70937D01*
X-29388Y70769D01*
X-30104Y70290D01*
X-30583Y69574D01*
X-30751Y68729D01*
X-30741Y68679D01*
X-31095Y68325D01*
X-31626Y68431D01*
X-32843D01*
X-32935Y68443D01*
Y68431D01*
X-34794D01*
X-34836Y68435D01*
Y68431D01*
X-37141D01*
Y71823D01*
X-31701D01*
Y75333D01*
X-31613Y75392D01*
X-31260Y75580D01*
X-30840Y75299D01*
X-30302Y75192D01*
X-20602D01*
X-20595Y75194D01*
X-20587Y75192D01*
X-20049Y75299D01*
X-19594Y75604D01*
X-19289Y76060D01*
X-19182Y76597D01*
Y89279D01*
X-10069D01*
X-10033Y87944D01*
X-10033Y87935D01*
Y87935D01*
D01*
D01*
X-10033Y87935D01*
X-10032Y87913D01*
X-10022Y87924D01*
X-10022D01*
X-10010Y87935D01*
X-10010D01*
Y88926D01*
X-9657Y89279D01*
X17378D01*
Y77340D01*
D02*
G37*
G36*
X-26778Y57093D02*
X-26378Y56693D01*
X-24978Y55293D01*
X-24590Y54905D01*
Y54493D01*
X-23078D01*
X-21578Y52993D01*
X-21425Y52839D01*
X-21418Y52807D01*
X-21400Y52780D01*
Y43994D01*
X-21844Y43653D01*
X-22665Y42584D01*
X-23180Y41339D01*
X-23356Y40003D01*
X-23180Y38667D01*
X-22665Y37422D01*
X-21844Y36353D01*
X-20775Y35532D01*
X-20457Y35401D01*
X-20534Y35017D01*
Y26805D01*
X-43400D01*
X-43938Y26698D01*
X-44394Y26393D01*
X-44698Y25938D01*
X-44745Y25699D01*
X-47702D01*
X-48194Y26077D01*
X-49152Y26474D01*
X-50180Y26609D01*
X-51207Y26474D01*
X-51240Y26460D01*
X-55223D01*
X-55262Y26501D01*
X-55274Y26510D01*
X-55331Y26570D01*
X-55399Y26619D01*
X-55410Y26630D01*
X-55422Y26639D01*
X-55430Y26643D01*
X-55504Y26717D01*
X-55581Y26749D01*
X-55650Y26798D01*
X-55752Y26821D01*
X-55759Y26826D01*
X-55773Y26832D01*
X-55788Y26835D01*
X-55866Y26867D01*
X-55947Y26883D01*
X-55961Y26889D01*
X-55986Y26894D01*
X-56085Y26894D01*
X-56182Y26913D01*
X-63478D01*
Y57693D01*
X-63278Y57893D01*
X-62478Y58693D01*
X-52178D01*
X-50978Y59893D01*
X-50378Y60493D01*
Y61493D01*
Y62293D01*
X-49878Y62793D01*
X-48778Y63893D01*
X-30703D01*
X-30700Y63892D01*
X-30697Y63893D01*
X-26778D01*
Y57093D01*
D02*
G37*
G36*
X43326Y25604D02*
X43710Y25528D01*
X49870D01*
X50038Y25562D01*
X50500Y25100D01*
X50717Y24883D01*
Y24718D01*
X50287Y24260D01*
X50191Y24107D01*
X50090Y23956D01*
X50087Y23941D01*
X50079Y23928D01*
X50049Y23750D01*
X50014Y23572D01*
Y10861D01*
X40021D01*
Y18048D01*
X39985Y18225D01*
X39955Y18404D01*
X39947Y18417D01*
X39944Y18432D01*
X39844Y18582D01*
X39748Y18736D01*
X39423Y19081D01*
X39410Y19090D01*
X39402Y19103D01*
X39216Y19289D01*
X38890Y19506D01*
X38506Y19583D01*
X38208D01*
X37732Y19900D01*
X36887Y20068D01*
X36042Y19900D01*
X35567Y19583D01*
X33208D01*
X32732Y19900D01*
X31887Y20068D01*
X31042Y19900D01*
X30326Y19422D01*
X29848Y18706D01*
X29791Y18422D01*
X28787Y17355D01*
D01*
X28084Y16608D01*
X14492D01*
X14108Y16532D01*
X13783Y16314D01*
X13565Y15989D01*
X13489Y15605D01*
Y14599D01*
X13472Y14516D01*
X13390Y14500D01*
X-18085D01*
X-18184Y14520D01*
Y17684D01*
X-18422Y17922D01*
Y17942D01*
X-18499Y18326D01*
X-18716Y18651D01*
X-19042Y18869D01*
X-19426Y18945D01*
X-30536D01*
X-31008Y19261D01*
X-31853Y19429D01*
X-32698Y19261D01*
X-33170Y18945D01*
X-35535D01*
X-36008Y19261D01*
X-36853Y19429D01*
X-37698Y19261D01*
X-38292Y18864D01*
X-39450Y18711D01*
X-39513Y18690D01*
X-39579Y18686D01*
X-39696Y18628D01*
X-39821Y18586D01*
X-39871Y18542D01*
X-39930Y18513D01*
X-40016Y18414D01*
X-40115Y18327D01*
X-40144Y18268D01*
X-40188Y18218D01*
X-40230Y18094D01*
X-40288Y17976D01*
X-40293Y17910D01*
X-40314Y17848D01*
X-40432Y16951D01*
X-40572Y16612D01*
X-40649Y16228D01*
Y11808D01*
X-40767Y11213D01*
Y11180D01*
X-41380Y10567D01*
X-48192D01*
Y12736D01*
Y14556D01*
X-48227Y14733D01*
X-48257Y14911D01*
X-48265Y14924D01*
X-48268Y14940D01*
X-48369Y15090D01*
X-48465Y15243D01*
X-54752Y21923D01*
X-54752Y21923D01*
X-54779Y21952D01*
Y25126D01*
X-54317Y25317D01*
X-54000Y25000D01*
X-54008Y24988D01*
D01*
X-54200Y24700D01*
X-53950Y24950D01*
X-53950Y24950D01*
X-53940Y24960D01*
X-53940D01*
X-53750Y25150D01*
D01*
X-53600Y25300D01*
X-53600D01*
Y25300D01*
D01*
X-53600Y25300D01*
D01*
X-53444Y25456D01*
X-51240D01*
X-51240D01*
X-51240D01*
X-51116Y25481D01*
X-51076Y25479D01*
X-50180Y25597D01*
X-49414Y25496D01*
X-48700Y25200D01*
X-48313Y24903D01*
X-48196Y24845D01*
X-48087Y24772D01*
X-48022Y24759D01*
X-47962Y24730D01*
X-47831Y24722D01*
X-47702Y24696D01*
X-44745D01*
X-44649Y24715D01*
X-44550D01*
X-44458Y24753D01*
X-44361Y24772D01*
X-44279Y24827D01*
X-44188Y24865D01*
X-44118Y24935D01*
X-44036Y24990D01*
X-43981Y25072D01*
X-43911Y25142D01*
X-43873Y25233D01*
X-43818Y25315D01*
X-43799Y25412D01*
X-43761Y25504D01*
X-43753Y25546D01*
X-43670Y25670D01*
X-43546Y25753D01*
X-43301Y25801D01*
X-20534D01*
X-20237Y25861D01*
X-20210Y25820D01*
X-19939Y25639D01*
X-19400Y25100D01*
X-19300Y25000D01*
X20223D01*
X21188Y25965D01*
X25590D01*
X25686Y25822D01*
X26011Y25604D01*
X26395Y25528D01*
X28057D01*
D01*
X28057D01*
X28441Y25604D01*
X29637Y26100D01*
X42129D01*
X43326Y25604D01*
D02*
G37*
G36*
X-56157Y25905D02*
X-56143Y25899D01*
X-56062Y25883D01*
X-56005Y25822D01*
X-55992Y25813D01*
X-55783Y25591D01*
Y21554D01*
X-55483Y21235D01*
X-49195Y14556D01*
Y12736D01*
Y9350D01*
X-48883Y9018D01*
X-48683Y8805D01*
X-40683D01*
X-39983Y9549D01*
X-39783Y9762D01*
Y10718D01*
Y11017D01*
X-39645Y11709D01*
Y16228D01*
X-39454Y16689D01*
X-39319Y17717D01*
X-37609Y17942D01*
X-19426D01*
Y13594D01*
X-18599D01*
X-18568Y13573D01*
X-18184Y13497D01*
X13489D01*
X13873Y13573D01*
X14198Y13790D01*
X14416Y14116D01*
X14492Y14500D01*
Y15605D01*
X28517D01*
X29517Y16667D01*
X31317Y18579D01*
X38506D01*
X38692Y18393D01*
X39017Y18048D01*
Y10399D01*
X39917Y9443D01*
X50417D01*
X50717Y9762D01*
X51017Y10080D01*
Y10293D01*
Y23572D01*
X52317Y24953D01*
X64802D01*
X65144Y24590D01*
Y4797D01*
X62417Y1900D01*
X44784D01*
X43827Y2857D01*
X43306Y3205D01*
X43204Y3225D01*
X42692Y3327D01*
X42692Y3327D01*
X37959D01*
X37959Y3327D01*
X37345Y3205D01*
X37172Y3089D01*
X36823Y2857D01*
X36823Y2857D01*
X35867Y1900D01*
X7704D01*
X6517Y2914D01*
X5037Y3821D01*
X3434Y4485D01*
X1747Y4890D01*
X17Y5026D01*
X-1713Y4890D01*
X-3400Y4485D01*
X-5003Y3821D01*
X-6482Y2914D01*
X-7670Y1900D01*
X-9183D01*
X-11083Y3918D01*
X-11183Y3812D01*
X-22183D01*
X-23483Y5193D01*
X-24583Y6362D01*
X-27983D01*
X-28983Y5300D01*
X-29183Y5087D01*
X-51683D01*
X-52783Y6256D01*
X-52983Y6468D01*
Y11992D01*
Y12736D01*
X-53383Y13161D01*
X-53726Y13526D01*
X-57226D01*
X-57883Y14223D01*
Y18048D01*
Y18154D01*
X-58783Y19110D01*
X-60183Y20598D01*
X-64383D01*
X-64883Y21129D01*
Y25591D01*
X-64583Y25909D01*
X-56182D01*
X-56157Y25905D01*
D02*
G37*
%LPC*%
G36*
X5529Y-55476D02*
X3864D01*
Y-57731D01*
X5529D01*
Y-55476D01*
D02*
G37*
G36*
X-46853Y43839D02*
X-47698Y43670D01*
X-48414Y43192D01*
X-48893Y42476D01*
X-49061Y41631D01*
Y36586D01*
X-49267Y36278D01*
X-49435Y35433D01*
X-49267Y34588D01*
X-48788Y33872D01*
X-48072Y33393D01*
X-47227Y33225D01*
X-46382Y33393D01*
X-45666Y33872D01*
X-45187Y34588D01*
X-45151Y34768D01*
X-44813Y35274D01*
X-44645Y36119D01*
Y41631D01*
X-44813Y42476D01*
X-45292Y43192D01*
X-46008Y43670D01*
X-46853Y43839D01*
D02*
G37*
G36*
X-10000Y-84620D02*
X-10771Y-84722D01*
X-11489Y-85019D01*
X-12106Y-85492D01*
X-12579Y-86109D01*
X-12877Y-86828D01*
X-12978Y-87598D01*
X-12877Y-88369D01*
X-12579Y-89087D01*
X-12106Y-89704D01*
X-11489Y-90178D01*
X-10771Y-90475D01*
X-10000Y-90577D01*
X-9229Y-90475D01*
X-8511Y-90178D01*
X-7894Y-89704D01*
X-7421Y-89087D01*
X-7123Y-88369D01*
X-7022Y-87598D01*
X-7123Y-86828D01*
X-7421Y-86109D01*
X-7894Y-85492D01*
X-8511Y-85019D01*
X-9229Y-84722D01*
X-10000Y-84620D01*
D02*
G37*
G36*
X-18294Y72129D02*
X-19476Y71973D01*
X-20577Y71517D01*
X-21523Y70791D01*
X-22249Y69845D01*
X-22705Y68744D01*
X-22861Y67562D01*
X-22705Y66380D01*
X-22249Y65279D01*
X-21523Y64333D01*
X-20577Y63607D01*
X-19476Y63151D01*
X-18294Y62995D01*
X-17112Y63151D01*
X-16011Y63607D01*
X-15065Y64333D01*
X-14339Y65279D01*
X-13883Y66380D01*
X-13727Y67562D01*
X-13883Y68744D01*
X-14339Y69845D01*
X-15065Y70791D01*
X-16011Y71517D01*
X-17112Y71973D01*
X-18294Y72129D01*
D02*
G37*
G36*
X-29696Y-45400D02*
X-30476D01*
X-31320Y-45568D01*
X-32037Y-46047D01*
X-32515Y-46763D01*
X-32584Y-47108D01*
X-29696D01*
Y-45400D01*
D02*
G37*
G36*
X12449Y-33172D02*
X6938D01*
Y-37667D01*
X6531Y-37939D01*
X6052Y-38655D01*
X5884Y-39500D01*
X6052Y-40345D01*
X6531Y-41061D01*
X7247Y-41540D01*
X8092Y-41708D01*
X8937Y-41540D01*
X9653Y-41061D01*
X10131Y-40345D01*
X10300Y-39500D01*
X10292Y-39464D01*
X10610Y-39077D01*
X12449D01*
Y-33172D01*
D02*
G37*
G36*
X31887Y44614D02*
X30230Y43927D01*
X29544Y42270D01*
Y37320D01*
X29169Y36417D01*
X29856Y34760D01*
X31513Y34074D01*
X33171Y34760D01*
X33263Y34985D01*
X33545Y35101D01*
X34231Y36758D01*
Y42270D01*
X33545Y43927D01*
X31887Y44614D01*
D02*
G37*
G36*
X-36853Y43839D02*
X-37698Y43670D01*
X-38414Y43192D01*
X-38893Y42476D01*
X-39061Y41631D01*
Y36119D01*
X-38893Y35274D01*
X-38442Y34600D01*
X-38440Y34588D01*
X-37961Y33872D01*
X-37245Y33393D01*
X-36400Y33225D01*
X-35555Y33393D01*
X-34839Y33872D01*
X-34360Y34588D01*
X-34192Y35433D01*
X-34360Y36278D01*
X-34645Y36704D01*
Y41631D01*
X-34813Y42476D01*
X-35292Y43192D01*
X-36008Y43670D01*
X-36853Y43839D01*
D02*
G37*
G36*
X-27916Y-45400D02*
X-28696D01*
Y-47108D01*
X-25808D01*
X-25877Y-46763D01*
X-26355Y-46047D01*
X-27072Y-45568D01*
X-27916Y-45400D01*
D02*
G37*
G36*
Y-25400D02*
X-30476D01*
X-31320Y-25568D01*
X-32037Y-26046D01*
X-32191Y-26278D01*
X-32618Y-26193D01*
X-33083Y-26285D01*
X-33144Y-26235D01*
Y-26235D01*
X-37081D01*
Y-30566D01*
X-33144D01*
Y-30566D01*
X-33083Y-30516D01*
X-32618Y-30609D01*
X-32114Y-30508D01*
X-31998Y-30787D01*
X-32276Y-31203D01*
X-33144D01*
Y-31157D01*
X-40624D01*
Y-35487D01*
X-40061D01*
Y-36472D01*
X-40061Y-36472D01*
X-40061D01*
X-39954Y-37009D01*
X-39650Y-37465D01*
X-38513Y-38601D01*
X-38058Y-38906D01*
X-37520Y-39013D01*
X-32141D01*
X-32037Y-39169D01*
X-31320Y-39647D01*
X-30476Y-39815D01*
X-27916D01*
X-27072Y-39647D01*
X-26355Y-39169D01*
X-25877Y-38453D01*
X-25709Y-37608D01*
X-25877Y-36763D01*
X-26355Y-36046D01*
X-27072Y-35568D01*
X-27916Y-35400D01*
X-30476D01*
X-31320Y-35568D01*
X-32037Y-36046D01*
X-32141Y-36203D01*
X-36846D01*
X-37124Y-35787D01*
X-37000Y-35487D01*
X-33144D01*
Y-34013D01*
X-32141D01*
X-32037Y-34169D01*
X-31320Y-34647D01*
X-30476Y-34815D01*
X-27916D01*
X-27072Y-34647D01*
X-26355Y-34169D01*
X-25877Y-33453D01*
X-25709Y-32608D01*
X-25877Y-31763D01*
X-26355Y-31047D01*
X-27072Y-30568D01*
X-27916Y-30400D01*
X-30476D01*
X-30980Y-30500D01*
X-31132Y-30134D01*
X-30815Y-29748D01*
X-30476Y-29815D01*
X-27916D01*
X-27072Y-29647D01*
X-26355Y-29169D01*
X-25877Y-28453D01*
X-25709Y-27608D01*
X-25877Y-26763D01*
X-26355Y-26046D01*
X-27072Y-25568D01*
X-27916Y-25400D01*
D02*
G37*
G36*
X41887Y44614D02*
X40230Y43927D01*
X39544Y42270D01*
Y36758D01*
X40230Y35101D01*
X40606Y34945D01*
X40683Y34760D01*
X42340Y34074D01*
X43997Y34760D01*
X44684Y36417D01*
X44231Y37510D01*
Y42270D01*
X43545Y43927D01*
X41887Y44614D01*
D02*
G37*
%LPD*%
D10*
X-65945Y-69962D02*
G03*
X9818Y-95688I65962J69836D01*
G01*
X-14322Y-53122D02*
G03*
X-13865Y-51487I-1224J1224D01*
G01*
X-39292Y-73841D02*
G03*
X-39983Y-72284I-2099J0D01*
G01*
X-38897Y-72257D02*
G03*
X-39292Y-73208I952J-952D01*
G01*
X5072Y-65824D02*
G03*
X5494Y-66843I1442J0D01*
G01*
X4450Y-66782D02*
G03*
X5072Y-65500I-1010J1281D01*
G01*
Y-69626D02*
G03*
X4380Y-67957I-2360J0D01*
G01*
X5494D02*
G03*
X5072Y-68976I1019J-1019D01*
G01*
X5045Y-64594D02*
G03*
X4515Y-63315I-1809J0D01*
G01*
X5628D02*
G03*
X5045Y-64724I1409J-1409D01*
G01*
Y-60792D02*
G03*
X5628Y-62201I1993J0D01*
G01*
X4515D02*
G03*
X5045Y-60922I-1279J1279D01*
G01*
X5072Y-64659D02*
G03*
X4515Y-63315I-1901J0D01*
G01*
X5628D02*
G03*
X5072Y-64659I1344J-1344D01*
G01*
Y-60857D02*
G03*
X5628Y-62201I1901J0D01*
G01*
X4515D02*
G03*
X5072Y-60857I-1344J1344D01*
G01*
X3171Y-62758D02*
G03*
X4515Y-62201I0J1901D01*
G01*
Y-63315D02*
G03*
X3171Y-62758I-1344J-1344D01*
G01*
X10563Y-50442D02*
G03*
X9460Y-54021I2832J-2832D01*
G01*
X9510Y-51494D02*
G03*
X8687Y-54168I2116J-2115D01*
G01*
X8458Y-52546D02*
G03*
X7913Y-54316I1400J-1400D01*
G01*
X8223Y-54805D02*
G03*
X6029Y-54975I-997J-1368D01*
G01*
X8687Y-54168D02*
G03*
X6680Y-54325I-912J-1251D01*
G01*
X9151Y-53532D02*
G03*
X7331Y-53674I-827J-1135D01*
G01*
X-54187Y-35497D02*
G03*
X-53343Y-37534I2881J0D01*
G01*
X-54457Y-37534D02*
G03*
X-54187Y-36882I-651J651D01*
G01*
X-10500Y-81501D02*
G03*
X-11057Y-80157I-1901J0D01*
G01*
X-9943D02*
G03*
X-10500Y-81501I1344J-1344D01*
G01*
X29777Y-72955D02*
G03*
X28433Y-73511I0J-1901D01*
G01*
Y-72398D02*
G03*
X29777Y-72955I1344J1344D01*
G01*
X25975D02*
G03*
X27319Y-72398I0J1901D01*
G01*
Y-73511D02*
G03*
X25975Y-72955I-1344J-1344D01*
G01*
X-34519Y-28401D02*
G03*
X-33175Y-27844I0J1901D01*
G01*
Y-28958D02*
G03*
X-34519Y-28401I-1344J-1344D01*
G01*
X-21409Y-33609D02*
G03*
X-21168Y-32774I-635J635D01*
G01*
X-20574Y-33368D02*
G03*
X-21409Y-33609I-199J-876D01*
G01*
X19001Y-16900D02*
G03*
X17657Y-17457I0J-1901D01*
G01*
Y-16343D02*
G03*
X19001Y-16900I1344J1344D01*
G01*
X-12952Y918D02*
G03*
X-11608Y361I1344J1344D01*
G01*
X-12396Y-426D02*
G03*
X-12952Y918I-1901J0D01*
G01*
X-16268Y-432D02*
G03*
X-15033Y-913I1166J1166D01*
G01*
X-15787Y-1667D02*
G03*
X-16268Y-432I-1648J69D01*
G01*
X30537Y-5110D02*
G03*
X30551Y-3537I-793J793D01*
G01*
X31104Y-4544D02*
G03*
X31117Y-2991I-783J783D01*
G01*
X18173Y-4746D02*
G03*
X19517Y-5303I1344J1344D01*
G01*
X18730Y-6091D02*
G03*
X18173Y-4746I-1901J0D01*
G01*
X-31626Y67026D02*
G03*
X-30931Y66853I491J491D01*
G01*
X-31453Y66331D02*
G03*
X-31626Y67026I-665J204D01*
G01*
X-31257Y65543D02*
G03*
X-34836Y67026I-3579J-3579D01*
G01*
X-30700Y66100D02*
G03*
X-32935Y67026I-2235J-2235D01*
G01*
X-17444Y-7534D02*
G03*
X-14590Y-8716I2853J2853D01*
G01*
X-18000Y-8091D02*
G03*
X-16491Y-8716I1509J1509D01*
G01*
X-21411D02*
G03*
X-18557Y-7534I0J4036D01*
G01*
X-19510Y-8716D02*
G03*
X-18000Y-8091I0J2135D01*
G01*
X-22899Y-6157D02*
G03*
X-24243Y-6713I0J-1901D01*
G01*
Y-5600D02*
G03*
X-22899Y-6157I1344J1344D01*
G01*
X-19682Y-14591D02*
G03*
X-21026Y-15147I0J-1901D01*
G01*
Y-14034D02*
G03*
X-19682Y-14591I1344J1344D01*
G01*
X41517Y-6768D02*
G03*
X39535Y-1983I-6768J0D01*
G01*
X41517Y-4867D02*
G03*
X40092Y-1426I-4867J0D01*
G01*
X41517Y-2966D02*
G03*
X40648Y-869I-2966J0D01*
G01*
X34466Y-8716D02*
G03*
X33926Y-7462I-1723J0D01*
G01*
X35006D02*
G03*
X34466Y-8716I1183J-1253D01*
G01*
X26592Y-4854D02*
G03*
X26035Y-3510I-1901J0D01*
G01*
X27149D02*
G03*
X26592Y-4854I1344J-1344D01*
G01*
X17Y70509D02*
G03*
X-304Y69529I808J-808D01*
G01*
X-964Y70188D02*
G03*
X17Y70509I173J1130D01*
G01*
X2576Y71409D02*
G03*
X3174Y69966I2041J0D01*
G01*
X2060D02*
G03*
X2576Y71212I-1245J1245D01*
G01*
X40816Y-19290D02*
G03*
X42160Y-18734I0J1901D01*
G01*
Y-19847D02*
G03*
X40816Y-19290I-1344J-1344D01*
G01*
X-32182Y-47608D02*
G03*
X-33726Y-48247I0J-2184D01*
G01*
Y-47134D02*
G03*
X-32582Y-47608I1144J1144D01*
G01*
X-35263Y-11275D02*
G03*
X-34440Y-10934I0J1164D01*
G01*
Y-12047D02*
G03*
X-36305Y-11275I-1865J-1865D01*
G01*
X13116Y-68286D02*
G03*
X13674Y-69634I1906J0D01*
G01*
X12560D02*
G03*
X13116Y-68293I-1340J1340D01*
G01*
Y-72088D02*
G03*
X12560Y-70747I-1896J0D01*
G01*
X13674D02*
G03*
X13116Y-72095I1348J-1348D01*
G01*
X-18740Y-12225D02*
G03*
X-21035Y-11275I-2295J-2295D01*
G01*
X33425Y-12225D02*
G03*
X31130Y-11275I-2295J-2295D01*
G01*
X11968Y-44544D02*
G03*
X12525Y-43200I-1344J1344D01*
G01*
X13313Y-43987D02*
G03*
X11968Y-44544I0J-1901D01*
G01*
X11242Y-17460D02*
G03*
X10179Y-20026I2566J-2566D01*
G01*
X9898Y-18804D02*
G03*
X9392Y-20026I1222J-1222D01*
G01*
X2800Y-28001D02*
G03*
X2243Y-26657I-1901J0D01*
G01*
X3357D02*
G03*
X2800Y-28001I1344J-1344D01*
G01*
X-27784Y68521D02*
G03*
X-27362Y66929I1580J-433D01*
G01*
X-48040Y74002D02*
G03*
X-47268Y72139I2635J0D01*
G01*
X-48382Y72139D02*
G03*
X-48040Y72964I-825J825D01*
G01*
X-48296Y77756D02*
G03*
X-49640Y77199I0J-1901D01*
G01*
Y78312D02*
G03*
X-48296Y77756I1344J1344D01*
G01*
X-33768Y75603D02*
G03*
X-34021Y76215I-865J0D01*
G01*
X-33126Y76061D02*
G03*
X-33768Y75044I484J-1017D01*
G01*
X48948Y74443D02*
G03*
X49504Y75787I-1344J1344D01*
G01*
X50292Y75000D02*
G03*
X48948Y74443I0J-1901D01*
G01*
X43307Y65379D02*
G03*
X46191Y66573I0J4079D01*
G01*
X43307Y64591D02*
G03*
X44847Y65229I0J2178D01*
G01*
X47922Y65432D02*
G03*
X48636Y64166I1479J0D01*
G01*
X47672Y64049D02*
G03*
X47922Y64653I-604J604D01*
G01*
X-65945Y-69858D02*
G03*
X-66502Y-68514I-1901J0D01*
G01*
X-65388D02*
G03*
X-65945Y-69858I1344J-1344D01*
G01*
X3400Y-77600D02*
G03*
X3957Y-78943I1898J0D01*
G01*
X2843D02*
G03*
X3400Y-77600I-1342J1343D01*
G01*
X-50599Y-46300D02*
G03*
X-51943Y-46857I0J-1901D01*
G01*
Y-45743D02*
G03*
X-50599Y-46300I1344J1344D01*
G01*
X-50399Y-58700D02*
G03*
X-51743Y-59257I0J-1901D01*
G01*
Y-58143D02*
G03*
X-50399Y-58700I1344J1344D01*
G01*
X-51694Y-50442D02*
G03*
X-49890Y-49694I0J2551D01*
G01*
X-49890Y-50808D02*
G03*
X-50774Y-50442I-884J-884D01*
G01*
X-7893Y-58480D02*
G03*
X-9043Y-58957I0J-1627D01*
G01*
Y-57843D02*
G03*
X-7506Y-58480I1538J1538D01*
G01*
X-15856Y-45849D02*
G03*
X-15587Y-45200I-649J649D01*
G01*
X-15130Y-45915D02*
G03*
X-16094Y-46087I-359J-777D01*
G01*
X9436Y-38156D02*
G03*
X8879Y-39500I1344J-1344D01*
G01*
X8092Y-38713D02*
G03*
X9436Y-38156I0J1901D01*
G01*
X-13745Y-73162D02*
G03*
X-13321Y-73937I919J0D01*
G01*
X-14169D02*
G03*
X-13745Y-73162I-495J775D01*
G01*
X-11389Y-70807D02*
G03*
X-12957Y-74599I3786J-3786D01*
G01*
X-12731Y-72148D02*
G03*
X-13745Y-74600I2447J-2447D01*
G01*
X-16900Y-75499D02*
G03*
X-16343Y-76843I1901J0D01*
G01*
X-17457D02*
G03*
X-16900Y-75499I-1344J1344D01*
G01*
X-18699Y-81100D02*
G03*
X-20043Y-81657I0J-1901D01*
G01*
Y-80543D02*
G03*
X-18699Y-81100I1344J1344D01*
G01*
X25257Y-76443D02*
G03*
X28532Y-77800I3275J3275D01*
G01*
X24700Y-77000D02*
G03*
X26631Y-77800I1931J1931D01*
G01*
X-35401Y-73835D02*
G03*
X-34057Y-73278I0J1901D01*
G01*
Y-74391D02*
G03*
X-35401Y-73835I-1344J-1344D01*
G01*
X-31599D02*
G03*
X-32943Y-74391I0J-1901D01*
G01*
Y-73278D02*
G03*
X-31599Y-73835I1344J1344D01*
G01*
X-38350Y-62070D02*
G03*
X-39373Y-64458I2273J-2388D01*
G01*
X-38893Y-61500D02*
G03*
X-39373Y-62621I1068J-1121D01*
G01*
X-43123Y67026D02*
G03*
X-44468Y66469I0J-1901D01*
G01*
Y67583D02*
G03*
X-43123Y67026I1344J1344D01*
G01*
X21721Y-85700D02*
G03*
X23065Y-85143I0J1901D01*
G01*
Y-86257D02*
G03*
X21721Y-85700I-1344J-1344D01*
G01*
X25629Y20669D02*
G03*
X18214Y17598I0J-10486D01*
G01*
X23728Y20669D02*
G03*
X17657Y18155I0J-8585D01*
G01*
X21827Y20669D02*
G03*
X17100Y18711I0J-6684D01*
G01*
X19926Y20669D02*
G03*
X16543Y19268I0J-4783D01*
G01*
X18025Y20669D02*
G03*
X15986Y19825I0J-2882D01*
G01*
X-14322Y-53122D02*
G03*
X-13865Y-51487I-1224J1224D01*
G01*
X-39292Y-73841D02*
G03*
X-39983Y-72284I-2099J0D01*
G01*
X-38897Y-72257D02*
G03*
X-39292Y-73208I952J-952D01*
G01*
X5072Y-65824D02*
G03*
X5494Y-66843I1442J0D01*
G01*
X4450Y-66782D02*
G03*
X5072Y-65500I-1010J1281D01*
G01*
Y-69626D02*
G03*
X4380Y-67957I-2360J0D01*
G01*
X5494D02*
G03*
X5072Y-68976I1019J-1019D01*
G01*
X5045Y-64594D02*
G03*
X4515Y-63315I-1809J0D01*
G01*
X5628D02*
G03*
X5045Y-64724I1409J-1409D01*
G01*
Y-60792D02*
G03*
X5628Y-62201I1993J0D01*
G01*
X4515D02*
G03*
X5045Y-60922I-1279J1279D01*
G01*
X5072Y-64659D02*
G03*
X4515Y-63315I-1901J0D01*
G01*
X5628D02*
G03*
X5072Y-64659I1344J-1344D01*
G01*
Y-60857D02*
G03*
X5628Y-62201I1901J0D01*
G01*
X4515D02*
G03*
X5072Y-60857I-1344J1344D01*
G01*
X3171Y-62758D02*
G03*
X4515Y-62201I0J1901D01*
G01*
Y-63315D02*
G03*
X3171Y-62758I-1344J-1344D01*
G01*
X8801Y-52624D02*
G03*
X9196Y-53568I1126J-83D01*
G01*
X8271Y-53500D02*
G03*
X8801Y-52624I-596J959D01*
G01*
X8687Y-54168D02*
G03*
X9581Y-52394I-1696J1967D01*
G01*
X10563Y-50442D02*
G03*
X9460Y-54021I2832J-2832D01*
G01*
X9510Y-51494D02*
G03*
X8687Y-54168I2116J-2115D01*
G01*
X8458Y-52546D02*
G03*
X7913Y-54316I1400J-1400D01*
G01*
X8223Y-54805D02*
G03*
X6029Y-54975I-997J-1368D01*
G01*
X8687Y-54168D02*
G03*
X6680Y-54325I-912J-1251D01*
G01*
X9151Y-53532D02*
G03*
X7331Y-53674I-827J-1135D01*
G01*
X-54187Y-35497D02*
G03*
X-53343Y-37534I2881J0D01*
G01*
X-54457Y-37534D02*
G03*
X-54187Y-36882I-651J651D01*
G01*
X-10500Y-81501D02*
G03*
X-11057Y-80157I-1901J0D01*
G01*
X-9943D02*
G03*
X-10500Y-81501I1344J-1344D01*
G01*
X39492Y53773D02*
G03*
X39927Y52722I1486J0D01*
G01*
X38813Y52722D02*
G03*
X39492Y54360I-1638J1638D01*
G01*
X29777Y-72955D02*
G03*
X28433Y-73511I0J-1901D01*
G01*
Y-72398D02*
G03*
X29777Y-72955I1344J1344D01*
G01*
X25975D02*
G03*
X27319Y-72398I0J1901D01*
G01*
Y-73511D02*
G03*
X25975Y-72955I-1344J-1344D01*
G01*
X-34519Y-28401D02*
G03*
X-33175Y-27844I0J1901D01*
G01*
Y-28958D02*
G03*
X-34519Y-28401I-1344J-1344D01*
G01*
X-21409Y-33609D02*
G03*
X-21168Y-32774I-635J635D01*
G01*
X-20574Y-33368D02*
G03*
X-21409Y-33609I-199J-876D01*
G01*
X19001Y-16900D02*
G03*
X17657Y-17457I0J-1901D01*
G01*
Y-16343D02*
G03*
X19001Y-16900I1344J1344D01*
G01*
X-11608Y-426D02*
G03*
X-12600Y627I-1348J-276D01*
G01*
X-12662Y566D02*
G03*
X-11608Y-426I1329J356D01*
G01*
X-12952Y918D02*
G03*
X-11608Y361I1344J1344D01*
G01*
X-12396Y-426D02*
G03*
X-12952Y918I-1901J0D01*
G01*
X-15000Y-1700D02*
G03*
X-16116Y-671I-1446J-449D01*
G01*
X-16029Y-584D02*
G03*
X-15000Y-1700I1478J331D01*
G01*
X-16268Y-432D02*
G03*
X-15033Y-913I1166J1166D01*
G01*
X-15787Y-1667D02*
G03*
X-16268Y-432I-1648J69D01*
G01*
X30537Y-5110D02*
G03*
X30551Y-3537I-793J793D01*
G01*
X31104Y-4544D02*
G03*
X31117Y-2991I-783J783D01*
G01*
X19517Y-6091D02*
G03*
X18525Y-5037I-1348J-276D01*
G01*
X18464Y-5099D02*
G03*
X19517Y-6091I1329J356D01*
G01*
X18173Y-4746D02*
G03*
X19517Y-5303I1344J1344D01*
G01*
X18730Y-6091D02*
G03*
X18173Y-4746I-1901J0D01*
G01*
X-32117Y66918D02*
G03*
X-30987Y66833I653J1132D01*
G01*
X-31479Y65982D02*
G03*
X-32117Y66918I-1292J-195D01*
G01*
X-31626Y67026D02*
G03*
X-30931Y66853I491J491D01*
G01*
X-31453Y66331D02*
G03*
X-31626Y67026I-665J204D01*
G01*
X-33146Y66634D02*
G03*
X-31163Y66737I912J1579D01*
G01*
X-32095Y66027D02*
G03*
X-30700Y66100I642J1111D01*
G01*
X-31257Y65543D02*
G03*
X-34836Y67026I-3579J-3579D01*
G01*
X-30700Y66100D02*
G03*
X-32935Y67026I-2235J-2235D01*
G01*
X-16015Y-8359D02*
G03*
X-17400Y-8600I-548J-949D01*
G01*
X-16831Y-7887D02*
G03*
X-18000Y-8091I-463J-802D01*
G01*
X-18601Y-8600D02*
G03*
X-19986Y-8359I-836J-709D01*
G01*
X-18000Y-8091D02*
G03*
X-19169Y-7887I-706J-598D01*
G01*
X-17444Y-7534D02*
G03*
X-14590Y-8716I2853J2853D01*
G01*
X-18000Y-8091D02*
G03*
X-16491Y-8716I1509J1509D01*
G01*
X-21411D02*
G03*
X-18557Y-7534I0J4036D01*
G01*
X-19510Y-8716D02*
G03*
X-18000Y-8091I0J2135D01*
G01*
X-22899Y-6157D02*
G03*
X-24243Y-6713I0J-1901D01*
G01*
Y-5600D02*
G03*
X-22899Y-6157I1344J1344D01*
G01*
X-19682Y-14591D02*
G03*
X-21026Y-15147I0J-1901D01*
G01*
Y-14034D02*
G03*
X-19682Y-14591I1344J1344D01*
G01*
X41042Y-3072D02*
G03*
X39888Y-2187I-1646J-950D01*
G01*
X40852Y-1630D02*
G03*
X41042Y-3072I1836J-492D01*
G01*
X40813Y-1741D02*
G03*
X40992Y-4374I2621J-1145D01*
G01*
X40092Y-1426D02*
G03*
X40204Y-3081I1647J-720D01*
G01*
X41517Y-6768D02*
G03*
X39535Y-1983I-6768J0D01*
G01*
X41517Y-4867D02*
G03*
X40092Y-1426I-4867J0D01*
G01*
X41517Y-2966D02*
G03*
X40648Y-869I-2966J0D01*
G01*
X34466Y-8716D02*
G03*
X33926Y-7462I-1723J0D01*
G01*
X35006D02*
G03*
X34466Y-8716I1183J-1253D01*
G01*
X26592Y-4854D02*
G03*
X26035Y-3510I-1901J0D01*
G01*
X27149D02*
G03*
X26592Y-4854I1344J-1344D01*
G01*
X17Y70509D02*
G03*
X-304Y69529I808J-808D01*
G01*
X-964Y70188D02*
G03*
X17Y70509I173J1130D01*
G01*
X2576Y71409D02*
G03*
X3174Y69966I2041J0D01*
G01*
X2060D02*
G03*
X2576Y71212I-1245J1245D01*
G01*
X40816Y-19290D02*
G03*
X42160Y-18734I0J1901D01*
G01*
Y-19847D02*
G03*
X40816Y-19290I-1344J-1344D01*
G01*
X-32182Y-47608D02*
G03*
X-33726Y-48247I0J-2184D01*
G01*
Y-47134D02*
G03*
X-32582Y-47608I1144J1144D01*
G01*
X-35263Y-11275D02*
G03*
X-34440Y-10934I0J1164D01*
G01*
Y-12047D02*
G03*
X-36305Y-11275I-1865J-1865D01*
G01*
X13116Y-68286D02*
G03*
X13674Y-69634I1906J0D01*
G01*
X12560D02*
G03*
X13116Y-68293I-1340J1340D01*
G01*
Y-72088D02*
G03*
X12560Y-70747I-1896J0D01*
G01*
X13674D02*
G03*
X13116Y-72095I1348J-1348D01*
G01*
X-18740Y-12225D02*
G03*
X-21035Y-11275I-2295J-2295D01*
G01*
X33425Y-12225D02*
G03*
X31130Y-11275I-2295J-2295D01*
G01*
X13313Y-43200D02*
G03*
X12259Y-44192I276J-1348D01*
G01*
X12320Y-44253D02*
G03*
X13313Y-43200I-356J1329D01*
G01*
X11968Y-44544D02*
G03*
X12525Y-43200I-1344J1344D01*
G01*
X13313Y-43987D02*
G03*
X11968Y-44544I0J-1901D01*
G01*
X9392Y-20026D02*
G03*
X10559Y-18609I-972J1990D01*
G01*
X11242Y-17460D02*
G03*
X10179Y-20026I2566J-2566D01*
G01*
X9898Y-18804D02*
G03*
X9392Y-20026I1222J-1222D01*
G01*
X2800Y-28001D02*
G03*
X2243Y-26657I-1901J0D01*
G01*
X3357D02*
G03*
X2800Y-28001I1344J-1344D01*
G01*
X-27784Y68521D02*
G03*
X-27362Y66929I1580J-433D01*
G01*
X-48040Y74002D02*
G03*
X-47268Y72139I2635J0D01*
G01*
X-48382Y72139D02*
G03*
X-48040Y72964I-825J825D01*
G01*
X-48296Y77756D02*
G03*
X-49640Y77199I0J-1901D01*
G01*
Y78312D02*
G03*
X-48296Y77756I1344J1344D01*
G01*
X-33768Y75603D02*
G03*
X-34021Y76215I-865J0D01*
G01*
X-33126Y76061D02*
G03*
X-33768Y75044I484J-1017D01*
G01*
X50292Y75787D02*
G03*
X49238Y74795I276J-1348D01*
G01*
X49300Y74734D02*
G03*
X50292Y75787I-356J1329D01*
G01*
X48948Y74443D02*
G03*
X49504Y75787I-1344J1344D01*
G01*
X50292Y75000D02*
G03*
X48948Y74443I0J-1901D01*
G01*
X44834Y65788D02*
G03*
X43307Y64591I640J-2390D01*
G01*
Y65379D02*
G03*
X46191Y66573I0J4079D01*
G01*
X43307Y64591D02*
G03*
X44847Y65229I0J2178D01*
G01*
X47922Y65432D02*
G03*
X48636Y64166I1479J0D01*
G01*
X47672Y64049D02*
G03*
X47922Y64653I-604J604D01*
G01*
X-65945Y-69858D02*
G03*
X-66502Y-68514I-1901J0D01*
G01*
X-65388D02*
G03*
X-65945Y-69858I1344J-1344D01*
G01*
X3400Y-77600D02*
G03*
X3957Y-78943I1898J0D01*
G01*
X2843D02*
G03*
X3400Y-77600I-1342J1343D01*
G01*
X-48599Y-8300D02*
G03*
X-49943Y-8857I0J-1901D01*
G01*
Y-7743D02*
G03*
X-48599Y-8300I1344J1344D01*
G01*
X-50599Y-46300D02*
G03*
X-51943Y-46857I0J-1901D01*
G01*
Y-45743D02*
G03*
X-50599Y-46300I1344J1344D01*
G01*
X-27640Y-50428D02*
G03*
X-26296Y-49872I0J1901D01*
G01*
Y-50985D02*
G03*
X-27640Y-50428I-1344J-1344D01*
G01*
X-50399Y-58700D02*
G03*
X-51743Y-59257I0J-1901D01*
G01*
Y-58143D02*
G03*
X-50399Y-58700I1344J1344D01*
G01*
X-51694Y-50442D02*
G03*
X-49890Y-49694I0J2551D01*
G01*
X-49890Y-50808D02*
G03*
X-50774Y-50442I-884J-884D01*
G01*
X-7893Y-58480D02*
G03*
X-9043Y-58957I0J-1627D01*
G01*
Y-57843D02*
G03*
X-7506Y-58480I1538J1538D01*
G01*
X-15856Y-45849D02*
G03*
X-15587Y-45200I-649J649D01*
G01*
X-15130Y-45915D02*
G03*
X-16094Y-46087I-359J-777D01*
G01*
X8092Y-39500D02*
G03*
X9145Y-38508I-276J1348D01*
G01*
X9084Y-38447D02*
G03*
X8092Y-39500I356J-1329D01*
G01*
X9436Y-38156D02*
G03*
X8879Y-39500I1344J-1344D01*
G01*
X8092Y-38713D02*
G03*
X9436Y-38156I0J1901D01*
G01*
X-13745Y-73162D02*
G03*
X-13321Y-73937I919J0D01*
G01*
X-14169D02*
G03*
X-13745Y-73162I-495J775D01*
G01*
Y-74600D02*
G03*
X-12537Y-73022I-1301J2247D01*
G01*
X-13283Y-72869D02*
G03*
X-13081Y-74177I1589J-424D01*
G01*
X-14110Y-73902D02*
G03*
X-13283Y-72869I-762J1457D01*
G01*
X-11389Y-70807D02*
G03*
X-12957Y-74599I3786J-3786D01*
G01*
X-12731Y-72148D02*
G03*
X-13745Y-74600I2447J-2447D01*
G01*
X-16900Y-75499D02*
G03*
X-16343Y-76843I1901J0D01*
G01*
X-17457D02*
G03*
X-16900Y-75499I-1344J1344D01*
G01*
X-18699Y-81100D02*
G03*
X-20043Y-81657I0J-1901D01*
G01*
Y-80543D02*
G03*
X-18699Y-81100I1344J1344D01*
G01*
X26953Y-77423D02*
G03*
X25219Y-77592I-748J-1297D01*
G01*
X26000Y-76873D02*
G03*
X24700Y-77000I-561J-972D01*
G01*
X25924Y-77707D02*
G03*
X25073Y-77694I-438J-758D01*
G01*
X25487Y-76976D02*
G03*
X25924Y-77707I875J27D01*
G01*
X25257Y-76443D02*
G03*
X28532Y-77800I3275J3275D01*
G01*
X24700Y-77000D02*
G03*
X26631Y-77800I1931J1931D01*
G01*
X-35401Y-73835D02*
G03*
X-34057Y-73278I0J1901D01*
G01*
Y-74391D02*
G03*
X-35401Y-73835I-1344J-1344D01*
G01*
X-31599D02*
G03*
X-32943Y-74391I0J-1901D01*
G01*
Y-73278D02*
G03*
X-31599Y-73835I1344J1344D01*
G01*
X-38350Y-62070D02*
G03*
X-39373Y-64458I2273J-2388D01*
G01*
X-38893Y-61500D02*
G03*
X-39373Y-62621I1068J-1121D01*
G01*
X-43123Y67026D02*
G03*
X-44468Y66469I0J-1901D01*
G01*
Y67583D02*
G03*
X-43123Y67026I1344J1344D01*
G01*
X21721Y-85700D02*
G03*
X23065Y-85143I0J1901D01*
G01*
Y-86257D02*
G03*
X21721Y-85700I-1344J-1344D01*
G01*
X-26584Y-8716D02*
X-25357Y-9943D01*
X-29995Y-8716D02*
X-26584D01*
X-35113Y-18558D02*
X-26232D01*
X-13382Y-29700D02*
X-13308Y-29626D01*
X-21409Y-33609D02*
X-20400Y-32600D01*
X-19637Y-42928D02*
X-17546Y-40836D01*
X-11536D01*
X5045Y-40409D02*
Y-34326D01*
X4041Y-33322D02*
X5045Y-34326D01*
X3273Y-33322D02*
X4041D01*
X30145Y-16326D02*
X30380Y-16091D01*
X25748Y-16326D02*
X30145D01*
X34072Y-73390D02*
X34513Y-72948D01*
X33785Y-73676D02*
X34072Y-73390D01*
Y-77800D02*
Y-73390D01*
X9528Y-78401D02*
Y-77200D01*
X6125D02*
X9528D01*
X9968Y-78841D02*
X10883D01*
X9528Y-78401D02*
X9968Y-78841D01*
X-45151Y67300D02*
X-44877Y67026D01*
X-38325D01*
X-31626D01*
X-39109Y67810D02*
Y69882D01*
Y67810D02*
X-38325Y67026D01*
X-31626D02*
X-30700Y66100D01*
X-45151Y67153D02*
X-45024Y67026D01*
X-45151Y67153D02*
Y67300D01*
X43000Y-66400D02*
Y-41900D01*
X41907Y-40807D02*
X43000Y-41900D01*
X39817Y-40807D02*
X41907D01*
X43000Y-66400D02*
X45300Y-68700D01*
X56400D01*
X6000Y-85600D02*
X7348Y-84252D01*
X6000Y-92400D02*
Y-85600D01*
X4800Y-93600D02*
X6000Y-92400D01*
X39565Y-40554D02*
X39817Y-40807D01*
X39565Y-40554D02*
Y-34100D01*
X39690Y-29754D02*
Y-22495D01*
X39638Y-29806D02*
X39690Y-29754D01*
X28772Y-38254D02*
X29817Y-39300D01*
X29651Y-38243D02*
X29817Y-40807D01*
Y-39300D02*
Y-38077D01*
X29061Y-41334D02*
X29513Y-41787D01*
X28772Y-38254D02*
Y-34378D01*
X32013Y-26944D02*
Y-25448D01*
X28657Y-30300D02*
X32013Y-26944D01*
X29651Y-38243D02*
X29817Y-38077D01*
X28657Y-34264D02*
X28772Y-34378D01*
X28657Y-34264D02*
Y-30300D01*
X24817Y-40807D02*
X25228Y-40396D01*
Y-34378D01*
X23455Y-30300D02*
X25114D01*
X22258Y-31497D02*
X23455Y-30300D01*
X22258Y-47300D02*
Y-31497D01*
X-39373Y-64419D02*
Y-61981D01*
X-38893Y-61500D01*
X-44489Y-70008D02*
X-42443Y-67962D01*
X-39373D01*
X-44489Y-70008D02*
Y-62134D01*
Y-74611D02*
Y-70008D01*
X-42706Y-76394D02*
X-29500D01*
X-44489Y-74611D02*
X-42706Y-76394D01*
X-29500Y-73835D02*
X-29106Y-73441D01*
X-34295Y-71276D02*
X-29500D01*
X-36200Y-69371D02*
X-34295Y-71276D01*
X-36200Y-69371D02*
Y-59109D01*
X-36610Y-58700D02*
X-36200Y-59109D01*
X-52300Y-58700D02*
X-36610D01*
X-9299Y-68716D02*
X-5877D01*
X-9500Y-58480D02*
X-5877D01*
X-3014Y-51100D02*
X-1969Y-50054D01*
X9572Y-67771D02*
Y-57978D01*
X11216Y-56334D01*
X13122D01*
Y-55763D01*
X15400Y-53485D01*
Y-49600D01*
X14247Y-48447D02*
X15400Y-49600D01*
X12528Y-56300D02*
Y-55729D01*
X24158Y-53058D02*
X27800Y-56700D01*
X24158Y-53058D02*
Y-49200D01*
X22258Y-47300D02*
X24158Y-49200D01*
X27800Y-56700D02*
X37400D01*
X9694Y-37898D02*
Y-36124D01*
X8092Y-39500D02*
X9694Y-37898D01*
X37400Y-56700D02*
X38900Y-58200D01*
X29817Y-65216D02*
X30246Y-65645D01*
Y-73012D02*
Y-65645D01*
X6029Y-54976D02*
X10563Y-50442D01*
Y-50400D01*
X-14800Y-45200D02*
Y-45007D01*
X-14907Y-44900D02*
X-14800Y-45007D01*
X-17865Y-43666D02*
X-16808Y-42608D01*
X-5574D01*
X-2771Y-53362D02*
X-1235Y-51826D01*
X-5877Y-53362D02*
X-2771D01*
X10753Y-62062D02*
X10950Y-61865D01*
X23423Y-21862D02*
X28076D01*
X19323Y-21828D02*
X31937D01*
X32013Y-21905D01*
X6068Y-69700D02*
X9568Y-73200D01*
X5072Y-69700D02*
X6068D01*
X5072Y-76147D02*
X6125Y-77200D01*
X5072Y-76147D02*
Y-74100D01*
Y-69700D02*
Y-65500D01*
X545Y-68716D02*
X1528Y-69700D01*
X-5877Y-68716D02*
X545D01*
X1528Y-74100D02*
Y-69700D01*
X-2466Y-61039D02*
X-747Y-62758D01*
X-5877Y-61039D02*
X-2466D01*
X-9618Y-72293D02*
X-8600Y-71276D01*
X-5877D01*
Y-66157D02*
X1501D01*
X-44645Y-8526D02*
Y-6898D01*
X-49323Y-22386D02*
X-48229Y-23480D01*
X-38656D01*
X-65945Y-67957D02*
Y-59553D01*
Y-69962D02*
Y-67957D01*
X10000Y-95472D02*
Y-87598D01*
X48289Y65799D02*
Y73785D01*
X50292Y75787D01*
X47922Y65432D02*
X48289Y65799D01*
X47922Y63252D02*
X48162Y63492D01*
X48228D01*
X46517Y66899D02*
Y70544D01*
X43307Y63689D02*
Y64591D01*
X-64217Y-57826D02*
X-62313Y-55921D01*
X-65945Y-59553D02*
X-64217Y-57826D01*
X-62008D01*
X-61763Y-58071D01*
X-61024D01*
X-62313Y-55921D02*
X-29500D01*
X27876Y-72955D02*
X30188D01*
X25563D02*
X27876D01*
X45472Y71589D02*
X46517Y70544D01*
X45472Y71589D02*
Y71634D01*
X43760Y73347D02*
X45472Y71634D01*
X43760Y73347D02*
Y74185D01*
X35098Y63252D02*
X35950Y62400D01*
X35098Y63252D02*
Y74185D01*
X36417Y62867D02*
Y62992D01*
X35950Y62400D02*
X36417Y62867D01*
X39555Y65945D02*
X40779Y67169D01*
X39492Y65945D02*
X39555D01*
X40779Y67169D02*
X42534D01*
X39492Y53174D02*
Y65945D01*
X42534Y67169D02*
X43110Y67746D01*
Y69882D01*
X-64883Y-53362D02*
X-29500D01*
X-33768Y75071D02*
Y77433D01*
X-33465Y76772D02*
Y77130D01*
X-33768Y77433D02*
X-33465Y77130D01*
X-34654Y74185D02*
X-33768Y75071D01*
X-41985Y77756D02*
X-39378Y75150D01*
X-50197Y77756D02*
X-41985D01*
X-39378Y74185D02*
Y75150D01*
X-48040Y71797D02*
X-47825Y71582D01*
X-48040Y71797D02*
Y74185D01*
X-28543Y68110D02*
X-27362Y66929D01*
X-28543Y68110D02*
Y68729D01*
X-43315Y70544D02*
X-42653Y69882D01*
X-43315Y70544D02*
Y74185D01*
X-14052Y-81100D02*
X-13688Y-80736D01*
X2800Y-28265D02*
Y-26100D01*
X9392Y-20026D02*
X9875Y-19543D01*
X13116Y-76500D02*
Y-67771D01*
X51789Y-60162D02*
Y-46358D01*
Y-60162D02*
X52674Y-61047D01*
X-31873Y43701D02*
Y48228D01*
X24817Y-68379D02*
Y-65216D01*
X28076Y-21905D02*
X32013D01*
X-5574Y-42608D02*
X-5147Y-42180D01*
X-270D01*
X-38656Y-36472D02*
Y-33322D01*
Y-36472D02*
X-37520Y-37608D01*
X-29196D01*
X-35113Y-33322D02*
X-34398Y-32608D01*
X-29196D01*
X3273Y-42180D02*
X5045Y-40409D01*
X-383Y-22608D02*
X-270Y-22495D01*
X-5574Y-22608D02*
X-383D01*
X33588Y-11275D02*
X33982Y-11669D01*
X30537Y-11275D02*
X33588D01*
X-18577Y-11275D02*
X-18184Y-11669D01*
X-22121Y-11275D02*
X-18577D01*
X-34522D02*
X-33932Y-10684D01*
X-37869Y-11275D02*
X-34522D01*
X23423Y-25406D02*
X23465Y-25448D01*
X28076D01*
X34513Y-66196D02*
X34572Y-66255D01*
X34513Y-72948D02*
Y-66196D01*
X-29196Y-27608D02*
X-27835D01*
X-985Y-32608D02*
X-270Y-33322D01*
X-5574Y-32608D02*
X-985D01*
X-5574Y-42608D02*
X-3605D01*
X13116Y-67771D02*
X13313Y-67574D01*
X-34583Y-47608D02*
X-29196D01*
X13313Y-67574D02*
Y-64818D01*
X35950Y-22298D02*
X36147Y-22495D01*
X35950Y-22298D02*
Y-20527D01*
X-7103Y73589D02*
X-5860D01*
X-8841Y71850D02*
X-7103Y73589D01*
X-408Y61345D02*
X233Y61986D01*
X45605Y24295D02*
X46887Y23012D01*
X40683Y24295D02*
X41887Y23091D01*
X40683Y24295D02*
X45605D01*
X-41853Y24075D02*
X-41633Y24295D01*
X-52912D02*
X-41633D01*
X-39353D01*
X41887Y15105D02*
Y17185D01*
X38403Y20669D02*
X41887Y17185D01*
X-18684Y20669D02*
X-15731Y17717D01*
X-46853Y14465D02*
Y19075D01*
X-45258Y20669D02*
X-41853D01*
Y14465D02*
Y20669D01*
Y21794D01*
X23639Y-11417D02*
X26001D01*
X26592Y-10827D01*
Y-2953D01*
X26592Y-2953D02*
X26592Y-2953D01*
X30537Y-6157D02*
Y-5110D01*
Y-8716D02*
X34466D01*
X38411D01*
X34466D02*
Y-6890D01*
X46887Y15105D02*
Y18091D01*
Y23012D01*
X41887Y17185D02*
Y22979D01*
Y23091D01*
X17734Y20669D02*
X27458D01*
X38403D01*
X14781Y17717D02*
X16749Y19685D01*
X17734Y20669D01*
X-11703Y20579D02*
X15001D01*
X-41853Y21794D02*
X-40025Y23622D01*
X-39353Y24295D01*
X-41853Y21794D02*
Y23622D01*
Y24075D01*
X-46853Y19075D02*
X-45258Y20669D01*
X-31873Y43701D02*
X-29510Y41339D01*
X50120Y-27546D02*
Y-23901D01*
Y-27546D02*
X52379Y-29806D01*
Y-36318D02*
Y-26161D01*
X51789Y-36909D02*
X52379Y-36318D01*
X51789Y-41239D02*
Y-36909D01*
Y-41239D02*
X54348Y-43798D01*
X51789Y-46358D02*
X54348Y-43798D01*
X36147Y-22495D02*
Y-20461D01*
X37317Y-19290D01*
X42717D01*
X36117Y-16091D02*
X38254D01*
X33717Y-18490D02*
X36117Y-16091D01*
X33717Y-21505D02*
Y-18490D01*
X33317Y-21905D02*
X33717Y-21505D01*
X32013Y-21905D02*
X33317D01*
X38411Y-11275D02*
X40617D01*
X41517Y-10375D01*
Y-1691D01*
X41217Y-1390D02*
X41517Y-1691D01*
X30537Y-5110D02*
X32694Y-2953D01*
X15765Y-6299D02*
X17734Y-4331D01*
X18531Y-5504D02*
X18917Y-5891D01*
X-14247Y-13754D02*
Y-11275D01*
X15765Y-8858D02*
X19717D01*
X19720Y-8861D01*
X-40549Y-6157D02*
X-37869D01*
X-41083Y-6691D02*
X-40549Y-6157D01*
X-41083Y-13791D02*
Y-6691D01*
Y-13791D02*
X-40783Y-14090D01*
X-30983D02*
X-29995Y-13102D01*
Y-11275D01*
X-40783Y-14090D02*
X-30983D01*
X-37869Y-8716D02*
X-29995D01*
X-22121Y-6157D02*
X-22049D01*
X17931Y-4504D02*
Y-2953D01*
X-15083Y-14591D02*
X-14247Y-13754D01*
X-21583Y-14591D02*
X-15083D01*
X50120Y-23901D02*
X52379Y-26161D01*
X21017Y-8858D02*
X23639D01*
X19717D02*
X21017D01*
X20817Y-13413D02*
Y-9058D01*
X21017Y-8858D01*
X2576Y69968D02*
Y75937D01*
X17Y70509D02*
Y75937D01*
X-1083Y69410D02*
X17Y70509D01*
X17931Y-4504D02*
X19517Y-6091D01*
X-8841Y63386D02*
Y71850D01*
X19981Y-14250D02*
X20817Y-13413D01*
X14452Y-14250D02*
X19981D01*
X9875Y-18827D02*
X14452Y-14250D01*
X9875Y-19543D02*
Y-18827D01*
X-35113Y-28401D02*
X-32618D01*
X30188Y-72955D02*
X30246Y-73012D01*
X22020Y-71177D02*
X24817Y-68379D01*
X22020Y-72955D02*
Y-71177D01*
X39823Y69727D02*
Y74185D01*
X39505Y69410D02*
X39823Y69727D01*
X-23300Y-78700D02*
X-23000Y-78400D01*
X-23300Y-80928D02*
Y-78700D01*
X17100Y-16900D02*
X21630D01*
X22204Y-16326D01*
X3846Y-50054D02*
X7424Y-46476D01*
X-1969Y-50054D02*
X3846D01*
X7958Y-48447D02*
X14247D01*
X4580Y-51826D02*
X7958Y-48447D01*
X-1235Y-51826D02*
X4580D01*
X13631Y-26676D02*
X14934Y-25372D01*
X19323D01*
X-25357Y-15391D02*
Y-9943D01*
Y-15391D02*
X-23140Y-17608D01*
X-15419D01*
X-13382Y-19645D01*
Y-29700D02*
Y-19645D01*
X-45666Y-39847D02*
X-43333Y-42180D01*
X-38656D01*
X-36372Y-50428D02*
X-25739D01*
X-47437Y-41452D02*
X-43489Y-45400D01*
X-39300D01*
X-38100Y-46600D01*
Y-48700D02*
Y-46600D01*
Y-48700D02*
X-36372Y-50428D01*
X-6271Y-66551D02*
X-5877Y-66157D01*
X-9639Y-66551D02*
X-6271D01*
X-9176Y-51100D02*
X-3014D01*
X-10676Y-52600D02*
X-9176Y-51100D01*
X-10676Y-54997D02*
Y-52600D01*
X25500Y-77800D02*
X30528D01*
X-26232Y-18558D02*
X-23180Y-21610D01*
X-8908Y-32608D02*
X-5574D01*
X-10300Y-34000D02*
X-8908Y-32608D01*
X-10300Y-39600D02*
Y-34000D01*
X-11536Y-40836D02*
X-10300Y-39600D01*
X3272Y-46500D02*
X4894D01*
X6691Y-44704D01*
X11808D01*
X13313Y-43200D01*
X5045Y-65473D02*
X5072Y-65500D01*
X5045Y-65473D02*
Y-62758D01*
Y-60199D01*
X-747Y-62758D02*
X5045D01*
X5072Y-55933D02*
X6029Y-54976D01*
X5072Y-65500D02*
Y-62758D01*
Y-60199D01*
Y-55933D01*
X5045Y-60199D02*
X5072D01*
X5045Y-62758D02*
X5072D01*
X12872Y-81400D02*
X13172D01*
X12872D02*
Y-80829D01*
X47922Y63252D02*
Y65432D01*
X43307Y63689D02*
X46517Y66899D01*
X-23000Y-78400D02*
X-21000D01*
X-9192Y-63598D02*
X-5877D01*
X-21000Y-78400D02*
X-19941Y-77341D01*
X-16900Y-73812D02*
X-9639Y-66551D01*
X-16900Y-77400D02*
Y-73812D01*
X-19941Y-74347D02*
X-9192Y-63598D01*
X-19941Y-77341D02*
Y-74347D01*
X-13745Y-74600D02*
Y-73162D01*
X-11389Y-70806D01*
X-11383Y-70800D02*
X-9299Y-68716D01*
X-9618Y-74782D02*
Y-72293D01*
X-19500Y-81100D02*
X-15936D01*
X-14052D01*
X-13688Y-84280D02*
X-12179D01*
X-10500Y-82600D01*
Y-79600D01*
X0Y-87598D02*
X2902D01*
X3740Y-86760D01*
Y-84300D01*
X6640Y-81400D01*
X9328D01*
X3400Y-79500D02*
Y-77600D01*
X2459Y-76659D02*
X3400Y-77600D01*
X-27Y-76659D02*
X2459D01*
X-2851Y-73835D02*
X-27Y-76659D01*
X-5877Y-73835D02*
X-2851D01*
X-3072Y-83272D02*
X-1300D01*
X-4400Y-84600D02*
X-3072Y-83272D01*
X-4400Y-92700D02*
Y-84600D01*
Y-92700D02*
X-3500Y-93600D01*
X4800D01*
X-5877Y-76394D02*
X-4635D01*
X-1500Y-80128D02*
X-1300Y-79928D01*
X-7100Y-80128D02*
X-4800D01*
X-1500D01*
X-5877Y-79051D02*
Y-76394D01*
Y-79051D02*
X-4800Y-80128D01*
X-57700Y-62100D02*
X-49069D01*
X-58200Y-62600D02*
X-57700Y-62100D01*
X24700Y-77000D02*
X25500Y-77800D01*
X-17972Y-84100D02*
X-17700Y-84372D01*
X-35800Y-84100D02*
X-17972D01*
X-27228Y-84449D02*
X-18184D01*
X-24800Y-6157D02*
X-22121D01*
X-31797Y-2203D02*
X-29995Y-4005D01*
Y-6157D02*
Y-4005D01*
X-13374Y1340D02*
X-11608Y-426D01*
X-16269Y-432D02*
X-15000Y-1700D01*
X-44645Y-3354D02*
X-43494Y-2203D01*
X-31797D01*
X-18200D02*
X-14247Y-6157D01*
X-31797Y-2203D02*
X-18200D01*
X-50441Y-46300D02*
X-49209Y-45068D01*
X-52500Y-46300D02*
X-50441D01*
X-49209Y-45068D02*
Y-32998D01*
X-52866Y-26835D02*
X-47437Y-32264D01*
Y-41452D02*
Y-32264D01*
X-50981Y-41939D02*
Y-33800D01*
X-52783Y-43741D02*
X-50981Y-41939D01*
X-55699Y-49600D02*
X-54857Y-50442D01*
X-49524D01*
X-49333Y-50251D01*
X-55699Y-49600D02*
Y-44070D01*
X-55369Y-43741D02*
X-52783D01*
X-55699Y-44070D02*
X-55369Y-43741D01*
X-54187Y-38091D02*
X-53900D01*
X-54477Y-33099D02*
X-54187D01*
X-39292Y-73835D02*
Y-71863D01*
X-39454Y-71700D02*
X-39292Y-71863D01*
X-35748Y-73835D02*
X-33500D01*
X-29500D01*
X10883Y-78841D02*
X12872Y-80829D01*
X17568Y-36124D02*
X18142D01*
X19517Y-37500D01*
Y-44583D02*
Y-37500D01*
X17624Y-46476D02*
X19517Y-44583D01*
X7424Y-46476D02*
X17624D01*
X20694Y-60560D02*
Y-57884D01*
X14552Y-85700D02*
X23622D01*
X13104Y-84252D02*
X14552Y-85700D01*
X7348Y-84252D02*
X13104D01*
X12872Y-80829D02*
X15183Y-83141D01*
X13172Y-81600D02*
Y-81400D01*
X37000Y-83200D02*
X45900D01*
X45841Y-83141D02*
X45900Y-83200D01*
X15183Y-83141D02*
X45841D01*
X-29500Y-58480D02*
X-29106Y-58087D01*
X-26566D01*
X-23180Y-54700D01*
Y-21610D01*
X-21409Y-55488D02*
Y-33609D01*
X-29500Y-61039D02*
X-29106Y-60646D01*
X-26566D01*
X-21409Y-55488D01*
X-19637Y-56275D02*
Y-42928D01*
X-29500Y-63598D02*
X-29106Y-63205D01*
X-26566D01*
X-19637Y-56275D01*
X-29500Y-66157D02*
X-29106Y-65764D01*
X-26566D01*
X-17865Y-57063D01*
Y-43666D01*
X-16094Y-57850D02*
Y-46087D01*
X-29500Y-68716D02*
X-29106Y-68323D01*
X-26566D01*
X-16094Y-57850D01*
Y-46087D02*
X-14907Y-44900D01*
X-14322Y-53122D02*
X-12900Y-51700D01*
Y-51500D01*
X-13100Y-51300D02*
X-12900Y-51500D01*
X-14322Y-59914D02*
Y-53122D01*
X-25521Y-71114D02*
X-14322Y-59914D01*
X-12159Y-56481D02*
X-10676Y-54997D01*
X45841Y-83141D02*
X46607D01*
X46666Y-83200D02*
X46700D01*
X45900D02*
X46666D01*
X46700D02*
X46744Y-83157D01*
X46744Y-83157D01*
X46607Y-83141D02*
X46666Y-83200D01*
X5118Y70782D02*
Y76246D01*
Y70782D02*
X7300Y68600D01*
X-21841Y61752D02*
Y63473D01*
X-20963Y60874D02*
X-16860D01*
X-21841Y61752D02*
X-20963Y60874D01*
X-23819Y65451D02*
Y66929D01*
Y65451D02*
X-21841Y63473D01*
X2317Y69709D02*
X2576Y69968D01*
X-22121Y-8716D02*
X-14247D01*
X-54638Y-27569D02*
X-49209Y-32998D01*
X-62205Y-16732D02*
X-57577D01*
X-56410Y-17900D01*
Y-28371D02*
Y-17900D01*
Y-28371D02*
X-50981Y-33800D01*
X-62205Y-24606D02*
X-58406D01*
X-58300Y-24500D01*
X-58181Y-24619D01*
Y-29395D02*
Y-24619D01*
Y-29395D02*
X-54477Y-33099D01*
X-54187Y-38091D02*
Y-33099D01*
X-51095Y-26101D02*
X-45666Y-31530D01*
Y-39847D02*
Y-31530D01*
X-22500Y-75500D02*
Y-74401D01*
X-12159Y-64060D01*
Y-56481D01*
X-15936Y-81100D02*
X-9618Y-74782D01*
X-25521Y-77514D02*
Y-71114D01*
X-49600Y-76500D02*
X-47027Y-79073D01*
X-27081D01*
X-25521Y-77514D01*
X-62205Y-8858D02*
X-54638Y-16425D01*
Y-27569D02*
Y-16425D01*
X-62205Y-984D02*
X-56890Y-6299D01*
Y-11668D02*
Y-6299D01*
Y-11668D02*
X-52866Y-15691D01*
Y-26835D02*
Y-15691D01*
X-51095Y-26101D02*
Y-14957D01*
X-55118Y-10934D02*
X-51095Y-14957D01*
X-53500Y1340D02*
X-13374D01*
X-55118Y-10934D02*
Y-278D01*
X-53500Y1340D01*
X-53217Y-883D02*
X-52766Y-432D01*
X-16269D01*
X-53217Y-10329D02*
Y-883D01*
Y-10329D02*
X-49323Y-14224D01*
Y-22386D02*
Y-14224D01*
X-50500Y-8300D02*
X-44871D01*
X-44645Y-8526D01*
D11*
X46666Y-83200D02*
G03*
X46744Y-83157I-46649J83074D01*
G01*
X46744Y-83157D02*
G03*
X66750Y-68128I-46726J83031D01*
G01*
X2068Y-38661D02*
G03*
X-475Y-37608I-2543J-2543D01*
G01*
X-39892Y-28401D02*
G03*
X-42565Y-29508I0J-3781D01*
G01*
X-13387Y-5304D02*
G03*
X-12764Y-3802I-1503J1503D01*
G01*
X-9808Y-16052D02*
G03*
X-10226Y-15044I-1426J0D01*
G01*
X-9391D02*
G03*
X-9808Y-16052I1008J-1008D01*
G01*
X7192Y-23892D02*
G03*
X8200Y-24309I1008J1008D01*
G01*
X7609Y-24900D02*
G03*
X7192Y-23892I-1426J0D01*
G01*
X55063Y-3426D02*
G03*
X54118Y-3818I0J-1337D01*
G01*
Y-2982D02*
G03*
X55188Y-3426I1071J1071D01*
G01*
X517Y-55833D02*
G03*
X1118Y-57282I2050J0D01*
G01*
X39480Y-58309D02*
G03*
X39817Y-59400I1201J-226D01*
G01*
X39451Y-58413D02*
G03*
X39617Y-59200I688J-266D01*
G01*
X39817Y-59710D02*
G03*
X38899Y-58790I-920J0D01*
G01*
X741Y-37895D02*
G03*
X2113Y-37785I606J1050D01*
G01*
X2068Y-38661D02*
G03*
X-475Y-37608I-2543J-2543D01*
G01*
X-42634Y-28614D02*
G03*
X-41156Y-28694I801J1093D01*
G01*
X-39892Y-28401D02*
G03*
X-42565Y-29508I0J-3781D01*
G01*
X-13387Y-5304D02*
G03*
X-12764Y-3802I-1503J1503D01*
G01*
X-9808Y-16052D02*
G03*
X-10226Y-15044I-1426J0D01*
G01*
X-9391D02*
G03*
X-9808Y-16052I1008J-1008D01*
G01*
X7192Y-23892D02*
G03*
X8200Y-24309I1008J1008D01*
G01*
X7609Y-24900D02*
G03*
X7192Y-23892I-1426J0D01*
G01*
X55063Y-3426D02*
G03*
X54118Y-3818I0J-1337D01*
G01*
Y-2982D02*
G03*
X55188Y-3426I1071J1071D01*
G01*
X517Y-55833D02*
G03*
X1118Y-57282I2050J0D01*
G01*
X39480Y-58309D02*
G03*
X39817Y-59400I1201J-226D01*
G01*
X39451Y-58413D02*
G03*
X39617Y-59200I688J-266D01*
G01*
X39817Y-59710D02*
G03*
X38899Y-58790I-920J0D01*
G01*
X60253Y-69551D02*
Y-54412D01*
X56916Y-72889D02*
X60253Y-69551D01*
X38903Y-72889D02*
X56916D01*
X517Y-59215D02*
Y-54976D01*
X63009Y-51656D02*
Y-48523D01*
X60253Y-54412D02*
X63009Y-51656D01*
X38900Y-72886D02*
X38903Y-72889D01*
X517Y-59215D02*
X1501Y-60199D01*
X-428Y-55921D02*
X517Y-54976D01*
X-5877Y-55921D02*
X-428D01*
X-5574Y-17608D02*
X-5480Y-17702D01*
X6190Y-17800D02*
X12812Y-11177D01*
X65423Y53710D02*
X66750Y52383D01*
X64092Y-3426D02*
X66750Y-6084D01*
Y-23258D02*
Y-6084D01*
Y1432D02*
Y52383D01*
X12812Y-11177D02*
Y-1805D01*
X14618Y0D01*
X21671D01*
X-6827Y-17608D02*
X-5574D01*
X-12174Y-3802D02*
X-12108Y-3867D01*
Y-4026D02*
Y-3867D01*
X-14239Y-6157D02*
X-12108Y-4026D01*
X-14247Y-6157D02*
X-14239D01*
X62120Y-23901D02*
X66107D01*
X66750Y-23258D01*
X-42983Y-29091D02*
X-42293Y-28401D01*
X-38656D01*
X-35113Y-23480D02*
X-34241Y-22608D01*
X-29196D01*
X1850Y-37608D02*
X2486Y-38243D01*
X-5574Y-37608D02*
X1850D01*
X-1063Y-27608D02*
X-270Y-28401D01*
X-5574Y-27608D02*
X-1063D01*
X21671Y-2756D02*
Y0D01*
X21474Y-2953D02*
X21671Y-2756D01*
X21474Y-2953D02*
X23639Y-5118D01*
Y-6299D02*
Y-5118D01*
X60450Y-34487D02*
X62120Y-32818D01*
X60450Y-42421D02*
Y-36909D01*
X59072Y-43798D02*
X60450Y-42421D01*
X61828Y-43798D02*
X63009Y-44980D01*
X57891Y-43798D02*
X59072D01*
X61828D01*
X60450Y-35433D02*
X62120Y-33764D01*
Y-32818D01*
X60450Y-35433D02*
Y-34487D01*
X36238Y-2953D02*
Y0D01*
X9091Y53324D02*
X9476Y53710D01*
X56120Y-23901D02*
Y-10993D01*
X21671Y0D02*
X36238D01*
X-14247Y-6157D02*
X-14050Y-6353D01*
X63009Y-44980D02*
X65917D01*
X66750Y-45812D01*
X9217Y53969D02*
X9476Y53710D01*
X9217Y53969D02*
Y54087D01*
X11139Y61209D02*
X11639Y61709D01*
X36238Y-2953D02*
X38411Y-5126D01*
Y-6157D02*
Y-5126D01*
X65292Y-26D02*
X66750Y1432D01*
X44439Y-26D02*
X65292D01*
X37959Y1721D02*
X42692D01*
X36238Y0D02*
X37959Y1721D01*
X42692D02*
X44117Y296D01*
X44439Y-26D01*
X44117Y-9851D02*
Y296D01*
Y-9851D02*
X45592Y-11326D01*
X50417D01*
X-8800Y-17800D02*
X-8702Y-17702D01*
X-9808Y-16792D02*
X-8800Y-17800D01*
X-9808Y-16792D02*
Y-14626D01*
X-8800Y-17800D02*
X6190D01*
X-8702Y-17702D02*
X-5480D01*
X5795Y-22495D02*
X8200Y-24900D01*
X3273Y-22495D02*
X5795D01*
X53700Y-3426D02*
X64092D01*
X38903Y-72889D02*
X39817Y-71975D01*
Y-65216D01*
Y-59400D01*
X39617Y-59200D02*
X39817Y-59400D01*
X18166Y-56334D02*
X20500D01*
X66750Y-68128D02*
Y-45812D01*
D12*
X16617Y-65592D02*
G03*
X17066Y-66568I1286J0D01*
G01*
X16169D02*
G03*
X16617Y-65592I-838J976D01*
G01*
D02*
G03*
X17066Y-66568I1286J0D01*
G01*
X16169D02*
G03*
X16617Y-65592I-838J976D01*
G01*
X16385Y-61865D02*
X17643D01*
X13372Y-64878D02*
X16385Y-61865D01*
X34513Y-41787D02*
Y-33972D01*
X36147Y-32338D01*
Y-29806D01*
X16617Y-67090D02*
Y-65592D01*
X16800Y-65409D01*
X19699D01*
X20694Y-64413D01*
X16666Y-56334D02*
X18166D01*
X20694Y-64413D02*
Y-60560D01*
X19437Y-52100D02*
X20694Y-53357D01*
Y-57884D02*
Y-53357D01*
D13*
X43110Y69882D02*
D03*
X39567D02*
D03*
X-39109D02*
D03*
X-42653D02*
D03*
X9328Y-81400D02*
D03*
X12872D02*
D03*
X16666Y-56334D02*
D03*
X13122D02*
D03*
X5072Y-65500D02*
D03*
X1528D02*
D03*
X25228Y-34378D02*
D03*
X28772D02*
D03*
X-23819Y66929D02*
D03*
X-27362D02*
D03*
X30528Y-77800D02*
D03*
X34072D02*
D03*
X22020Y-72955D02*
D03*
X25563D02*
D03*
X39690Y-22495D02*
D03*
X36147D02*
D03*
X-39292Y-73835D02*
D03*
X-35748D02*
D03*
X1528Y-69700D02*
D03*
X5072D02*
D03*
X1501Y-60199D02*
D03*
X5045D02*
D03*
X54348Y-43798D02*
D03*
X57891D02*
D03*
X52379Y-29806D02*
D03*
X55923D02*
D03*
X5072Y-74100D02*
D03*
X1528D02*
D03*
X22204Y-16326D02*
D03*
X25748D02*
D03*
X28657Y-30300D02*
D03*
X25114D02*
D03*
X36094Y-29806D02*
D03*
X39638D02*
D03*
X30246Y-73012D02*
D03*
X33789D02*
D03*
X36021Y-34100D02*
D03*
X39565D02*
D03*
X13116Y-67771D02*
D03*
X9572D02*
D03*
X9528Y-76500D02*
D03*
X13072D02*
D03*
Y-72500D02*
D03*
X9528D02*
D03*
X17931Y-2953D02*
D03*
X21474D02*
D03*
X32694D02*
D03*
X36238D02*
D03*
X-38656Y-18558D02*
D03*
X-35113D02*
D03*
Y-23480D02*
D03*
X-38656D02*
D03*
Y-33322D02*
D03*
X-35113D02*
D03*
Y-28401D02*
D03*
X-38656D02*
D03*
Y-42180D02*
D03*
X-35113D02*
D03*
X-270D02*
D03*
X3273D02*
D03*
X3272Y-46500D02*
D03*
X-272D02*
D03*
X3273Y-22495D02*
D03*
X-270D02*
D03*
X3273Y-33322D02*
D03*
X-270D02*
D03*
Y-28401D02*
D03*
X3273D02*
D03*
D14*
X19437Y-51400D02*
D03*
X11563D02*
D03*
X30380Y-16091D02*
D03*
X38254D02*
D03*
D15*
X17643Y-61865D02*
D03*
X10950D02*
D03*
D16*
X30537Y-6157D02*
D03*
Y-8716D02*
D03*
Y-11275D02*
D03*
X38411Y-6157D02*
D03*
Y-8716D02*
D03*
Y-11275D02*
D03*
X15765Y-6299D02*
D03*
Y-8858D02*
D03*
Y-11417D02*
D03*
X23639Y-6299D02*
D03*
Y-8858D02*
D03*
Y-11417D02*
D03*
X-22121Y-6157D02*
D03*
Y-8716D02*
D03*
Y-11275D02*
D03*
X-14247Y-6157D02*
D03*
Y-8716D02*
D03*
Y-11275D02*
D03*
X-37869Y-6157D02*
D03*
Y-8716D02*
D03*
Y-11275D02*
D03*
X-29995Y-6157D02*
D03*
Y-8716D02*
D03*
Y-11275D02*
D03*
D17*
X-39373Y-64419D02*
D03*
Y-67962D02*
D03*
X-29100Y-80928D02*
D03*
Y-84472D02*
D03*
X-13900Y-84272D02*
D03*
Y-80728D02*
D03*
X-7100Y-80128D02*
D03*
Y-83672D02*
D03*
X-44645Y-14032D02*
D03*
Y-10489D02*
D03*
X-1300Y-79928D02*
D03*
Y-83472D02*
D03*
X19323Y-21828D02*
D03*
Y-25372D02*
D03*
X32013Y-25448D02*
D03*
Y-21905D02*
D03*
X-18300Y-80828D02*
D03*
Y-84372D02*
D03*
X-24500Y-80928D02*
D03*
Y-84472D02*
D03*
X23423Y-25406D02*
D03*
Y-21862D02*
D03*
X5717Y53968D02*
D03*
Y57512D02*
D03*
X28076Y-21905D02*
D03*
Y-25448D02*
D03*
X-44645Y-6898D02*
D03*
Y-3354D02*
D03*
X63009Y-48523D02*
D03*
Y-44980D02*
D03*
D18*
X-44489Y-70008D02*
D03*
Y-62134D02*
D03*
X-53938Y-66071D02*
D03*
D19*
X35098Y74185D02*
D03*
X48484D02*
D03*
X-48040D02*
D03*
X-34654D02*
D03*
D20*
X39823D02*
D03*
X-43315D02*
D03*
D21*
X43760D02*
D03*
X-39378D02*
D03*
D22*
X-62205Y-24606D02*
D03*
Y-16732D02*
D03*
Y-8858D02*
D03*
Y-984D02*
D03*
Y-32480D02*
D03*
D23*
Y6890D02*
D03*
D24*
X-25521Y60874D02*
D03*
X-16860D02*
D03*
X60409Y-61047D02*
D03*
X52535D02*
D03*
X60253Y-54412D02*
D03*
X51592D02*
D03*
X60450Y-36909D02*
D03*
X51789D02*
D03*
X-25000Y48228D02*
D03*
X-16339D02*
D03*
X-25000Y54134D02*
D03*
X-16339D02*
D03*
D25*
X9694Y-36124D02*
D03*
X17568D02*
D03*
X13631Y-26676D02*
D03*
D26*
X-29196Y-17608D02*
D03*
D27*
Y-22608D02*
D03*
Y-27608D02*
D03*
Y-32608D02*
D03*
Y-37608D02*
D03*
Y-42608D02*
D03*
Y-47608D02*
D03*
X-5574Y-17608D02*
D03*
Y-22608D02*
D03*
Y-27608D02*
D03*
Y-32608D02*
D03*
Y-37608D02*
D03*
Y-42608D02*
D03*
Y-47608D02*
D03*
D28*
X-6780Y51458D02*
D03*
Y60119D02*
D03*
X20D02*
D03*
Y51458D02*
D03*
D29*
X38903Y-72889D02*
D03*
Y-78401D02*
D03*
X54151Y24803D02*
D03*
Y30315D02*
D03*
X23639D02*
D03*
Y24803D02*
D03*
X-59802Y29806D02*
D03*
Y24295D02*
D03*
X-52912D02*
D03*
Y29806D02*
D03*
D30*
X-15292Y17039D02*
D03*
Y29637D02*
D03*
X-7418D02*
D03*
Y17039D02*
D03*
X456D02*
D03*
Y29637D02*
D03*
X8330D02*
D03*
Y17039D02*
D03*
D31*
X31887Y39514D02*
D03*
X46887Y15105D02*
D03*
X36887D02*
D03*
X46887Y39514D02*
D03*
X36887D02*
D03*
X31887Y15105D02*
D03*
X41887D02*
D03*
Y39514D02*
D03*
X-46853Y38875D02*
D03*
X-31853Y14465D02*
D03*
X-41853D02*
D03*
X-31853Y38875D02*
D03*
X-41853D02*
D03*
X-46853Y14465D02*
D03*
X-36853D02*
D03*
Y38875D02*
D03*
D32*
X-29500Y-76394D02*
D03*
X-5877D02*
D03*
X-29500Y-73835D02*
D03*
Y-71276D02*
D03*
Y-68716D02*
D03*
Y-66157D02*
D03*
Y-63598D02*
D03*
Y-61039D02*
D03*
Y-58480D02*
D03*
Y-55921D02*
D03*
Y-53362D02*
D03*
X-5877D02*
D03*
Y-55921D02*
D03*
Y-58480D02*
D03*
Y-61039D02*
D03*
Y-63598D02*
D03*
Y-66157D02*
D03*
Y-68716D02*
D03*
Y-71276D02*
D03*
Y-73835D02*
D03*
D33*
X34817Y-40807D02*
D03*
X34817Y-65216D02*
D03*
X24817D02*
D03*
X29817Y-40807D02*
D03*
X39817Y-40807D02*
D03*
X29817Y-65216D02*
D03*
X39817D02*
D03*
X24817Y-40807D02*
D03*
D34*
X56120Y-23901D02*
D03*
D35*
X62120D02*
D03*
X50120D02*
D03*
D36*
X6029Y-54976D02*
D03*
X517D02*
D03*
D37*
X-35800Y-84100D02*
D03*
X-49600Y-76500D02*
D03*
D38*
X5118Y76246D02*
D03*
X2559D02*
D03*
X0D02*
D03*
X-2559D02*
D03*
X-5118D02*
D03*
D39*
X-3150Y86679D02*
D03*
X3150D02*
D03*
D40*
X-44645Y-10489D02*
Y-8526D01*
X-50383Y9609D02*
Y12810D01*
X-59802Y22228D02*
Y24295D01*
X-50383Y9609D02*
X-49333Y8560D01*
X-40548D01*
X-36853Y11709D02*
Y14465D01*
Y10295D02*
Y11709D01*
X-30883D01*
X-37399D02*
X-36853D01*
X-40548Y8560D02*
X-37399Y11709D01*
X50617Y43888D02*
X54151Y40354D01*
X46887Y39514D02*
X47922D01*
X-35089Y-42600D02*
X-29600D01*
X-5574Y-47608D02*
X-776D01*
X-270Y-47102D01*
X34466Y48228D02*
X36887Y45807D01*
Y39514D02*
Y45807D01*
X36887Y11280D02*
Y15105D01*
X35450Y9843D02*
X36887Y11280D01*
X30529Y9843D02*
X35450D01*
X31887Y11201D02*
Y15105D01*
X30529Y9843D02*
X31887Y11201D01*
X22655Y9843D02*
X25608Y6890D01*
X28561D01*
X54151Y24606D02*
Y24803D01*
Y24606D02*
X57104Y21654D01*
Y19685D02*
Y21654D01*
X23639Y30315D02*
X54151D01*
X23639D02*
Y42323D01*
X17734Y48228D02*
X23639Y42323D01*
X17734Y48228D02*
X34466D01*
X-15752Y55809D02*
X-15652Y55910D01*
X-15752Y53110D02*
Y55809D01*
Y49809D02*
Y53110D01*
X-15537Y53324D01*
X233D01*
X9572Y65256D02*
X11139Y63689D01*
X7670Y65256D02*
X9572D01*
X5973Y66953D02*
X7670Y65256D01*
X233Y53324D02*
X3002D01*
X9217Y54087D02*
X11139Y56010D01*
X8454Y53324D02*
X9217Y54087D01*
X3002Y53324D02*
X3054Y53272D01*
X2617Y53710D02*
X3002Y53324D01*
X8454D01*
X11139Y61209D02*
Y63689D01*
Y56010D02*
Y61209D01*
X54151Y38209D02*
Y40354D01*
Y30315D02*
Y38209D01*
X23639Y51310D02*
X25339Y49609D01*
X50384Y41976D02*
X54151Y38209D01*
X47922Y39514D02*
X50384Y41976D01*
D41*
X-33562Y29806D02*
X-29510Y33858D01*
X-52958Y29474D02*
X-33608D01*
X61592Y-32826D02*
Y-23909D01*
X-29510Y33858D02*
Y41339D01*
X19568Y12929D02*
X22655Y9843D01*
X30529D01*
X-59317Y29806D02*
X-52912D01*
X-59317D02*
X-59038Y30085D01*
D42*
X-61619Y19019D02*
X-52200Y9600D01*
X-45258Y17717D02*
X-43290D01*
X41999Y22979D02*
X46887Y18091D01*
X-50180Y22638D02*
X-46735Y19193D01*
X-45258Y17717D01*
X29767Y22979D02*
X41887D01*
X41999D01*
X26474Y19685D02*
X27458Y20669D01*
X29767Y22979D01*
X16749Y19685D02*
X26474D01*
X57104Y7874D02*
Y19685D01*
X56120Y6890D02*
X57104Y7874D01*
X28561Y6890D02*
X56120D01*
X12863D02*
X25608D01*
D43*
X-25550Y45340D02*
D03*
D44*
X56567Y-13345D02*
D03*
D45*
X-3546Y60655D02*
D03*
D46*
X5753Y53310D02*
D03*
D47*
X62797Y-34611D02*
D03*
D48*
X-31950Y5987D02*
D03*
D49*
X-26800Y57600D02*
D03*
D50*
X6000Y70677D02*
D03*
D51*
X-330Y51705D02*
D03*
D52*
X-150Y30665D02*
D03*
D53*
X-2347Y19300D02*
D03*
D54*
X-10000Y-87598D02*
D03*
X0D02*
D03*
X10000D02*
D03*
X16749Y32400D02*
D03*
X17100Y18711D02*
D03*
D55*
X-9000Y7200D02*
D03*
D56*
X5900Y38000D02*
D03*
D57*
X-10236Y76246D02*
D03*
X10236D02*
D03*
D58*
X-14173Y86679D02*
D03*
X14173D02*
D03*
D59*
X23622Y-85700D02*
D03*
X-58500Y6100D02*
D03*
X-45024Y67026D02*
D03*
X-49069Y-62100D02*
D03*
X57000Y-68700D02*
D03*
X-38893Y-61500D02*
D03*
X-33500Y-73835D02*
D03*
X24700Y-77000D02*
D03*
X-20600Y-81100D02*
D03*
X-22500Y-75500D02*
D03*
X-16900Y-77400D02*
D03*
X-13745Y-74600D02*
D03*
X38900Y-58200D02*
D03*
X700Y-57700D02*
D03*
X8092Y-39500D02*
D03*
X-14800Y-45200D02*
D03*
X-9600Y-58400D02*
D03*
X-20900Y-87100D02*
D03*
X-49333Y-50251D02*
D03*
X-52300Y-58700D02*
D03*
X-25739Y-50428D02*
D03*
X-52500Y-46300D02*
D03*
X-50500Y-8300D02*
D03*
X-59429Y-35433D02*
D03*
X3400Y-79500D02*
D03*
X-61024Y-58071D02*
D03*
X-59802Y-50039D02*
D03*
X-65945Y-67957D02*
D03*
X48228Y63492D02*
D03*
X43307Y64591D02*
D03*
X36417Y62992D02*
D03*
X23622Y-64960D02*
D03*
X50292Y75787D02*
D03*
X-64883Y-53362D02*
D03*
X-33465Y76772D02*
D03*
X-50197Y77756D02*
D03*
X-47825Y71582D02*
D03*
X-24400Y62400D02*
D03*
X-28543Y68729D02*
D03*
X-2125Y59974D02*
D03*
X-5572Y60074D02*
D03*
X53700Y-3400D02*
D03*
X2800Y-26100D02*
D03*
X8200Y-24900D02*
D03*
X9392Y-20026D02*
D03*
X-9808Y-14626D02*
D03*
X-12174Y-3802D02*
D03*
X33017Y-54090D02*
D03*
X37517D02*
D03*
X37417Y-48891D02*
D03*
X31417Y-48491D02*
D03*
X43017Y-13191D02*
D03*
X46417Y-19390D02*
D03*
X46517Y-14390D02*
D03*
X46417Y-43165D02*
D03*
Y-38091D02*
D03*
X46517Y-33291D02*
D03*
Y-27891D02*
D03*
Y-23491D02*
D03*
X-42683Y-20491D02*
D03*
X-42583Y-16590D02*
D03*
X-42983Y-29091D02*
D03*
X417Y58810D02*
D03*
X-7683Y58909D02*
D03*
X13313Y-43200D02*
D03*
X-13308Y-29626D02*
D03*
X2486Y-38243D02*
D03*
X33982Y-11669D02*
D03*
X-18184Y-11669D02*
D03*
X16617Y-67090D02*
D03*
X13117Y-70191D02*
D03*
X-33883Y-11491D02*
D03*
X-34283Y-47691D02*
D03*
X42717Y-19290D02*
D03*
X26717Y-48312D02*
D03*
X2617Y69410D02*
D03*
X-1083D02*
D03*
X26592Y-2953D02*
D03*
X34466Y-6890D02*
D03*
X42340Y36417D02*
D03*
X31513D02*
D03*
X-36400Y35433D02*
D03*
X-47227D02*
D03*
X-3783Y62110D02*
D03*
X-3708Y58574D02*
D03*
X-10283Y61510D02*
D03*
X-10183Y59009D02*
D03*
X-7643Y61709D02*
D03*
X40092Y-1426D02*
D03*
X-21583Y-14591D02*
D03*
X-24800Y-6157D02*
D03*
X17917Y-11691D02*
D03*
X-35883Y-4762D02*
D03*
X-18000Y-8091D02*
D03*
X-30700Y66100D02*
D03*
X19517Y-6091D02*
D03*
X31117Y-2991D02*
D03*
X-183Y61709D02*
D03*
X-15000Y-1700D02*
D03*
X-11608Y-426D02*
D03*
X17100Y-16900D02*
D03*
X-20400Y-32600D02*
D03*
X-32618Y-28401D02*
D03*
X27876Y-72955D02*
D03*
X39370Y52165D02*
D03*
X-10500Y-79600D02*
D03*
X-58200Y-62600D02*
D03*
X-53900Y-38091D02*
D03*
X8687Y-54168D02*
D03*
X5072Y-62758D02*
D03*
X4937Y-67400D02*
D03*
X-39454Y-71700D02*
D03*
X-47300Y-66100D02*
D03*
X37500Y-76659D02*
D03*
X42800Y-76100D02*
D03*
X46400Y-52400D02*
D03*
X46000Y-56500D02*
D03*
X45700Y-60500D02*
D03*
X18800Y-30471D02*
D03*
X16400Y-76900D02*
D03*
X-13100Y-51300D02*
D03*
X-35357Y69900D02*
D03*
X-32067Y70000D02*
D03*
X-29000Y73500D02*
D03*
X-24700Y73600D02*
D03*
X-13308Y74000D02*
D03*
X-16700Y76597D02*
D03*
Y80900D02*
D03*
X-8500Y85700D02*
D03*
X-10661Y82200D02*
D03*
X28946Y72900D02*
D03*
X29100Y69410D02*
D03*
X29900Y65032D02*
D03*
X32200Y69800D02*
D03*
X26500Y69400D02*
D03*
X10236Y80700D02*
D03*
X14452Y79800D02*
D03*
M02*
