%FSLAX25Y25*%
%MOIN*%
G70*
G01*
G75*
G04 Layer_Color=32896*
%ADD10C,0.00787*%
%ADD11C,0.01181*%
%ADD12C,0.00984*%
%ADD13R,0.01969X0.02362*%
%ADD14R,0.03937X0.03150*%
%ADD15R,0.03150X0.03543*%
%ADD16R,0.02756X0.01575*%
%ADD17R,0.02362X0.01969*%
%ADD18R,0.04724X0.03543*%
%ADD19R,0.03937X0.02756*%
%ADD20R,0.01969X0.03937*%
%ADD21R,0.02362X0.03937*%
%ADD22O,0.07874X0.05906*%
%ADD23R,0.07874X0.05906*%
%ADD24R,0.03937X0.04724*%
%ADD25R,0.03543X0.03937*%
%ADD26R,0.04921X0.02362*%
%ADD27O,0.04921X0.02362*%
%ADD28R,0.04724X0.03937*%
%ADD29R,0.03543X0.02362*%
%ADD30R,0.06299X0.04921*%
%ADD31O,0.02362X0.07874*%
%ADD32R,0.04724X0.01575*%
%ADD33O,0.02362X0.07874*%
%ADD34R,0.03400X0.10000*%
%ADD35R,0.03400X0.05000*%
%ADD36R,0.02362X0.03543*%
G04:AMPARAMS|DCode=37|XSize=59.06mil|YSize=78.74mil|CornerRadius=0mil|HoleSize=0mil|Usage=FLASHONLY|Rotation=45.000|XOffset=0mil|YOffset=0mil|HoleType=Round|Shape=Round|*
%AMOVALD37*
21,1,0.01969,0.05906,0.00000,0.00000,135.0*
1,1,0.05906,0.00696,-0.00696*
1,1,0.05906,-0.00696,0.00696*
%
%ADD37OVALD37*%

%ADD38R,0.01575X0.04921*%
%ADD39R,0.02362X0.05315*%
%ADD40C,0.01969*%
%ADD41C,0.03937*%
%ADD42C,0.05906*%
%ADD43R,0.06717X0.02806*%
%ADD44R,0.15106X0.14091*%
%ADD45R,0.12325X0.05909*%
%ADD46R,0.08728X0.04000*%
%ADD47R,0.07905X0.22706*%
%ADD48R,0.47900X0.06374*%
%ADD49R,0.06200X0.11200*%
%ADD50R,0.02400X0.07447*%
%ADD51R,0.11060X0.04191*%
%ADD52R,0.38700X0.08270*%
%ADD53R,0.31672X0.09600*%
%ADD54C,0.03937*%
%ADD55C,0.09843*%
%ADD56O,0.11811X0.09843*%
%ADD57C,0.05118*%
%ADD58O,0.04331X0.07087*%
%ADD59C,0.02362*%
%ADD60C,0.07874*%
%ADD61R,0.07874X0.07874*%
%ADD62R,0.05906X0.07874*%
%ADD63C,0.04724*%
%ADD64C,0.00197*%
%ADD65C,0.00394*%
%ADD66C,0.00591*%
%ADD67C,0.01969*%
%ADD68C,0.00250*%
%ADD69C,0.00200*%
%ADD70C,0.00500*%
%ADD71C,0.00374*%
%ADD72C,0.00400*%
%ADD73C,0.00800*%
%ADD74R,0.00200X0.00700*%
%ADD75R,0.00300X0.00600*%
%ADD76R,0.00300X0.00500*%
%ADD77O,0.05906X0.09843*%
%ADD78C,0.05906*%
%ADD79R,0.11083X0.10189*%
%ADD80R,0.15688X0.05292*%
%ADD81R,0.02769X0.03162*%
%ADD82R,0.04737X0.03950*%
%ADD83R,0.03950X0.04343*%
%ADD84R,0.03556X0.02375*%
%ADD85R,0.03162X0.02769*%
%ADD86R,0.05524X0.04343*%
%ADD87R,0.04737X0.03556*%
%ADD88R,0.02769X0.04737*%
%ADD89R,0.03162X0.04737*%
%ADD90O,0.08674X0.06706*%
%ADD91R,0.08674X0.06706*%
%ADD92R,0.04737X0.05524*%
%ADD93R,0.04343X0.04737*%
%ADD94R,0.05721X0.03162*%
%ADD95O,0.05721X0.03162*%
%ADD96R,0.05524X0.04737*%
%ADD97R,0.04343X0.03162*%
%ADD98R,0.07099X0.05721*%
%ADD99O,0.03162X0.08674*%
%ADD100R,0.05524X0.02375*%
%ADD101O,0.03162X0.08674*%
%ADD102R,0.04200X0.10800*%
%ADD103R,0.04200X0.05800*%
%ADD104R,0.03162X0.04343*%
G04:AMPARAMS|DCode=105|XSize=67.06mil|YSize=86.74mil|CornerRadius=0mil|HoleSize=0mil|Usage=FLASHONLY|Rotation=45.000|XOffset=0mil|YOffset=0mil|HoleType=Round|Shape=Round|*
%AMOVALD105*
21,1,0.01969,0.06706,0.00000,0.00000,135.0*
1,1,0.06706,0.00696,-0.00696*
1,1,0.06706,-0.00696,0.00696*
%
%ADD105OVALD105*%

%ADD106C,0.04737*%
%ADD107C,0.10642*%
%ADD108O,0.12611X0.10642*%
%ADD109C,0.03162*%
%ADD110R,0.08674X0.08674*%
%ADD111R,0.06706X0.08674*%
%ADD112C,0.05524*%
%ADD113C,0.01000*%
D11*
X65892Y65974D02*
G03*
X65892Y65974I-7087J0D01*
G01*
X-51908Y66074D02*
G03*
X-51908Y66074I-7087J0D01*
G01*
D113*
X21896Y-58200D02*
X25228D01*
X21896Y-54868D01*
Y-54035D01*
X22729Y-53202D01*
X24395D01*
X25228Y-54035D01*
X20230D02*
X19397Y-53202D01*
X17731D01*
X16898Y-54035D01*
Y-57367D01*
X17731Y-58200D01*
X19397D01*
X20230Y-57367D01*
Y-54035D01*
X15232Y-58200D02*
X13566D01*
X14399D01*
Y-53202D01*
X15232Y-54035D01*
X11066D02*
X10233Y-53202D01*
X8567D01*
X7734Y-54035D01*
Y-54868D01*
X8567Y-55701D01*
X7734Y-56534D01*
Y-57367D01*
X8567Y-58200D01*
X10233D01*
X11066Y-57367D01*
Y-56534D01*
X10233Y-55701D01*
X11066Y-54868D01*
Y-54035D01*
X10233Y-55701D02*
X8567D01*
X6068D02*
X2736D01*
X1070Y-54035D02*
X237Y-53202D01*
X-1430D01*
X-2263Y-54035D01*
Y-57367D01*
X-1430Y-58200D01*
X237D01*
X1070Y-57367D01*
Y-54035D01*
X-3929D02*
X-4762Y-53202D01*
X-6428D01*
X-7261Y-54035D01*
Y-54868D01*
X-6428Y-55701D01*
X-5595D01*
X-6428D01*
X-7261Y-56534D01*
Y-57367D01*
X-6428Y-58200D01*
X-4762D01*
X-3929Y-57367D01*
X-8927Y-55701D02*
X-12259D01*
X-13926Y-54035D02*
X-14759Y-53202D01*
X-16425D01*
X-17258Y-54035D01*
Y-57367D01*
X-16425Y-58200D01*
X-14759D01*
X-13926Y-57367D01*
Y-54035D01*
X-21423Y-58200D02*
Y-53202D01*
X-18924Y-55701D01*
X-22256D01*
X31417Y-43492D02*
Y-48491D01*
X28918D01*
X28085Y-47657D01*
Y-46824D01*
X28918Y-45991D01*
X31417D01*
X28918D01*
X28085Y-45158D01*
Y-44325D01*
X28918Y-43492D01*
X31417D01*
X26419Y-48491D02*
Y-43492D01*
X23920D01*
X23087Y-44325D01*
Y-45991D01*
X23920Y-46824D01*
X26419D01*
X21420Y-45991D02*
X18088D01*
X13090Y-47657D02*
Y-44325D01*
X13923Y-43492D01*
X15589D01*
X16422Y-44325D01*
Y-47657D01*
X15589Y-48491D01*
X13923D01*
X14756Y-46824D02*
X13090Y-48491D01*
X13923D02*
X13090Y-47657D01*
X8091Y-43492D02*
X11424D01*
Y-45991D01*
X9758Y-45158D01*
X8924D01*
X8091Y-45991D01*
Y-47657D01*
X8924Y-48491D01*
X10591D01*
X11424Y-47657D01*
X6425Y-48491D02*
X4759D01*
X5592D01*
Y-43492D01*
X6425Y-44325D01*
X2260D02*
X1427Y-43492D01*
X-239D01*
X-1072Y-44325D01*
Y-47657D01*
X-239Y-48491D01*
X1427D01*
X2260Y-47657D01*
Y-44325D01*
X-2738Y-43492D02*
X-6071D01*
Y-44325D01*
X-2738Y-47657D01*
Y-48491D01*
X-7737Y-43492D02*
Y-48491D01*
X-9403Y-46824D01*
X-11069Y-48491D01*
Y-43492D01*
X-16067D02*
X-12735D01*
Y-45991D01*
X-14401Y-45158D01*
X-15234D01*
X-16067Y-45991D01*
Y-47657D01*
X-15234Y-48491D01*
X-13568D01*
X-12735Y-47657D01*
X-17734Y-48491D02*
Y-45158D01*
X-19400Y-43492D01*
X-21066Y-45158D01*
Y-48491D01*
Y-45991D01*
X-17734D01*
X-22732Y-48491D02*
Y-45158D01*
X-24398Y-43492D01*
X-26064Y-45158D01*
Y-48491D01*
Y-45991D01*
X-22732D01*
X-27730Y-44325D02*
X-28563Y-43492D01*
X-30229D01*
X-31063Y-44325D01*
Y-47657D01*
X-30229Y-48491D01*
X-28563D01*
X-27730Y-47657D01*
Y-44325D01*
X46887Y39514D02*
X44888D01*
X45888D01*
Y45512D01*
X46887Y44513D01*
X41889D02*
X40889Y45512D01*
X38890D01*
X37890Y44513D01*
Y40514D01*
X38890Y39514D01*
X40889D01*
X41889Y40514D01*
Y44513D01*
X35891Y45512D02*
Y39514D01*
X33891Y41513D01*
X31892Y39514D01*
Y45512D01*
X42101Y34498D02*
X46100D01*
Y31499D01*
X44101D01*
X46100D01*
Y28500D01*
X39102D02*
X37103D01*
X36103Y29500D01*
Y31499D01*
X37103Y32499D01*
X39102D01*
X40102Y31499D01*
Y29500D01*
X39102Y28500D01*
X34104Y32499D02*
Y28500D01*
Y30499D01*
X33104Y31499D01*
X32105Y32499D01*
X31105D01*
X42801Y13298D02*
X43801Y14298D01*
X45800D01*
X46800Y13298D01*
Y12299D01*
X45800Y11299D01*
X43801D01*
X42801Y10299D01*
Y9300D01*
X43801Y8300D01*
X45800D01*
X46800Y9300D01*
X40802Y8300D02*
Y12299D01*
X38803Y14298D01*
X36803Y12299D01*
Y8300D01*
Y11299D01*
X40802D01*
X34804Y8300D02*
Y14298D01*
X30805Y8300D01*
Y14298D01*
X24807Y13298D02*
X25807Y14298D01*
X27806D01*
X28806Y13298D01*
Y12299D01*
X27806Y11299D01*
X25807D01*
X24807Y10299D01*
Y9300D01*
X25807Y8300D01*
X27806D01*
X28806Y9300D01*
X22808Y14298D02*
Y9300D01*
X21808Y8300D01*
X19809D01*
X18809Y9300D01*
Y14298D01*
X16810Y8300D02*
Y14298D01*
X12811Y8300D01*
Y14298D01*
X6813Y13298D02*
X7813Y14298D01*
X9812D01*
X10812Y13298D01*
Y9300D01*
X9812Y8300D01*
X7813D01*
X6813Y9300D01*
Y11299D01*
X8812D01*
X46630Y25101D02*
X44631D01*
X45630D01*
Y19103D01*
X46630D01*
X44631D01*
X41631Y17104D02*
Y23102D01*
X38633D01*
X37633Y22102D01*
Y20102D01*
X38633Y19103D01*
X41631D01*
X35634Y25101D02*
Y19103D01*
Y22102D01*
X34634Y23102D01*
X32634D01*
X31635Y22102D01*
Y19103D01*
X28636D02*
X26636D01*
X25637Y20102D01*
Y22102D01*
X26636Y23102D01*
X28636D01*
X29635Y22102D01*
Y20102D01*
X28636Y19103D01*
X23637D02*
Y23102D01*
X20638D01*
X19639Y22102D01*
Y19103D01*
X14640D02*
X16640D01*
X17639Y20102D01*
Y22102D01*
X16640Y23102D01*
X14640D01*
X13641Y22102D01*
Y21102D01*
X17639D01*
X5643Y25101D02*
X1644Y19103D01*
Y25101D02*
X5643Y19103D01*
M02*
