%FSLAX25Y25*%
%MOIN*%
G70*
G01*
G75*
G04 Layer_Color=8388736*
%ADD10C,0.00787*%
%ADD11C,0.01181*%
%ADD12C,0.00984*%
%ADD13R,0.01969X0.02362*%
%ADD14R,0.03937X0.03150*%
%ADD15R,0.03150X0.03543*%
%ADD16R,0.02756X0.01575*%
%ADD17R,0.02362X0.01969*%
%ADD18R,0.04724X0.03543*%
%ADD19R,0.03937X0.02756*%
%ADD20R,0.01969X0.03937*%
%ADD21R,0.02362X0.03937*%
%ADD22O,0.07874X0.05906*%
%ADD23R,0.07874X0.05906*%
%ADD24R,0.03937X0.04724*%
%ADD25R,0.03543X0.03937*%
%ADD26R,0.04921X0.02362*%
%ADD27O,0.04921X0.02362*%
%ADD28R,0.04724X0.03937*%
%ADD29R,0.03543X0.02362*%
%ADD30R,0.06299X0.04921*%
%ADD31O,0.02362X0.07874*%
%ADD32R,0.04724X0.01575*%
%ADD33O,0.02362X0.07874*%
%ADD34R,0.03400X0.10000*%
%ADD35R,0.03400X0.05000*%
%ADD36R,0.02362X0.03543*%
G04:AMPARAMS|DCode=37|XSize=59.06mil|YSize=78.74mil|CornerRadius=0mil|HoleSize=0mil|Usage=FLASHONLY|Rotation=45.000|XOffset=0mil|YOffset=0mil|HoleType=Round|Shape=Round|*
%AMOVALD37*
21,1,0.01969,0.05906,0.00000,0.00000,135.0*
1,1,0.05906,0.00696,-0.00696*
1,1,0.05906,-0.00696,0.00696*
%
%ADD37OVALD37*%

%ADD38R,0.01575X0.04921*%
%ADD39R,0.02362X0.05315*%
%ADD40C,0.01969*%
%ADD41C,0.03937*%
%ADD42C,0.05906*%
%ADD43R,0.06717X0.02806*%
%ADD44R,0.15106X0.14091*%
%ADD45R,0.12325X0.05909*%
%ADD46R,0.08728X0.04000*%
%ADD47R,0.07905X0.22706*%
%ADD48R,0.47900X0.06374*%
%ADD49R,0.06200X0.11200*%
%ADD50R,0.02400X0.07447*%
%ADD51R,0.11060X0.04191*%
%ADD52R,0.38700X0.08270*%
%ADD53R,0.31672X0.09600*%
%ADD54C,0.03937*%
%ADD55C,0.09843*%
%ADD56O,0.11811X0.09843*%
%ADD57C,0.05118*%
%ADD58O,0.04331X0.07087*%
%ADD59C,0.02362*%
%ADD60C,0.07874*%
%ADD61R,0.07874X0.07874*%
%ADD62R,0.05906X0.07874*%
%ADD63C,0.04724*%
%ADD64C,0.00197*%
%ADD65C,0.00394*%
%ADD66C,0.00591*%
%ADD67C,0.01969*%
%ADD68C,0.00250*%
%ADD69C,0.00200*%
%ADD70C,0.00500*%
%ADD71C,0.00374*%
%ADD72C,0.00400*%
%ADD73C,0.00800*%
%ADD74R,0.00200X0.00700*%
%ADD75R,0.00300X0.00600*%
%ADD76R,0.00300X0.00500*%
%ADD77O,0.05906X0.09843*%
%ADD78C,0.05906*%
%ADD79R,0.11083X0.10189*%
%ADD80R,0.15688X0.05292*%
%ADD81R,0.02769X0.03162*%
%ADD82R,0.04737X0.03950*%
%ADD83R,0.03950X0.04343*%
%ADD84R,0.03556X0.02375*%
%ADD85R,0.03162X0.02769*%
%ADD86R,0.05524X0.04343*%
%ADD87R,0.04737X0.03556*%
%ADD88R,0.02769X0.04737*%
%ADD89R,0.03162X0.04737*%
%ADD90O,0.08674X0.06706*%
%ADD91R,0.08674X0.06706*%
%ADD92R,0.04737X0.05524*%
%ADD93R,0.04343X0.04737*%
%ADD94R,0.05721X0.03162*%
%ADD95O,0.05721X0.03162*%
%ADD96R,0.05524X0.04737*%
%ADD97R,0.04343X0.03162*%
%ADD98R,0.07099X0.05721*%
%ADD99O,0.03162X0.08674*%
%ADD100R,0.05524X0.02375*%
%ADD101O,0.03162X0.08674*%
%ADD102R,0.04200X0.10800*%
%ADD103R,0.04200X0.05800*%
%ADD104R,0.03162X0.04343*%
G04:AMPARAMS|DCode=105|XSize=67.06mil|YSize=86.74mil|CornerRadius=0mil|HoleSize=0mil|Usage=FLASHONLY|Rotation=45.000|XOffset=0mil|YOffset=0mil|HoleType=Round|Shape=Round|*
%AMOVALD105*
21,1,0.01969,0.06706,0.00000,0.00000,135.0*
1,1,0.06706,0.00696,-0.00696*
1,1,0.06706,-0.00696,0.00696*
%
%ADD105OVALD105*%

%ADD106C,0.04737*%
%ADD107C,0.10642*%
%ADD108O,0.12611X0.10642*%
%ADD109C,0.03162*%
D38*
X5118Y76246D02*
D03*
X2559D02*
D03*
X0D02*
D03*
X-2559D02*
D03*
X-5118D02*
D03*
D39*
X-3150Y86679D02*
D03*
X3150D02*
D03*
D57*
X-10236Y76246D02*
D03*
X10236D02*
D03*
D58*
X-14173Y86679D02*
D03*
X14173D02*
D03*
D59*
X-58500Y6100D02*
D03*
X700Y-57700D02*
D03*
X-59429Y-35433D02*
D03*
X50292Y75787D02*
D03*
X-24400Y62400D02*
D03*
X-28543Y68729D02*
D03*
X-2125Y59974D02*
D03*
X-5572Y60074D02*
D03*
X2800Y-26100D02*
D03*
X-183Y61709D02*
D03*
X-11608Y-426D02*
D03*
X39370Y52165D02*
D03*
X-58200Y-62600D02*
D03*
X8687Y-54168D02*
D03*
X5072Y-62758D02*
D03*
X4937Y-67400D02*
D03*
X-47300Y-66100D02*
D03*
X42800Y-76100D02*
D03*
X46400Y-52400D02*
D03*
X46000Y-56500D02*
D03*
X45700Y-60500D02*
D03*
X18800Y-30471D02*
D03*
X16400Y-76900D02*
D03*
X-35357Y69900D02*
D03*
X-32067Y70000D02*
D03*
X-29000Y73500D02*
D03*
X-24700Y73600D02*
D03*
X-13308Y74000D02*
D03*
X-16700Y76597D02*
D03*
Y80900D02*
D03*
X-8500Y85700D02*
D03*
X-10661Y82200D02*
D03*
X28946Y72900D02*
D03*
X29100Y69410D02*
D03*
X29900Y65032D02*
D03*
X32200Y69800D02*
D03*
X26500Y69400D02*
D03*
X10236Y80700D02*
D03*
X14452Y79800D02*
D03*
D60*
X-23140Y8300D02*
G03*
X-23140Y8300I-1575J0D01*
G01*
X26900Y8100D02*
G03*
X26900Y8100I-1969J0D01*
G01*
D77*
X56120Y-12101D02*
D03*
D78*
X47317Y-31291D02*
D03*
X8617Y69010D02*
D03*
D79*
X-4641Y38395D02*
D03*
D80*
X-29002Y6320D02*
D03*
D81*
X43110Y69882D02*
D03*
X39567D02*
D03*
X-39109D02*
D03*
X-42653D02*
D03*
X9328Y-81400D02*
D03*
X12872D02*
D03*
X16666Y-56334D02*
D03*
X13122D02*
D03*
X5072Y-65500D02*
D03*
X1528D02*
D03*
X25228Y-34378D02*
D03*
X28772D02*
D03*
X-23819Y66929D02*
D03*
X-27362D02*
D03*
X30528Y-77800D02*
D03*
X34072D02*
D03*
X22020Y-72955D02*
D03*
X25563D02*
D03*
X39690Y-22495D02*
D03*
X36147D02*
D03*
X-39292Y-73835D02*
D03*
X-35748D02*
D03*
X1528Y-69700D02*
D03*
X5072D02*
D03*
X1501Y-60199D02*
D03*
X5045D02*
D03*
X54348Y-43798D02*
D03*
X57891D02*
D03*
X52379Y-29806D02*
D03*
X55923D02*
D03*
X5072Y-74100D02*
D03*
X1528D02*
D03*
X22204Y-16326D02*
D03*
X25748D02*
D03*
X28657Y-30300D02*
D03*
X25114D02*
D03*
X36094Y-29806D02*
D03*
X39638D02*
D03*
X30246Y-73012D02*
D03*
X33789D02*
D03*
X36021Y-34100D02*
D03*
X39565D02*
D03*
X13116Y-67771D02*
D03*
X9572D02*
D03*
X9528Y-76500D02*
D03*
X13072D02*
D03*
Y-72500D02*
D03*
X9528D02*
D03*
X17931Y-2953D02*
D03*
X21474D02*
D03*
X32694D02*
D03*
X36238D02*
D03*
X-38656Y-18558D02*
D03*
X-35113D02*
D03*
Y-23480D02*
D03*
X-38656D02*
D03*
Y-33322D02*
D03*
X-35113D02*
D03*
Y-28401D02*
D03*
X-38656D02*
D03*
Y-42180D02*
D03*
X-35113D02*
D03*
X-270D02*
D03*
X3273D02*
D03*
X3272Y-46500D02*
D03*
X-272D02*
D03*
X3273Y-22495D02*
D03*
X-270D02*
D03*
X3273Y-33322D02*
D03*
X-270D02*
D03*
Y-28401D02*
D03*
X3273D02*
D03*
D82*
X19437Y-51400D02*
D03*
X11563D02*
D03*
X30380Y-16091D02*
D03*
X38254D02*
D03*
D83*
X17643Y-61865D02*
D03*
X10950D02*
D03*
D84*
X30537Y-6157D02*
D03*
Y-8716D02*
D03*
Y-11275D02*
D03*
X38411Y-6157D02*
D03*
Y-8716D02*
D03*
Y-11275D02*
D03*
X15765Y-6299D02*
D03*
Y-8858D02*
D03*
Y-11417D02*
D03*
X23639Y-6299D02*
D03*
Y-8858D02*
D03*
Y-11417D02*
D03*
X-22121Y-6157D02*
D03*
Y-8716D02*
D03*
Y-11275D02*
D03*
X-14247Y-6157D02*
D03*
Y-8716D02*
D03*
Y-11275D02*
D03*
X-37869Y-6157D02*
D03*
Y-8716D02*
D03*
Y-11275D02*
D03*
X-29995Y-6157D02*
D03*
Y-8716D02*
D03*
Y-11275D02*
D03*
D85*
X-39373Y-64419D02*
D03*
Y-67962D02*
D03*
X-29100Y-80928D02*
D03*
Y-84472D02*
D03*
X-13900Y-84272D02*
D03*
Y-80728D02*
D03*
X-7100Y-80128D02*
D03*
Y-83672D02*
D03*
X-44645Y-14032D02*
D03*
Y-10489D02*
D03*
X-1300Y-79928D02*
D03*
Y-83472D02*
D03*
X19323Y-21828D02*
D03*
Y-25372D02*
D03*
X32013Y-25448D02*
D03*
Y-21905D02*
D03*
X-18300Y-80828D02*
D03*
Y-84372D02*
D03*
X-24500Y-80928D02*
D03*
Y-84472D02*
D03*
X23423Y-25406D02*
D03*
Y-21862D02*
D03*
X5717Y53968D02*
D03*
Y57512D02*
D03*
X28076Y-21905D02*
D03*
Y-25448D02*
D03*
X-44645Y-6898D02*
D03*
Y-3354D02*
D03*
X63009Y-48523D02*
D03*
Y-44980D02*
D03*
D86*
X-44489Y-70008D02*
D03*
Y-62134D02*
D03*
X-53938Y-66071D02*
D03*
D87*
X35098Y74185D02*
D03*
X48484D02*
D03*
X-48040D02*
D03*
X-34654D02*
D03*
D88*
X39823D02*
D03*
X-43315D02*
D03*
D89*
X43760D02*
D03*
X-39378D02*
D03*
D90*
X-62205Y-24606D02*
D03*
Y-16732D02*
D03*
Y-8858D02*
D03*
Y-984D02*
D03*
Y-32480D02*
D03*
D91*
Y6890D02*
D03*
D92*
X-25521Y60874D02*
D03*
X-16860D02*
D03*
X60409Y-61047D02*
D03*
X52535D02*
D03*
X60253Y-54412D02*
D03*
X51592D02*
D03*
X60450Y-36909D02*
D03*
X51789D02*
D03*
X-25000Y48228D02*
D03*
X-16339D02*
D03*
X-25000Y54134D02*
D03*
X-16339D02*
D03*
D93*
X9694Y-36124D02*
D03*
X17568D02*
D03*
X13631Y-26676D02*
D03*
D94*
X-29196Y-17608D02*
D03*
D95*
Y-22608D02*
D03*
Y-27608D02*
D03*
Y-32608D02*
D03*
Y-37608D02*
D03*
Y-42608D02*
D03*
Y-47608D02*
D03*
X-5574Y-17608D02*
D03*
Y-22608D02*
D03*
Y-27608D02*
D03*
Y-32608D02*
D03*
Y-37608D02*
D03*
Y-42608D02*
D03*
Y-47608D02*
D03*
D96*
X-6780Y51458D02*
D03*
Y60119D02*
D03*
X20D02*
D03*
Y51458D02*
D03*
D97*
X38903Y-72889D02*
D03*
Y-78401D02*
D03*
X54151Y24803D02*
D03*
Y30315D02*
D03*
X23639D02*
D03*
Y24803D02*
D03*
X-59802Y29806D02*
D03*
Y24295D02*
D03*
X-52912D02*
D03*
Y29806D02*
D03*
D98*
X-15292Y17039D02*
D03*
Y29637D02*
D03*
X-7418D02*
D03*
Y17039D02*
D03*
X456D02*
D03*
Y29637D02*
D03*
X8330D02*
D03*
Y17039D02*
D03*
D99*
X31887Y39514D02*
D03*
X46887Y15105D02*
D03*
X36887D02*
D03*
X46887Y39514D02*
D03*
X36887D02*
D03*
X31887Y15105D02*
D03*
X41887D02*
D03*
Y39514D02*
D03*
X-46853Y38875D02*
D03*
X-31853Y14465D02*
D03*
X-41853D02*
D03*
X-31853Y38875D02*
D03*
X-41853D02*
D03*
X-46853Y14465D02*
D03*
X-36853D02*
D03*
Y38875D02*
D03*
D100*
X-29500Y-76394D02*
D03*
X-5877D02*
D03*
X-29500Y-73835D02*
D03*
Y-71276D02*
D03*
Y-68716D02*
D03*
Y-66157D02*
D03*
Y-63598D02*
D03*
Y-61039D02*
D03*
Y-58480D02*
D03*
Y-55921D02*
D03*
Y-53362D02*
D03*
X-5877D02*
D03*
Y-55921D02*
D03*
Y-58480D02*
D03*
Y-61039D02*
D03*
Y-63598D02*
D03*
Y-66157D02*
D03*
Y-68716D02*
D03*
Y-71276D02*
D03*
Y-73835D02*
D03*
D101*
X34817Y-40807D02*
D03*
X34817Y-65216D02*
D03*
X24817D02*
D03*
X29817Y-40807D02*
D03*
X39817Y-40807D02*
D03*
X29817Y-65216D02*
D03*
X39817D02*
D03*
X24817Y-40807D02*
D03*
D102*
X56120Y-23901D02*
D03*
D103*
X62120D02*
D03*
X50120D02*
D03*
D104*
X6029Y-54976D02*
D03*
X517D02*
D03*
D105*
X-35800Y-84100D02*
D03*
X-49600Y-76500D02*
D03*
D106*
X-10000Y-87598D02*
D03*
X0D02*
D03*
X10000D02*
D03*
X16749Y32400D02*
D03*
X17100Y18711D02*
D03*
D107*
X-9000Y7200D02*
D03*
D108*
X5900Y38000D02*
D03*
D109*
X23622Y-85700D02*
D03*
X-45024Y67026D02*
D03*
X-49069Y-62100D02*
D03*
X57000Y-68700D02*
D03*
X-38893Y-61500D02*
D03*
X-33500Y-73835D02*
D03*
X24700Y-77000D02*
D03*
X-20600Y-81100D02*
D03*
X-22500Y-75500D02*
D03*
X-16900Y-77400D02*
D03*
X-13745Y-74600D02*
D03*
X38900Y-58200D02*
D03*
X8092Y-39500D02*
D03*
X-14800Y-45200D02*
D03*
X-9600Y-58400D02*
D03*
X-20900Y-87100D02*
D03*
X-49333Y-50251D02*
D03*
X-52300Y-58700D02*
D03*
X-25739Y-50428D02*
D03*
X-52500Y-46300D02*
D03*
X-50500Y-8300D02*
D03*
X3400Y-79500D02*
D03*
X-61024Y-58071D02*
D03*
X-59802Y-50039D02*
D03*
X-65945Y-67957D02*
D03*
X48228Y63492D02*
D03*
X43307Y64591D02*
D03*
X36417Y62992D02*
D03*
X23622Y-64960D02*
D03*
X-64883Y-53362D02*
D03*
X-33465Y76772D02*
D03*
X-50197Y77756D02*
D03*
X-47825Y71582D02*
D03*
X53700Y-3400D02*
D03*
X8200Y-24900D02*
D03*
X9392Y-20026D02*
D03*
X-9808Y-14626D02*
D03*
X-12174Y-3802D02*
D03*
X33017Y-54090D02*
D03*
X37517D02*
D03*
X37417Y-48891D02*
D03*
X31417Y-48491D02*
D03*
X43017Y-13191D02*
D03*
X46417Y-19390D02*
D03*
X46517Y-14390D02*
D03*
X46417Y-43165D02*
D03*
Y-38091D02*
D03*
X46517Y-33291D02*
D03*
Y-27891D02*
D03*
Y-23491D02*
D03*
X-42683Y-20491D02*
D03*
X-42583Y-16590D02*
D03*
X-42983Y-29091D02*
D03*
X417Y58810D02*
D03*
X-7683Y58909D02*
D03*
X13313Y-43200D02*
D03*
X-13308Y-29626D02*
D03*
X2486Y-38243D02*
D03*
X33982Y-11669D02*
D03*
X-18184Y-11669D02*
D03*
X16617Y-67090D02*
D03*
X13117Y-70191D02*
D03*
X-33883Y-11491D02*
D03*
X-34283Y-47691D02*
D03*
X42717Y-19290D02*
D03*
X26717Y-48312D02*
D03*
X2617Y69410D02*
D03*
X-1083D02*
D03*
X26592Y-2953D02*
D03*
X34466Y-6890D02*
D03*
X42340Y36417D02*
D03*
X31513D02*
D03*
X-36400Y35433D02*
D03*
X-47227D02*
D03*
X-3783Y62110D02*
D03*
X-3708Y58574D02*
D03*
X-10283Y61510D02*
D03*
X-10183Y59009D02*
D03*
X-7643Y61709D02*
D03*
X40092Y-1426D02*
D03*
X-21583Y-14591D02*
D03*
X-24800Y-6157D02*
D03*
X17917Y-11691D02*
D03*
X-35883Y-4762D02*
D03*
X-18000Y-8091D02*
D03*
X-30700Y66100D02*
D03*
X19517Y-6091D02*
D03*
X31117Y-2991D02*
D03*
X-15000Y-1700D02*
D03*
X17100Y-16900D02*
D03*
X-20400Y-32600D02*
D03*
X-32618Y-28401D02*
D03*
X27876Y-72955D02*
D03*
X-10500Y-79600D02*
D03*
X-53900Y-38091D02*
D03*
X-39454Y-71700D02*
D03*
X37500Y-76659D02*
D03*
X-13100Y-51300D02*
D03*
M02*
