%FSLAX25Y25*%
%MOIN*%
G70*
G01*
G75*
%ADD10C,0.00787*%
%ADD11C,0.01181*%
%ADD12C,0.00984*%
%ADD13R,0.01969X0.02362*%
%ADD14R,0.03937X0.03150*%
%ADD15R,0.03150X0.03543*%
%ADD16R,0.02756X0.01575*%
%ADD17R,0.02362X0.01969*%
%ADD18R,0.04724X0.03543*%
%ADD19R,0.03937X0.02756*%
%ADD20R,0.01969X0.03937*%
%ADD21R,0.02362X0.03937*%
%ADD22O,0.07874X0.05906*%
%ADD23R,0.07874X0.05906*%
%ADD24R,0.03937X0.04724*%
%ADD25R,0.03543X0.03937*%
%ADD26R,0.04921X0.02362*%
%ADD27O,0.04921X0.02362*%
%ADD28R,0.04724X0.03937*%
%ADD29R,0.03543X0.02362*%
%ADD30R,0.06299X0.04921*%
%ADD31O,0.02362X0.07874*%
%ADD32R,0.04724X0.01575*%
%ADD33O,0.02362X0.07874*%
%ADD34R,0.03400X0.10000*%
%ADD35R,0.03400X0.05000*%
%ADD36R,0.02362X0.03543*%
G04:AMPARAMS|DCode=37|XSize=59.06mil|YSize=78.74mil|CornerRadius=0mil|HoleSize=0mil|Usage=FLASHONLY|Rotation=45.000|XOffset=0mil|YOffset=0mil|HoleType=Round|Shape=Round|*
%AMOVALD37*
21,1,0.01969,0.05906,0.00000,0.00000,135.0*
1,1,0.05906,0.00696,-0.00696*
1,1,0.05906,-0.00696,0.00696*
%
%ADD37OVALD37*%

%ADD38R,0.01575X0.04921*%
%ADD39R,0.02362X0.05315*%
%ADD40C,0.01969*%
%ADD41C,0.03937*%
%ADD42C,0.05906*%
%ADD43R,0.06717X0.02806*%
%ADD44R,0.15106X0.14091*%
%ADD45R,0.12325X0.05909*%
%ADD46R,0.08728X0.04000*%
%ADD47R,0.07905X0.22706*%
%ADD48R,0.47900X0.06374*%
%ADD49R,0.06200X0.11200*%
%ADD50R,0.02400X0.07447*%
%ADD51R,0.11060X0.04191*%
%ADD52R,0.38700X0.08270*%
%ADD53R,0.31672X0.09600*%
%ADD54C,0.03937*%
%ADD55C,0.09843*%
%ADD56O,0.11811X0.09843*%
%ADD57C,0.05118*%
%ADD58O,0.04331X0.07087*%
%ADD59C,0.02362*%
%ADD60C,0.07874*%
%ADD61R,0.07874X0.07874*%
%ADD62R,0.05906X0.07874*%
%ADD63C,0.04724*%
%ADD64C,0.00197*%
%ADD65C,0.00394*%
%ADD66C,0.00591*%
%ADD67C,0.01969*%
%ADD68C,0.00250*%
%ADD69C,0.00200*%
%ADD70C,0.00500*%
%ADD71C,0.00374*%
%ADD72C,0.00400*%
%ADD73C,0.00800*%
%ADD74R,0.00200X0.00700*%
%ADD75R,0.00300X0.00600*%
%ADD76R,0.00300X0.00500*%
G36*
X16681Y-53431D02*
X14681Y-51432D01*
X16681Y-49431D01*
Y-53431D01*
D02*
G37*
G36*
X35136Y-16059D02*
X33136Y-18059D01*
Y-14059D01*
X35136Y-16059D01*
D02*
G37*
D10*
X-18635Y-15108D02*
G03*
X-16135Y-15108I1250J0D01*
G01*
X7725Y-30711D02*
Y-27955D01*
X10875D01*
X19536Y-30711D02*
Y-27955D01*
X16387D02*
X19536D01*
X-23448Y-15108D02*
X-18635D01*
X-16135D02*
X-11322D01*
Y-50108D02*
Y-15108D01*
X-23448Y-50108D02*
X-11322D01*
X-23448D02*
Y-15108D01*
X49230Y34790D02*
X49230Y19829D01*
X29545Y34790D02*
X49230Y34790D01*
X29545Y19829D02*
X29545Y34790D01*
X29545Y19829D02*
X49230D01*
X-29510Y34150D02*
X-29510Y19190D01*
X-49195Y34150D02*
X-29510Y34150D01*
X-49195Y19190D02*
X-49195Y34150D01*
X-49195Y19190D02*
X-29510D01*
X22475Y-60492D02*
X42160D01*
X22475D02*
X22475Y-45531D01*
X42160Y-45531D01*
Y-60492D02*
Y-45531D01*
D11*
X31718Y-3893D02*
G03*
X31718Y-3893I-79J0D01*
G01*
X16946Y-4035D02*
G03*
X16946Y-4035I-79J0D01*
G01*
X-20940Y-3893D02*
G03*
X-20940Y-3893I-79J0D01*
G01*
X-36687D02*
G03*
X-36687Y-3893I-79J0D01*
G01*
X48838Y31227D02*
G03*
X48838Y23392I392J-3918D01*
G01*
X-29902Y30588D02*
G03*
X-29902Y22753I392J-3918D01*
G01*
X40667Y-49369D02*
G03*
X40872Y-56732I1493J-3643D01*
G01*
X-48808Y66174D02*
G03*
X-48808Y66174I-9843J0D01*
G01*
X68392Y65883D02*
G03*
X68392Y65883I-9843J0D01*
G01*
X15871Y-65409D02*
X21383D01*
X15871Y-58322D02*
X21383D01*
Y-65409D02*
Y-58322D01*
D12*
X10776Y-26676D02*
G03*
X10776Y-26676I-492J0D01*
G01*
D40*
X47319Y33165D02*
G03*
X47319Y33165I-423J0D01*
G01*
X-31421Y32525D02*
G03*
X-31421Y32525I-423J0D01*
G01*
X40249Y-47157D02*
G03*
X40249Y-47157I-423J0D01*
G01*
D54*
X-20599Y-17738D02*
D03*
D64*
X-12100Y-79100D02*
G03*
X-15575Y-79161I-1691J-2657D01*
G01*
X-15700Y-85700D02*
G03*
X-12155Y-85716I1784J2596D01*
G01*
X-8900Y-85100D02*
G03*
X-5355Y-85116I1784J2596D01*
G01*
X-5300Y-78500D02*
G03*
X-8775Y-78561I-1691J-2657D01*
G01*
X-100Y-63700D02*
G03*
X-39Y-67175I2657J-1691D01*
G01*
X6500Y-67300D02*
G03*
X6516Y-63755I-2596J1784D01*
G01*
X33813Y-20476D02*
G03*
X30268Y-20461I-1784J-2596D01*
G01*
X30213Y-27076D02*
G03*
X33689Y-27015I1691J2657D01*
G01*
X25223Y-20234D02*
G03*
X21748Y-20295I-1691J-2657D01*
G01*
X21623Y-26834D02*
G03*
X25168Y-26850I1784J2596D01*
G01*
X27191Y-74755D02*
G03*
X27130Y-71279I-2657J1691D01*
G01*
X20591Y-71155D02*
G03*
X20576Y-74699I2596J-1784D01*
G01*
X34719Y-20695D02*
G03*
X34703Y-24240I2596J-1784D01*
G01*
X41319Y-24295D02*
G03*
X41258Y-20820I-2657J1691D01*
G01*
X-34320Y-75634D02*
G03*
X-34304Y-72090I-2596J1784D01*
G01*
X-40920Y-72035D02*
G03*
X-40859Y-75510I2657J-1691D01*
G01*
X6700Y-71500D02*
G03*
X6639Y-68025I-2657J1691D01*
G01*
X100Y-67900D02*
G03*
X84Y-71445I2596J-1784D01*
G01*
X6473Y-61999D02*
G03*
X6489Y-58454I-2596J1784D01*
G01*
X-127Y-58399D02*
G03*
X-66Y-61875I2657J-1691D01*
G01*
X7517Y59140D02*
G03*
X4042Y59079I-1691J-2657D01*
G01*
X3917Y52540D02*
G03*
X7462Y52524I1784J2596D01*
G01*
X59320Y-45598D02*
G03*
X59335Y-42054I-2596J1784D01*
G01*
X52719Y-41998D02*
G03*
X52781Y-45474I2657J-1691D01*
G01*
X57551Y-31606D02*
G03*
X57490Y-28131I-2657J1691D01*
G01*
X50951Y-28006D02*
G03*
X50935Y-31551I2596J-1784D01*
G01*
X37939Y71682D02*
X44739D01*
Y68082D02*
Y71682D01*
X37939Y68082D02*
X44739D01*
X37939D02*
Y71582D01*
X-44281Y71682D02*
X-37481D01*
Y68082D02*
Y71682D01*
X-44281Y68082D02*
X-37481D01*
X-44281D02*
Y71582D01*
X-41173Y-69591D02*
Y-62791D01*
X-37573D01*
Y-69591D02*
Y-62791D01*
X-41073Y-69591D02*
X-37573D01*
X-30900Y-86100D02*
Y-79300D01*
X-27300D01*
Y-86100D02*
Y-79300D01*
X-30800Y-86100D02*
X-27300D01*
X-15700Y-85700D02*
Y-79300D01*
X-12100Y-85700D02*
X-12100Y-79100D01*
X-5300Y-85100D02*
X-5300Y-78500D01*
X-8900Y-85100D02*
Y-78700D01*
X7700Y-83200D02*
Y-79700D01*
Y-83200D02*
X14500D01*
Y-79600D01*
X7700D02*
X14500D01*
X18294Y-58034D02*
Y-54534D01*
X11494D02*
X18294D01*
X11494Y-58134D02*
Y-54534D01*
Y-58134D02*
X18294D01*
X100Y-67300D02*
X6500D01*
X-100Y-63700D02*
X6500Y-63700D01*
X23600Y-36178D02*
Y-32678D01*
Y-36178D02*
X30400D01*
Y-32578D01*
X23600D02*
X30400D01*
X-42845Y-15661D02*
Y-8861D01*
X-46445Y-15661D02*
X-42845D01*
X-46445D02*
Y-8861D01*
X-42945D01*
X-3100Y-85100D02*
Y-78300D01*
X500D01*
Y-85100D02*
Y-78300D01*
X-3000Y-85100D02*
X500D01*
X17523Y-27000D02*
Y-20200D01*
X21123D01*
Y-27000D02*
Y-20200D01*
X17623Y-27000D02*
X21123D01*
X30213Y-27076D02*
X30213Y-20476D01*
X33813Y-26876D02*
Y-20476D01*
X-22190Y65229D02*
Y68729D01*
X-28991D02*
X-22190D01*
X-28991Y65129D02*
Y68729D01*
Y65129D02*
X-22190D01*
X-20100Y-86000D02*
Y-79200D01*
X-16500D01*
Y-86000D02*
Y-79200D01*
X-20000Y-86000D02*
X-16500D01*
X28900Y-79600D02*
X35700D01*
X28900D02*
Y-76000D01*
X35700D01*
Y-79500D02*
Y-76000D01*
X-26300Y-79300D02*
X-22800D01*
X-26300Y-86100D02*
Y-79300D01*
Y-86100D02*
X-22700D01*
Y-79300D01*
X21623Y-26834D02*
Y-20434D01*
X25223Y-26834D02*
X25223Y-20234D01*
X20591Y-71155D02*
X26991D01*
X20591Y-74755D02*
X27191Y-74755D01*
X34719Y-24295D02*
X41319Y-24296D01*
X34719Y-20695D02*
X41119D01*
X-40920Y-72034D02*
X-34320Y-72035D01*
X-40720Y-75634D02*
X-34320D01*
X100Y-67900D02*
X6500D01*
X100Y-71500D02*
X6700Y-71500D01*
X-127Y-58399D02*
X6473Y-58399D01*
X73Y-61999D02*
X6473D01*
X3917Y52540D02*
Y58940D01*
X7517Y52540D02*
X7518Y59140D01*
X52719Y-41998D02*
X59320Y-41998D01*
X52920Y-45598D02*
X59320D01*
X50951Y-28006D02*
X57351D01*
X50951Y-31606D02*
X57551Y-31607D01*
X-100Y-72300D02*
X6700D01*
Y-75900D02*
Y-72300D01*
X-100Y-75900D02*
X6700D01*
X-100D02*
Y-72400D01*
X20576Y-18126D02*
Y-14626D01*
Y-18126D02*
X27376D01*
Y-14526D01*
X20576D02*
X27376D01*
X26276Y-20276D02*
X29776D01*
X26276Y-27076D02*
Y-20276D01*
Y-27076D02*
X29876D01*
Y-20276D01*
X30286Y-32000D02*
Y-28500D01*
X23486D02*
X30286D01*
X23486Y-32100D02*
Y-28500D01*
Y-32100D02*
X30286D01*
X34466Y-31606D02*
Y-28106D01*
Y-31606D02*
X41266D01*
Y-28006D01*
X34466D02*
X41266D01*
X28617Y-74812D02*
X35417D01*
X28617D02*
Y-71212D01*
X35417D01*
Y-74712D02*
Y-71212D01*
X34393Y-35900D02*
Y-32400D01*
Y-35900D02*
X41193D01*
Y-32300D01*
X34393D02*
X41193D01*
X-42845Y-8526D02*
Y-1726D01*
X-46445Y-8526D02*
X-42845D01*
X-46445D02*
Y-1726D01*
X-42945D01*
X7944Y-65971D02*
X14744D01*
Y-69571D02*
Y-65971D01*
X7944Y-69571D02*
X14744D01*
X7944D02*
Y-66071D01*
X7900Y-78300D02*
Y-74800D01*
Y-78300D02*
X14700D01*
Y-74700D01*
X7900D02*
X14700D01*
X64809Y-50151D02*
Y-43351D01*
X61209Y-50151D02*
X64809D01*
X61209D02*
Y-43351D01*
X64709D01*
X14700Y-74200D02*
Y-70700D01*
X7900D02*
X14700D01*
X7900Y-74300D02*
Y-70700D01*
Y-74300D02*
X14700D01*
X16302Y-4753D02*
Y-1253D01*
Y-4753D02*
X23102D01*
Y-1153D01*
X16302D02*
X23102D01*
X31066Y-4753D02*
X37866D01*
X31066D02*
Y-1153D01*
X37866D01*
Y-4653D02*
Y-1153D01*
X-40284Y-20358D02*
Y-16858D01*
Y-20358D02*
X-33484D01*
Y-16758D01*
X-40284D02*
X-33484D01*
X-40284Y-21679D02*
X-33484D01*
Y-25280D02*
Y-21679D01*
X-40284Y-25280D02*
X-33484D01*
X-40284D02*
Y-21779D01*
Y-35122D02*
Y-31622D01*
Y-35122D02*
X-33484D01*
Y-31522D01*
X-40284D02*
X-33484D01*
X-40284Y-26601D02*
X-33484D01*
Y-30201D02*
Y-26601D01*
X-40284Y-30201D02*
X-33484D01*
X-40284D02*
Y-26701D01*
Y-43980D02*
Y-40480D01*
Y-43980D02*
X-33484D01*
Y-40380D01*
X-40284D02*
X-33484D01*
X-1899Y-43980D02*
X4901D01*
X-1899D02*
Y-40380D01*
X4901D01*
Y-43880D02*
Y-40380D01*
X4900Y-48200D02*
Y-44700D01*
X-1900D02*
X4900D01*
X-1900Y-48300D02*
Y-44700D01*
Y-48300D02*
X4900D01*
X-1899Y-20695D02*
X4901D01*
Y-24295D02*
Y-20695D01*
X-1899Y-24295D02*
X4901D01*
X-1899D02*
Y-20795D01*
X4901Y-35022D02*
Y-31522D01*
X-1899D02*
X4901D01*
X-1899Y-35122D02*
Y-31522D01*
Y-35122D02*
X4901D01*
X-1899Y-30201D02*
X4901D01*
X-1899D02*
Y-26601D01*
X4901D01*
Y-30101D02*
Y-26601D01*
X40547Y78898D02*
X39235D01*
X39891Y78242D02*
Y79554D01*
X47247Y79950D02*
Y77982D01*
X48231D01*
X48559Y78310D01*
Y78638D01*
X48231Y78966D01*
X47247D01*
X48231D01*
X48559Y79294D01*
Y79622D01*
X48231Y79950D01*
X47247D01*
X44359Y79822D02*
X44031Y80150D01*
X43375D01*
X43047Y79822D01*
Y78510D01*
X43375Y78182D01*
X44031D01*
X44359Y78510D01*
Y79166D01*
X43703D01*
X31417Y76282D02*
Y78250D01*
X32401D01*
X32729Y77922D01*
Y77266D01*
X32401Y76938D01*
X31417D01*
X32073D02*
X32729Y76282D01*
X-10719Y-92814D02*
Y-90453D01*
X-9539D01*
X-9145Y-90846D01*
Y-91633D01*
X-9539Y-92027D01*
X-10719D01*
X-9932D02*
X-9145Y-92814D01*
X11143Y-90954D02*
X10749Y-90561D01*
X9962D01*
X9568Y-90954D01*
Y-92529D01*
X9962Y-92922D01*
X10749D01*
X11143Y-92529D01*
Y-91741D01*
X10356D01*
X-42803Y78998D02*
X-44115D01*
X-43459Y78342D02*
Y79654D01*
X-31453Y75400D02*
Y73432D01*
X-30469D01*
X-30141Y73760D01*
Y74088D01*
X-30469Y74416D01*
X-31453D01*
X-30469D01*
X-30141Y74744D01*
Y75072D01*
X-30469Y75400D01*
X-31453D01*
X-38288Y79685D02*
X-38616Y80013D01*
X-39272D01*
X-39600Y79685D01*
Y78373D01*
X-39272Y78045D01*
X-38616D01*
X-38288Y78373D01*
Y79029D01*
X-38944D01*
X-47903Y77982D02*
Y79950D01*
X-46919D01*
X-46591Y79622D01*
Y78966D01*
X-46919Y78638D01*
X-47903D01*
X-47247D02*
X-46591Y77982D01*
D65*
X62572Y-64047D02*
G03*
X63084Y-63534I0J513D01*
G01*
X63076Y-58461D02*
G03*
X62564Y-57949I-513J0D01*
G01*
X50372Y-57934D02*
G03*
X49859Y-58447I0J-513D01*
G01*
X49859Y-63534D02*
G03*
X50371Y-64047I513J0D01*
G01*
X62616Y-57455D02*
G03*
X63128Y-56942I0J513D01*
G01*
X63103Y-51856D02*
G03*
X62590Y-51343I-513J0D01*
G01*
X49405Y-51312D02*
G03*
X48892Y-51825I0J-513D01*
G01*
X48866Y-56911D02*
G03*
X49379Y-57424I513J0D01*
G01*
X-4281Y48732D02*
G03*
X-3768Y49245I-0J513D01*
G01*
X-9880Y49270D02*
G03*
X-9367Y48757I513J0D01*
G01*
X-9336Y62968D02*
G03*
X-9849Y62456I0J-513D01*
G01*
X-3737Y62481D02*
G03*
X-4250Y62994I-513J0D01*
G01*
X3063Y62481D02*
G03*
X2550Y62994I-513J0D01*
G01*
X-2536Y62968D02*
G03*
X-3049Y62456I0J-513D01*
G01*
X-3080Y49270D02*
G03*
X-2567Y48757I513J0D01*
G01*
X2519Y48732D02*
G03*
X3032Y49245I-0J513D01*
G01*
X37103Y-70645D02*
G03*
X36316Y-71432I0J-787D01*
G01*
X41490D02*
G03*
X40703Y-70645I-787J0D01*
G01*
Y-80645D02*
G03*
X41490Y-79857I-0J787D01*
G01*
X36316D02*
G03*
X37103Y-80645I787J0D01*
G01*
X63176Y-34409D02*
G03*
X62663Y-33897I-513J-0D01*
G01*
X62638Y-40009D02*
G03*
X63150Y-39496I-0J513D01*
G01*
X48939Y-39465D02*
G03*
X49452Y-39977I513J0D01*
G01*
X49427Y-33865D02*
G03*
X48914Y-34378I0J-513D01*
G01*
X-27362Y51272D02*
G03*
X-27875Y50759I0J-513D01*
G01*
X-27850Y45672D02*
G03*
X-27337Y45160I513J0D01*
G01*
X-14151Y45128D02*
G03*
X-13638Y45641I-0J513D01*
G01*
X-13613Y50728D02*
G03*
X-14126Y51240I-513J-0D01*
G01*
X-27362Y57177D02*
G03*
X-27875Y56664I0J-513D01*
G01*
X-27850Y51578D02*
G03*
X-27337Y51065I513J0D01*
G01*
X-14151Y51034D02*
G03*
X-13638Y51547I-0J513D01*
G01*
X-13613Y56633D02*
G03*
X-14126Y57146I-513J-0D01*
G01*
X-18592Y32938D02*
G03*
X-19379Y32151I0J-787D01*
G01*
X-11305D02*
G03*
X-12092Y32938I-787J0D01*
G01*
Y13693D02*
G03*
X-11305Y14481I-0J787D01*
G01*
X-19379D02*
G03*
X-18592Y13693I787J0D01*
G01*
X51564Y23347D02*
G03*
X52351Y22559I787J0D01*
G01*
X55951D02*
G03*
X56738Y23347I-0J787D01*
G01*
Y31772D02*
G03*
X55951Y32559I-787J0D01*
G01*
X52351D02*
G03*
X51564Y31772I0J-787D01*
G01*
X21839Y32559D02*
G03*
X21052Y31772I0J-787D01*
G01*
X26227D02*
G03*
X25439Y32559I-787J0D01*
G01*
Y22559D02*
G03*
X26227Y23347I-0J787D01*
G01*
X21052D02*
G03*
X21839Y22559I787J0D01*
G01*
X-11505Y14481D02*
G03*
X-10718Y13693I787J0D01*
G01*
X-4218D02*
G03*
X-3431Y14481I-0J787D01*
G01*
Y32151D02*
G03*
X-4218Y32938I-787J0D01*
G01*
X-10718D02*
G03*
X-11505Y32151I0J-787D01*
G01*
X-2844Y32938D02*
G03*
X-3631Y32151I0J-787D01*
G01*
X4443D02*
G03*
X3656Y32938I-787J0D01*
G01*
Y13693D02*
G03*
X4443Y14481I-0J787D01*
G01*
X-3631D02*
G03*
X-2844Y13693I787J0D01*
G01*
X-57214Y31263D02*
G03*
X-58002Y32050I-787J0D01*
G01*
X-61602D02*
G03*
X-62389Y31263I0J-787D01*
G01*
Y22838D02*
G03*
X-61602Y22050I787J0D01*
G01*
X-58002D02*
G03*
X-57214Y22838I-0J787D01*
G01*
X-51112Y22050D02*
G03*
X-50325Y22838I-0J787D01*
G01*
X-55499D02*
G03*
X-54712Y22050I787J0D01*
G01*
Y32050D02*
G03*
X-55499Y31263I0J-787D01*
G01*
X-50325D02*
G03*
X-51112Y32050I-787J0D01*
G01*
X4243Y14481D02*
G03*
X5030Y13693I787J0D01*
G01*
X11530D02*
G03*
X12317Y14481I-0J787D01*
G01*
Y32151D02*
G03*
X11530Y32938I-787J0D01*
G01*
X5030D02*
G03*
X4243Y32151I0J-787D01*
G01*
X7486Y-57563D02*
G03*
X8273Y-56776I0J787D01*
G01*
Y-53176D02*
G03*
X7486Y-52388I-787J-0D01*
G01*
X-939D02*
G03*
X-1727Y-53176I0J-787D01*
G01*
Y-56776D02*
G03*
X-939Y-57563I787J0D01*
G01*
X14881Y-53332D02*
Y-49431D01*
X14481Y-51432D02*
X16881D01*
X9832Y-54286D02*
X21168D01*
X9832Y-48577D02*
X21168D01*
X10600Y-54286D02*
X14122D01*
X10600Y-48577D02*
X14122D01*
X16878Y-54286D02*
X20400D01*
X16878Y-48577D02*
X20400D01*
X15097Y-62133D02*
Y-62065D01*
X13864Y-63090D02*
Y-60649D01*
X13631Y-63599D02*
Y-60199D01*
Y-63599D02*
X15097Y-62133D01*
X13697Y-60465D02*
X13897D01*
X13697Y-63065D02*
Y-60465D01*
Y-63065D02*
X14897Y-61865D01*
X13997Y-60965D02*
X14897Y-61865D01*
X13997Y-62265D02*
Y-60965D01*
Y-62265D02*
X14331Y-61932D01*
Y-61731D01*
X14097Y-61365D02*
X14397Y-61665D01*
X14097Y-62765D02*
Y-61365D01*
X13631Y-60199D02*
X15097Y-61665D01*
X14331Y-61731D02*
X14397Y-61665D01*
X7998Y-58716D02*
X12328D01*
X7998Y-65015D02*
X20596D01*
Y-58716D01*
X7998Y-65015D02*
Y-58716D01*
X13554Y-59109D02*
X14591D01*
X13554D02*
X14743Y-57920D01*
X13682Y-59988D02*
X14591Y-59109D01*
X34936Y-18059D02*
Y-14159D01*
X32936Y-16059D02*
X35336D01*
X28650Y-13205D02*
X39985D01*
X28650Y-18913D02*
X39985D01*
X35695Y-13205D02*
X39217D01*
X35695Y-18913D02*
X39217D01*
X29417Y-13205D02*
X32939D01*
X29417Y-18913D02*
X32939D01*
X32998Y-4976D02*
X35950D01*
X32998Y-12456D02*
X35950D01*
X32998D02*
Y-4976D01*
X35950Y-12456D02*
Y-4976D01*
X18226Y-5118D02*
X21179D01*
X18226Y-12598D02*
X21179D01*
X18226D02*
Y-5118D01*
X21179Y-12598D02*
Y-5118D01*
X-19660Y-4976D02*
X-16707D01*
X-19660Y-12456D02*
X-16707D01*
X-19660D02*
Y-4976D01*
X-16707Y-12456D02*
Y-4976D01*
X-35408D02*
X-32455D01*
X-35408Y-12456D02*
X-32455D01*
X-35408D02*
Y-4976D01*
X-32455Y-12456D02*
Y-4976D01*
X49370Y76252D02*
Y77433D01*
X34212D02*
X49370D01*
X34212Y76252D02*
Y77433D01*
X-28671Y57331D02*
X-13710D01*
Y64417D01*
X-28671D02*
X-13710D01*
X-28671Y57483D02*
Y64417D01*
X57743Y-64047D02*
X62572D01*
X63081Y-63544D02*
Y-58457D01*
X57671Y-57947D02*
X62471D01*
X56984Y-63252D02*
Y-59071D01*
X55937Y-63209D02*
X55941Y-59098D01*
X57256Y-61051D02*
X57795Y-61047D01*
X55094Y-61039D02*
X55783D01*
X50371Y-57947D02*
X55577D01*
X49859Y-63534D02*
Y-58447D01*
X50371Y-64047D02*
X55577D01*
X56794Y-57455D02*
X62516D01*
X63103Y-56942D02*
Y-51856D01*
X56772Y-51343D02*
X62490D01*
X49505Y-51312D02*
X55223D01*
X48892Y-56911D02*
Y-51825D01*
X49479Y-57424D02*
X55200D01*
X-3768Y49345D02*
Y55066D01*
X-9367Y48757D02*
X-4281D01*
X-9880Y49370D02*
Y55088D01*
X-9849Y56638D02*
Y62356D01*
X-9336Y62968D02*
X-4250D01*
X-3737Y56660D02*
Y62381D01*
X3063Y56660D02*
Y62381D01*
X-2536Y62968D02*
X2550D01*
X-3049Y56638D02*
Y62356D01*
X-3080Y49370D02*
Y55088D01*
X-2567Y48757D02*
X2519D01*
X3032Y49345D02*
Y55066D01*
X37203Y-70645D02*
X40803D01*
X36303Y-75045D02*
Y-71545D01*
X41503Y-75045D02*
Y-71345D01*
Y-79945D02*
Y-76145D01*
X36303Y-79745D02*
Y-76045D01*
X37203Y-80645D02*
X40803D01*
X56842Y-33897D02*
X62563D01*
X63150Y-39496D02*
Y-34409D01*
X56819Y-40009D02*
X62538D01*
X49552Y-39977D02*
X55270D01*
X48939Y-39465D02*
Y-34378D01*
X49527Y-33865D02*
X55248D01*
X-27262Y51272D02*
X-21541D01*
X-27850Y45672D02*
Y50759D01*
X-27237Y45160D02*
X-21519D01*
X-19969Y45128D02*
X-14251D01*
X-13638Y45641D02*
Y50728D01*
X-19947Y51240D02*
X-14226D01*
X-27262Y57177D02*
X-21541D01*
X-27850Y51578D02*
Y56664D01*
X-27237Y51065D02*
X-21519D01*
X-19969Y51034D02*
X-14251D01*
X-13638Y51547D02*
Y56633D01*
X-19947Y57146D02*
X-14226D01*
X-19392Y26530D02*
Y32238D01*
X-18692Y32938D02*
X-12092D01*
X-11292Y26193D02*
Y32138D01*
Y14493D02*
Y20438D01*
X-18692Y13693D02*
X-12092D01*
X-19392Y14393D02*
Y20102D01*
X52451Y22559D02*
X56051D01*
X51551Y23459D02*
Y27159D01*
X56751Y23259D02*
Y27059D01*
Y28159D02*
Y31859D01*
X51551Y28159D02*
Y31659D01*
X52451Y32559D02*
X56051D01*
X21939D02*
X25539D01*
X21039Y28159D02*
Y31659D01*
X26239Y28159D02*
Y31859D01*
Y23259D02*
Y27059D01*
X21039Y23459D02*
Y27159D01*
X21939Y22559D02*
X25539D01*
X-11518Y14393D02*
Y20102D01*
X-10818Y13693D02*
X-4218D01*
X-3418Y14493D02*
Y20438D01*
Y26193D02*
Y32138D01*
X-10818Y32938D02*
X-4218D01*
X-11518Y26530D02*
Y32238D01*
X-3644Y26530D02*
Y32238D01*
X-2944Y32938D02*
X3656D01*
X4456Y26193D02*
Y32138D01*
Y14493D02*
Y20438D01*
X-2944Y13693D02*
X3656D01*
X-3644Y14393D02*
Y20102D01*
X-61702Y32050D02*
X-58102D01*
X-57202Y27450D02*
Y31150D01*
X-62402Y27550D02*
Y31350D01*
Y22750D02*
Y26450D01*
X-57202Y22950D02*
Y26450D01*
X-61702Y22050D02*
X-58102D01*
X-54812D02*
X-51212D01*
X-50312Y22950D02*
Y26450D01*
X-55512Y22750D02*
Y26450D01*
Y27550D02*
Y31350D01*
X-50312Y27450D02*
Y31150D01*
X-54812Y32050D02*
X-51212D01*
X4230Y14393D02*
Y20102D01*
X4930Y13693D02*
X11530D01*
X12330Y14493D02*
Y20438D01*
Y26193D02*
Y32138D01*
X4930Y32938D02*
X11530D01*
X4230Y26530D02*
Y32238D01*
X-33768Y76252D02*
Y77433D01*
X-48926D02*
X-33768D01*
X-48926Y76252D02*
Y77433D01*
X8273Y-56676D02*
Y-53076D01*
X3673Y-57576D02*
X7373D01*
X3773Y-52376D02*
X7573D01*
X-1027D02*
X2673D01*
X-827Y-57576D02*
X2673D01*
X-1727Y-56676D02*
Y-53076D01*
D66*
X-9438Y-78815D02*
G03*
X-9438Y-78815I-652J0D01*
G01*
X-51773Y-71913D02*
Y-60102D01*
X-46655D01*
Y-71913D02*
Y-60102D01*
X-51773Y-71913D02*
X-46655D01*
X-9421Y-77673D02*
Y-52083D01*
X-25956Y-77673D02*
X-9421D01*
X-25956D02*
Y-52083D01*
X-9421D01*
X-44967Y-85900D02*
X-47193Y-83674D01*
X-43482Y-84416D01*
X-45709Y-82189D01*
X-44967Y-81447D02*
X-43482Y-79963D01*
X-44225Y-80705D01*
X-41998Y-82932D01*
X-40885Y-78108D02*
X-41627D01*
X-42369Y-78850D01*
X-42369Y-79592D01*
X-40885Y-81076D01*
X-40143D01*
X-39401Y-80334D01*
X-39401Y-79592D01*
D67*
X-1565Y-37596D02*
D03*
X-33333Y-17420D02*
D03*
X-33157Y-37738D02*
D03*
D68*
X14933Y-58442D02*
Y-57772D01*
X14894Y-57733D02*
X14933Y-57772D01*
X14067Y-57733D02*
X14894D01*
D69*
X-50340Y-69665D02*
Y-62354D01*
Y-66488D02*
X-50336D01*
X-50269Y-67094D02*
X-47607Y-69756D01*
X-50340Y-65039D02*
X-50316D01*
X-47627Y-62350D01*
X-48773Y-62902D02*
X-47627Y-62350D01*
X-48143Y-63579D02*
X-47627Y-62350D01*
D70*
X-67126Y10827D02*
X-57284D01*
Y-36417D02*
Y10827D01*
X-67126Y-36417D02*
Y10827D01*
Y-36417D02*
X-57284D01*
D71*
X-20799Y58256D02*
X-20319Y60713D01*
X-21571Y63500D02*
X-20799Y58256D01*
X-21760Y60886D02*
X-21571Y63500D01*
D72*
X-5229Y-88902D02*
Y-86501D01*
Y-88902D02*
X-3139Y-87580D01*
X-5229Y-86501D02*
X-3139Y-87580D01*
X-5229Y-86501D02*
X-3651Y-87621D01*
X-5000Y-88538D02*
X-3651Y-87621D01*
X-5040Y-87000D02*
X-5000Y-88538D01*
X-5040Y-87000D02*
X-4164Y-87580D01*
X-5000Y-88160D02*
X-4164Y-87580D01*
X-5000Y-88160D02*
X-4771Y-87459D01*
X-4541Y-87607D01*
X-2923Y-88983D02*
Y-86366D01*
X5265Y-88902D02*
Y-86501D01*
X3175Y-87580D02*
X5265Y-88902D01*
X3175Y-87580D02*
X5265Y-86501D01*
X3687Y-87621D02*
X5265Y-86501D01*
X3687Y-87621D02*
X5036Y-88538D01*
X5077Y-87000D01*
X4200Y-87580D02*
X5077Y-87000D01*
X4200Y-87580D02*
X5036Y-88160D01*
X4807Y-87459D02*
X5036Y-88160D01*
X4577Y-87607D02*
X4807Y-87459D01*
X2959Y-88983D02*
Y-86366D01*
D73*
X48120Y-6901D02*
X51120D01*
X61120D02*
X64119D01*
X48120Y-19901D02*
Y-6901D01*
X64119Y-19901D02*
Y-6901D01*
D74*
X15198Y-61915D02*
D03*
D75*
X15048Y-61865D02*
D03*
D76*
X14548Y-61915D02*
D03*
M02*
