%FSLAX25Y25*%
%MOIN*%
G70*
G01*
G75*
G04 Layer_Color=2752767*
%ADD10C,0.00500*%
%ADD11C,0.00667*%
D10*
X-12000Y-89598D02*
Y-85598D01*
X-8000D01*
Y-89598D01*
X-12000D01*
X-2000D02*
Y-85598D01*
X2000D01*
Y-89598D01*
X-2000D01*
X8000D02*
Y-85598D01*
X12000D01*
Y-89598D01*
X8000D01*
X-10236Y74246D02*
X-12236Y78246D01*
X-8236D01*
X-10236Y74246D01*
X10236D02*
X8236Y78246D01*
X12236D01*
X10236Y74246D01*
X-14173Y84679D02*
X-13173Y85679D01*
X-12173D01*
X-13173Y86679D01*
X-12173Y87679D01*
X-13173D01*
X-14173Y88679D01*
X-15173Y87679D01*
X-16173D01*
X-15173Y86679D01*
X-16173Y85679D01*
X-15173D01*
X-14173Y84679D01*
X14173D02*
X15173Y85679D01*
X16173D01*
X15173Y86679D01*
X16173Y87679D01*
X15173D01*
X14173Y88679D01*
X13173Y87679D01*
X12173D01*
X13173Y86679D01*
X12173Y85679D01*
X13173D01*
X14173Y84679D01*
X14750Y30400D02*
X15750Y32400D01*
X14750Y34400D01*
X16749Y33400D01*
X18749Y34400D01*
X17750Y32400D01*
X18749Y30400D01*
X16749Y31400D01*
X14750Y30400D01*
X15100Y16712D02*
X16100Y18711D01*
X15100Y20711D01*
X17100Y19712D01*
X19100Y20711D01*
X18100Y18711D01*
X19100Y16712D01*
X17100Y17711D01*
X15100Y16712D01*
X22622Y-86700D02*
Y-87700D01*
X24622D01*
Y-86700D01*
X25622D01*
Y-84700D01*
X24622D01*
Y-83700D01*
X22622D01*
Y-84700D01*
X21622D01*
Y-86700D01*
X22622D01*
X-59500Y5100D02*
Y4100D01*
X-57500D01*
Y5100D01*
X-56500D01*
Y7100D01*
X-57500D01*
Y8100D01*
X-59500D01*
Y7100D01*
X-60500D01*
Y5100D01*
X-59500D01*
X-46024Y66026D02*
Y65026D01*
X-44024D01*
Y66026D01*
X-43024D01*
Y68026D01*
X-44024D01*
Y69026D01*
X-46024D01*
Y68026D01*
X-47024D01*
Y66026D01*
X-46024D01*
X-50069Y-63100D02*
Y-64100D01*
X-48069D01*
Y-63100D01*
X-47069D01*
Y-61100D01*
X-48069D01*
Y-60100D01*
X-50069D01*
Y-61100D01*
X-51069D01*
Y-63100D01*
X-50069D01*
X56000Y-69700D02*
Y-70700D01*
X58000D01*
Y-69700D01*
X59000D01*
Y-67700D01*
X58000D01*
Y-66700D01*
X56000D01*
Y-67700D01*
X55000D01*
Y-69700D01*
X56000D01*
X-39893Y-62500D02*
Y-63500D01*
X-37893D01*
Y-62500D01*
X-36893D01*
Y-60500D01*
X-37893D01*
Y-59500D01*
X-39893D01*
Y-60500D01*
X-40893D01*
Y-62500D01*
X-39893D01*
X-34500Y-74835D02*
Y-75835D01*
X-32500D01*
Y-74835D01*
X-31500D01*
Y-72834D01*
X-32500D01*
Y-71834D01*
X-34500D01*
Y-72834D01*
X-35500D01*
Y-74835D01*
X-34500D01*
X23700Y-78000D02*
Y-79000D01*
X25700D01*
Y-78000D01*
X26700D01*
Y-76000D01*
X25700D01*
Y-75000D01*
X23700D01*
Y-76000D01*
X22700D01*
Y-78000D01*
X23700D01*
X-21600Y-82100D02*
Y-83100D01*
X-19600D01*
Y-82100D01*
X-18600D01*
Y-80100D01*
X-19600D01*
Y-79100D01*
X-21600D01*
Y-80100D01*
X-22600D01*
Y-82100D01*
X-21600D01*
X-23500Y-76500D02*
Y-77500D01*
X-21500D01*
Y-76500D01*
X-20500D01*
Y-74500D01*
X-21500D01*
Y-73500D01*
X-23500D01*
Y-74500D01*
X-24500D01*
Y-76500D01*
X-23500D01*
X-17900Y-78400D02*
Y-79400D01*
X-15900D01*
Y-78400D01*
X-14900D01*
Y-76400D01*
X-15900D01*
Y-75400D01*
X-17900D01*
Y-76400D01*
X-18900D01*
Y-78400D01*
X-17900D01*
X-14745Y-75600D02*
Y-76600D01*
X-12745D01*
Y-75600D01*
X-11745D01*
Y-73600D01*
X-12745D01*
Y-72600D01*
X-14745D01*
Y-73600D01*
X-15745D01*
Y-75600D01*
X-14745D01*
X37900Y-59200D02*
Y-60200D01*
X39900D01*
Y-59200D01*
X40900D01*
Y-57200D01*
X39900D01*
Y-56200D01*
X37900D01*
Y-57200D01*
X36900D01*
Y-59200D01*
X37900D01*
X-300Y-58700D02*
Y-59700D01*
X1700D01*
Y-58700D01*
X2700D01*
Y-56700D01*
X1700D01*
Y-55700D01*
X-300D01*
Y-56700D01*
X-1300D01*
Y-58700D01*
X-300D01*
X7092Y-40500D02*
Y-41500D01*
X9092D01*
Y-40500D01*
X10092D01*
Y-38500D01*
X9092D01*
Y-37500D01*
X7092D01*
Y-38500D01*
X6092D01*
Y-40500D01*
X7092D01*
X-15800Y-46200D02*
Y-47200D01*
X-13800D01*
Y-46200D01*
X-12800D01*
Y-44200D01*
X-13800D01*
Y-43200D01*
X-15800D01*
Y-44200D01*
X-16800D01*
Y-46200D01*
X-15800D01*
X-10600Y-59400D02*
Y-60400D01*
X-8600D01*
Y-59400D01*
X-7600D01*
Y-57400D01*
X-8600D01*
Y-56400D01*
X-10600D01*
Y-57400D01*
X-11600D01*
Y-59400D01*
X-10600D01*
X-21900Y-88100D02*
Y-89100D01*
X-19900D01*
Y-88100D01*
X-18900D01*
Y-86100D01*
X-19900D01*
Y-85100D01*
X-21900D01*
Y-86100D01*
X-22900D01*
Y-88100D01*
X-21900D01*
X-50333Y-51251D02*
Y-52251D01*
X-48333D01*
Y-51251D01*
X-47333D01*
Y-49251D01*
X-48333D01*
Y-48251D01*
X-50333D01*
Y-49251D01*
X-51333D01*
Y-51251D01*
X-50333D01*
X-53300Y-59700D02*
Y-60700D01*
X-51300D01*
Y-59700D01*
X-50300D01*
Y-57700D01*
X-51300D01*
Y-56700D01*
X-53300D01*
Y-57700D01*
X-54300D01*
Y-59700D01*
X-53300D01*
X-26739Y-51428D02*
Y-52428D01*
X-24739D01*
Y-51428D01*
X-23739D01*
Y-49428D01*
X-24739D01*
Y-48428D01*
X-26739D01*
Y-49428D01*
X-27739D01*
Y-51428D01*
X-26739D01*
X-53500Y-47300D02*
Y-48300D01*
X-51500D01*
Y-47300D01*
X-50500D01*
Y-45300D01*
X-51500D01*
Y-44300D01*
X-53500D01*
Y-45300D01*
X-54500D01*
Y-47300D01*
X-53500D01*
X-51500Y-9300D02*
Y-10300D01*
X-49500D01*
Y-9300D01*
X-48500D01*
Y-7300D01*
X-49500D01*
Y-6300D01*
X-51500D01*
Y-7300D01*
X-52500D01*
Y-9300D01*
X-51500D01*
X-60429Y-36433D02*
Y-37433D01*
X-58429D01*
Y-36433D01*
X-57429D01*
Y-34433D01*
X-58429D01*
Y-33433D01*
X-60429D01*
Y-34433D01*
X-61429D01*
Y-36433D01*
X-60429D01*
X2400Y-80500D02*
Y-81500D01*
X4400D01*
Y-80500D01*
X5400D01*
Y-78500D01*
X4400D01*
Y-77500D01*
X2400D01*
Y-78500D01*
X1400D01*
Y-80500D01*
X2400D01*
X-62024Y-59071D02*
Y-60071D01*
X-60024D01*
Y-59071D01*
X-59024D01*
Y-57071D01*
X-60024D01*
Y-56071D01*
X-62024D01*
Y-57071D01*
X-63024D01*
Y-59071D01*
X-62024D01*
X-60802Y-51039D02*
Y-52039D01*
X-58802D01*
Y-51039D01*
X-57802D01*
Y-49039D01*
X-58802D01*
Y-48039D01*
X-60802D01*
Y-49039D01*
X-61802D01*
Y-51039D01*
X-60802D01*
X-66945Y-68957D02*
Y-69957D01*
X-64945D01*
Y-68957D01*
X-63945D01*
Y-66957D01*
X-64945D01*
Y-65957D01*
X-66945D01*
Y-66957D01*
X-67945D01*
Y-68957D01*
X-66945D01*
X47228Y62492D02*
Y61492D01*
X49228D01*
Y62492D01*
X50228D01*
Y64492D01*
X49228D01*
Y65492D01*
X47228D01*
Y64492D01*
X46228D01*
Y62492D01*
X47228D01*
X42307Y63591D02*
Y62591D01*
X44307D01*
Y63591D01*
X45307D01*
Y65591D01*
X44307D01*
Y66591D01*
X42307D01*
Y65591D01*
X41307D01*
Y63591D01*
X42307D01*
X35417Y61992D02*
Y60992D01*
X37417D01*
Y61992D01*
X38417D01*
Y63992D01*
X37417D01*
Y64992D01*
X35417D01*
Y63992D01*
X34417D01*
Y61992D01*
X35417D01*
X22622Y-65961D02*
Y-66961D01*
X24622D01*
Y-65961D01*
X25622D01*
Y-63960D01*
X24622D01*
Y-62960D01*
X22622D01*
Y-63960D01*
X21622D01*
Y-65961D01*
X22622D01*
X49292Y74787D02*
Y73787D01*
X51292D01*
Y74787D01*
X52292D01*
Y76787D01*
X51292D01*
Y77787D01*
X49292D01*
Y76787D01*
X48292D01*
Y74787D01*
X49292D01*
X-65883Y-54362D02*
Y-55362D01*
X-63883D01*
Y-54362D01*
X-62883D01*
Y-52362D01*
X-63883D01*
Y-51362D01*
X-65883D01*
Y-52362D01*
X-66883D01*
Y-54362D01*
X-65883D01*
X-34465Y75772D02*
Y74772D01*
X-32465D01*
Y75772D01*
X-31465D01*
Y77772D01*
X-32465D01*
Y78772D01*
X-34465D01*
Y77772D01*
X-35465D01*
Y75772D01*
X-34465D01*
X-51197Y76756D02*
Y75756D01*
X-49197D01*
Y76756D01*
X-48197D01*
Y78756D01*
X-49197D01*
Y79756D01*
X-51197D01*
Y78756D01*
X-52197D01*
Y76756D01*
X-51197D01*
X-48825Y70582D02*
Y69582D01*
X-46825D01*
Y70582D01*
X-45825D01*
Y72582D01*
X-46825D01*
Y73582D01*
X-48825D01*
Y72582D01*
X-49825D01*
Y70582D01*
X-48825D01*
X-25400Y61400D02*
Y60400D01*
X-23400D01*
Y61400D01*
X-22400D01*
Y63400D01*
X-23400D01*
Y64400D01*
X-25400D01*
Y63400D01*
X-26400D01*
Y61400D01*
X-25400D01*
X-29543Y67729D02*
Y66729D01*
X-27543D01*
Y67729D01*
X-26543D01*
Y69729D01*
X-27543D01*
Y70729D01*
X-29543D01*
Y69729D01*
X-30543D01*
Y67729D01*
X-29543D01*
X-3125Y58974D02*
Y57974D01*
X-1125D01*
Y58974D01*
X-125D01*
Y60974D01*
X-1125D01*
Y61974D01*
X-3125D01*
Y60974D01*
X-4125D01*
Y58974D01*
X-3125D01*
X-6572Y59074D02*
Y58074D01*
X-4572D01*
Y59074D01*
X-3572D01*
Y61074D01*
X-4572D01*
Y62074D01*
X-6572D01*
Y61074D01*
X-7572D01*
Y59074D01*
X-6572D01*
X52700Y-4400D02*
Y-5400D01*
X54700D01*
Y-4400D01*
X55700D01*
Y-2400D01*
X54700D01*
Y-1400D01*
X52700D01*
Y-2400D01*
X51700D01*
Y-4400D01*
X52700D01*
X1800Y-27100D02*
Y-28100D01*
X3800D01*
Y-27100D01*
X4800D01*
Y-25100D01*
X3800D01*
Y-24100D01*
X1800D01*
Y-25100D01*
X800D01*
Y-27100D01*
X1800D01*
X7200Y-25900D02*
Y-26900D01*
X9200D01*
Y-25900D01*
X10200D01*
Y-23900D01*
X9200D01*
Y-22900D01*
X7200D01*
Y-23900D01*
X6200D01*
Y-25900D01*
X7200D01*
X8392Y-21026D02*
Y-22026D01*
X10392D01*
Y-21026D01*
X11392D01*
Y-19026D01*
X10392D01*
Y-18026D01*
X8392D01*
Y-19026D01*
X7392D01*
Y-21026D01*
X8392D01*
X-10808Y-15626D02*
Y-16626D01*
X-8808D01*
Y-15626D01*
X-7808D01*
Y-13626D01*
X-8808D01*
Y-12626D01*
X-10808D01*
Y-13626D01*
X-11808D01*
Y-15626D01*
X-10808D01*
X-13174Y-4802D02*
Y-5802D01*
X-11174D01*
Y-4802D01*
X-10174D01*
Y-2802D01*
X-11174D01*
Y-1802D01*
X-13174D01*
Y-2802D01*
X-14174D01*
Y-4802D01*
X-13174D01*
X32017Y-55090D02*
Y-56090D01*
X34017D01*
Y-55090D01*
X35017D01*
Y-53091D01*
X34017D01*
Y-52091D01*
X32017D01*
Y-53091D01*
X31017D01*
Y-55090D01*
X32017D01*
X36517D02*
Y-56090D01*
X38517D01*
Y-55090D01*
X39517D01*
Y-53091D01*
X38517D01*
Y-52091D01*
X36517D01*
Y-53091D01*
X35517D01*
Y-55090D01*
X36517D01*
X36417Y-49891D02*
Y-50891D01*
X38417D01*
Y-49891D01*
X39417D01*
Y-47891D01*
X38417D01*
Y-46891D01*
X36417D01*
Y-47891D01*
X35417D01*
Y-49891D01*
X36417D01*
X30417Y-49491D02*
Y-50491D01*
X32417D01*
Y-49491D01*
X33417D01*
Y-47491D01*
X32417D01*
Y-46491D01*
X30417D01*
Y-47491D01*
X29417D01*
Y-49491D01*
X30417D01*
X42017Y-14190D02*
Y-15191D01*
X44017D01*
Y-14190D01*
X45017D01*
Y-12191D01*
X44017D01*
Y-11191D01*
X42017D01*
Y-12191D01*
X41017D01*
Y-14190D01*
X42017D01*
X45417Y-20391D02*
Y-21391D01*
X47417D01*
Y-20391D01*
X48417D01*
Y-18391D01*
X47417D01*
Y-17391D01*
X45417D01*
Y-18391D01*
X44417D01*
Y-20391D01*
X45417D01*
X45517Y-15391D02*
Y-16390D01*
X47517D01*
Y-15391D01*
X48517D01*
Y-13390D01*
X47517D01*
Y-12391D01*
X45517D01*
Y-13390D01*
X44517D01*
Y-15391D01*
X45517D01*
X45417Y-44165D02*
Y-45165D01*
X47417D01*
Y-44165D01*
X48417D01*
Y-42165D01*
X47417D01*
Y-41165D01*
X45417D01*
Y-42165D01*
X44417D01*
Y-44165D01*
X45417D01*
Y-39091D02*
Y-40091D01*
X47417D01*
Y-39091D01*
X48417D01*
Y-37091D01*
X47417D01*
Y-36091D01*
X45417D01*
Y-37091D01*
X44417D01*
Y-39091D01*
X45417D01*
X45517Y-34291D02*
Y-35291D01*
X47517D01*
Y-34291D01*
X48517D01*
Y-32291D01*
X47517D01*
Y-31291D01*
X45517D01*
Y-32291D01*
X44517D01*
Y-34291D01*
X45517D01*
Y-28891D02*
Y-29891D01*
X47517D01*
Y-28891D01*
X48517D01*
Y-26891D01*
X47517D01*
Y-25891D01*
X45517D01*
Y-26891D01*
X44517D01*
Y-28891D01*
X45517D01*
Y-24490D02*
Y-25490D01*
X47517D01*
Y-24490D01*
X48517D01*
Y-22490D01*
X47517D01*
Y-21490D01*
X45517D01*
Y-22490D01*
X44517D01*
Y-24490D01*
X45517D01*
X-43683Y-21490D02*
Y-22490D01*
X-41683D01*
Y-21490D01*
X-40683D01*
Y-19490D01*
X-41683D01*
Y-18490D01*
X-43683D01*
Y-19490D01*
X-44683D01*
Y-21490D01*
X-43683D01*
X-43583Y-17591D02*
Y-18590D01*
X-41583D01*
Y-17591D01*
X-40583D01*
Y-15590D01*
X-41583D01*
Y-14591D01*
X-43583D01*
Y-15590D01*
X-44583D01*
Y-17591D01*
X-43583D01*
X-43983Y-30091D02*
Y-31091D01*
X-41983D01*
Y-30091D01*
X-40983D01*
Y-28091D01*
X-41983D01*
Y-27091D01*
X-43983D01*
Y-28091D01*
X-44983D01*
Y-30091D01*
X-43983D01*
X-583Y57810D02*
Y56810D01*
X1417D01*
Y57810D01*
X2417D01*
Y59809D01*
X1417D01*
Y60809D01*
X-583D01*
Y59809D01*
X-1583D01*
Y57810D01*
X-583D01*
X-8683Y57910D02*
Y56910D01*
X-6683D01*
Y57910D01*
X-5683D01*
Y59909D01*
X-6683D01*
Y60909D01*
X-8683D01*
Y59909D01*
X-9683D01*
Y57910D01*
X-8683D01*
X12313Y-44200D02*
Y-45200D01*
X14312D01*
Y-44200D01*
X15313D01*
Y-42200D01*
X14312D01*
Y-41200D01*
X12313D01*
Y-42200D01*
X11312D01*
Y-44200D01*
X12313D01*
X-14308Y-30626D02*
Y-31626D01*
X-12308D01*
Y-30626D01*
X-11308D01*
Y-28626D01*
X-12308D01*
Y-27626D01*
X-14308D01*
Y-28626D01*
X-15308D01*
Y-30626D01*
X-14308D01*
X1486Y-39243D02*
Y-40243D01*
X3486D01*
Y-39243D01*
X4486D01*
Y-37243D01*
X3486D01*
Y-36243D01*
X1486D01*
Y-37243D01*
X486D01*
Y-39243D01*
X1486D01*
X32982Y-12668D02*
Y-13668D01*
X34982D01*
Y-12668D01*
X35982D01*
Y-10668D01*
X34982D01*
Y-9668D01*
X32982D01*
Y-10668D01*
X31982D01*
Y-12668D01*
X32982D01*
X-19184Y-12668D02*
Y-13668D01*
X-17184D01*
Y-12668D01*
X-16184D01*
Y-10668D01*
X-17184D01*
Y-9668D01*
X-19184D01*
Y-10668D01*
X-20184D01*
Y-12668D01*
X-19184D01*
X15617Y-68090D02*
Y-69090D01*
X17617D01*
Y-68090D01*
X18617D01*
Y-66091D01*
X17617D01*
Y-65091D01*
X15617D01*
Y-66091D01*
X14617D01*
Y-68090D01*
X15617D01*
X12117Y-71191D02*
Y-72190D01*
X14117D01*
Y-71191D01*
X15117D01*
Y-69191D01*
X14117D01*
Y-68190D01*
X12117D01*
Y-69191D01*
X11117D01*
Y-71191D01*
X12117D01*
X-34883Y-12491D02*
Y-13490D01*
X-32883D01*
Y-12491D01*
X-31883D01*
Y-10491D01*
X-32883D01*
Y-9491D01*
X-34883D01*
Y-10491D01*
X-35883D01*
Y-12491D01*
X-34883D01*
X-35283Y-48691D02*
Y-49691D01*
X-33283D01*
Y-48691D01*
X-32283D01*
Y-46691D01*
X-33283D01*
Y-45691D01*
X-35283D01*
Y-46691D01*
X-36283D01*
Y-48691D01*
X-35283D01*
X41717Y-20290D02*
Y-21291D01*
X43717D01*
Y-20290D01*
X44717D01*
Y-18291D01*
X43717D01*
Y-17290D01*
X41717D01*
Y-18291D01*
X40717D01*
Y-20290D01*
X41717D01*
X25717Y-49312D02*
Y-50312D01*
X27717D01*
Y-49312D01*
X28717D01*
Y-47312D01*
X27717D01*
Y-46312D01*
X25717D01*
Y-47312D01*
X24717D01*
Y-49312D01*
X25717D01*
X1617Y68410D02*
Y67409D01*
X3617D01*
Y68410D01*
X4617D01*
Y70410D01*
X3617D01*
Y71409D01*
X1617D01*
Y70410D01*
X617D01*
Y68410D01*
X1617D01*
X-2083D02*
Y67409D01*
X-83D01*
Y68410D01*
X917D01*
Y70410D01*
X-83D01*
Y71409D01*
X-2083D01*
Y70410D01*
X-3083D01*
Y68410D01*
X-2083D01*
X25592Y-3953D02*
Y-4953D01*
X27592D01*
Y-3953D01*
X28592D01*
Y-1953D01*
X27592D01*
Y-953D01*
X25592D01*
Y-1953D01*
X24592D01*
Y-3953D01*
X25592D01*
X33466Y-7890D02*
Y-8890D01*
X35466D01*
Y-7890D01*
X36466D01*
Y-5890D01*
X35466D01*
Y-4890D01*
X33466D01*
Y-5890D01*
X32466D01*
Y-7890D01*
X33466D01*
X41340Y35417D02*
Y34417D01*
X43340D01*
Y35417D01*
X44340D01*
Y37417D01*
X43340D01*
Y38417D01*
X41340D01*
Y37417D01*
X40340D01*
Y35417D01*
X41340D01*
X30513D02*
Y34417D01*
X32513D01*
Y35417D01*
X33513D01*
Y37417D01*
X32513D01*
Y38417D01*
X30513D01*
Y37417D01*
X29513D01*
Y35417D01*
X30513D01*
X-37400Y34433D02*
Y33433D01*
X-35400D01*
Y34433D01*
X-34400D01*
Y36433D01*
X-35400D01*
Y37433D01*
X-37400D01*
Y36433D01*
X-38400D01*
Y34433D01*
X-37400D01*
X-48227D02*
Y33433D01*
X-46227D01*
Y34433D01*
X-45227D01*
Y36433D01*
X-46227D01*
Y37433D01*
X-48227D01*
Y36433D01*
X-49227D01*
Y34433D01*
X-48227D01*
X-4783Y61110D02*
Y60110D01*
X-2783D01*
Y61110D01*
X-1783D01*
Y63109D01*
X-2783D01*
Y64109D01*
X-4783D01*
Y63109D01*
X-5783D01*
Y61110D01*
X-4783D01*
X-4708Y57574D02*
Y56574D01*
X-2708D01*
Y57574D01*
X-1708D01*
Y59574D01*
X-2708D01*
Y60574D01*
X-4708D01*
Y59574D01*
X-5708D01*
Y57574D01*
X-4708D01*
X-11283Y60510D02*
Y59509D01*
X-9283D01*
Y60510D01*
X-8283D01*
Y62510D01*
X-9283D01*
Y63510D01*
X-11283D01*
Y62510D01*
X-12283D01*
Y60510D01*
X-11283D01*
X-11183Y58009D02*
Y57010D01*
X-9183D01*
Y58009D01*
X-8183D01*
Y60009D01*
X-9183D01*
Y61010D01*
X-11183D01*
Y60009D01*
X-12183D01*
Y58009D01*
X-11183D01*
X-8643Y60710D02*
Y59710D01*
X-6643D01*
Y60710D01*
X-5643D01*
Y62709D01*
X-6643D01*
Y63709D01*
X-8643D01*
Y62709D01*
X-9643D01*
Y60710D01*
X-8643D01*
X39092Y-2426D02*
Y-3426D01*
X41092D01*
Y-2426D01*
X42092D01*
Y-426D01*
X41092D01*
Y574D01*
X39092D01*
Y-426D01*
X38092D01*
Y-2426D01*
X39092D01*
X-22583Y-15590D02*
Y-16590D01*
X-20583D01*
Y-15590D01*
X-19583D01*
Y-13590D01*
X-20583D01*
Y-12591D01*
X-22583D01*
Y-13590D01*
X-23583D01*
Y-15590D01*
X-22583D01*
X-25800Y-7157D02*
Y-8157D01*
X-23800D01*
Y-7157D01*
X-22800D01*
Y-5157D01*
X-23800D01*
Y-4157D01*
X-25800D01*
Y-5157D01*
X-26800D01*
Y-7157D01*
X-25800D01*
X16917Y-12691D02*
Y-13690D01*
X18917D01*
Y-12691D01*
X19917D01*
Y-10691D01*
X18917D01*
Y-9691D01*
X16917D01*
Y-10691D01*
X15917D01*
Y-12691D01*
X16917D01*
X-36883Y-5762D02*
Y-6762D01*
X-34883D01*
Y-5762D01*
X-33883D01*
Y-3762D01*
X-34883D01*
Y-2762D01*
X-36883D01*
Y-3762D01*
X-37883D01*
Y-5762D01*
X-36883D01*
X-19000Y-9091D02*
Y-10091D01*
X-17000D01*
Y-9091D01*
X-16000D01*
Y-7091D01*
X-17000D01*
Y-6091D01*
X-19000D01*
Y-7091D01*
X-20000D01*
Y-9091D01*
X-19000D01*
X-31700Y65100D02*
Y64100D01*
X-29700D01*
Y65100D01*
X-28700D01*
Y67100D01*
X-29700D01*
Y68100D01*
X-31700D01*
Y67100D01*
X-32700D01*
Y65100D01*
X-31700D01*
X18517Y-7091D02*
Y-8091D01*
X20517D01*
Y-7091D01*
X21517D01*
Y-5091D01*
X20517D01*
Y-4091D01*
X18517D01*
Y-5091D01*
X17517D01*
Y-7091D01*
X18517D01*
X30117Y-3991D02*
Y-4991D01*
X32117D01*
Y-3991D01*
X33117D01*
Y-1991D01*
X32117D01*
Y-991D01*
X30117D01*
Y-1991D01*
X29117D01*
Y-3991D01*
X30117D01*
X-1183Y60710D02*
Y59710D01*
X817D01*
Y60710D01*
X1817D01*
Y62709D01*
X817D01*
Y63709D01*
X-1183D01*
Y62709D01*
X-2183D01*
Y60710D01*
X-1183D01*
X-16000Y-2700D02*
Y-3700D01*
X-14000D01*
Y-2700D01*
X-13000D01*
Y-700D01*
X-14000D01*
Y300D01*
X-16000D01*
Y-700D01*
X-17000D01*
Y-2700D01*
X-16000D01*
X-12608Y-1426D02*
Y-2426D01*
X-10608D01*
Y-1426D01*
X-9608D01*
Y574D01*
X-10608D01*
Y1574D01*
X-12608D01*
Y574D01*
X-13608D01*
Y-1426D01*
X-12608D01*
X16100Y-17900D02*
Y-18900D01*
X18100D01*
Y-17900D01*
X19100D01*
Y-15900D01*
X18100D01*
Y-14900D01*
X16100D01*
Y-15900D01*
X15100D01*
Y-17900D01*
X16100D01*
X-21400Y-33600D02*
Y-34600D01*
X-19400D01*
Y-33600D01*
X-18400D01*
Y-31600D01*
X-19400D01*
Y-30600D01*
X-21400D01*
Y-31600D01*
X-22400D01*
Y-33600D01*
X-21400D01*
X-33618Y-29401D02*
Y-30401D01*
X-31618D01*
Y-29401D01*
X-30618D01*
Y-27401D01*
X-31618D01*
Y-26401D01*
X-33618D01*
Y-27401D01*
X-34618D01*
Y-29401D01*
X-33618D01*
X26876Y-73955D02*
Y-74955D01*
X28876D01*
Y-73955D01*
X29876D01*
Y-71955D01*
X28876D01*
Y-70955D01*
X26876D01*
Y-71955D01*
X25876D01*
Y-73955D01*
X26876D01*
X38370Y51165D02*
Y50165D01*
X40370D01*
Y51165D01*
X41370D01*
Y53165D01*
X40370D01*
Y54165D01*
X38370D01*
Y53165D01*
X37370D01*
Y51165D01*
X38370D01*
X-11500Y-80600D02*
Y-81600D01*
X-9500D01*
Y-80600D01*
X-8500D01*
Y-78600D01*
X-9500D01*
Y-77600D01*
X-11500D01*
Y-78600D01*
X-12500D01*
Y-80600D01*
X-11500D01*
X-59200Y-63600D02*
Y-64600D01*
X-57200D01*
Y-63600D01*
X-56200D01*
Y-61600D01*
X-57200D01*
Y-60600D01*
X-59200D01*
Y-61600D01*
X-60200D01*
Y-63600D01*
X-59200D01*
X-54900Y-39091D02*
Y-40091D01*
X-52900D01*
Y-39091D01*
X-51900D01*
Y-37091D01*
X-52900D01*
Y-36091D01*
X-54900D01*
Y-37091D01*
X-55900D01*
Y-39091D01*
X-54900D01*
X7687Y-55168D02*
Y-56169D01*
X9687D01*
Y-55168D01*
X10687D01*
Y-53168D01*
X9687D01*
Y-52169D01*
X7687D01*
Y-53168D01*
X6687D01*
Y-55168D01*
X7687D01*
X4072Y-63758D02*
Y-64758D01*
X6072D01*
Y-63758D01*
X7072D01*
Y-61758D01*
X6072D01*
Y-60758D01*
X4072D01*
Y-61758D01*
X3072D01*
Y-63758D01*
X4072D01*
X3937Y-68400D02*
Y-69400D01*
X5937D01*
Y-68400D01*
X6937D01*
Y-66400D01*
X5937D01*
Y-65400D01*
X3937D01*
Y-66400D01*
X2937D01*
Y-68400D01*
X3937D01*
X-40454Y-72700D02*
Y-73700D01*
X-38454D01*
Y-72700D01*
X-37454D01*
Y-70700D01*
X-38454D01*
Y-69700D01*
X-40454D01*
Y-70700D01*
X-41454D01*
Y-72700D01*
X-40454D01*
X-48300Y-67100D02*
Y-68100D01*
X-46300D01*
Y-67100D01*
X-45300D01*
Y-65100D01*
X-46300D01*
Y-64100D01*
X-48300D01*
Y-65100D01*
X-49300D01*
Y-67100D01*
X-48300D01*
X36500Y-77659D02*
Y-78659D01*
X38500D01*
Y-77659D01*
X39500D01*
Y-75659D01*
X38500D01*
Y-74659D01*
X36500D01*
Y-75659D01*
X35500D01*
Y-77659D01*
X36500D01*
X41800Y-77100D02*
Y-78100D01*
X43800D01*
Y-77100D01*
X44800D01*
Y-75100D01*
X43800D01*
Y-74100D01*
X41800D01*
Y-75100D01*
X40800D01*
Y-77100D01*
X41800D01*
X45400Y-53400D02*
Y-54400D01*
X47400D01*
Y-53400D01*
X48400D01*
Y-51400D01*
X47400D01*
Y-50400D01*
X45400D01*
Y-51400D01*
X44400D01*
Y-53400D01*
X45400D01*
X45000Y-57500D02*
Y-58500D01*
X47000D01*
Y-57500D01*
X48000D01*
Y-55500D01*
X47000D01*
Y-54500D01*
X45000D01*
Y-55500D01*
X44000D01*
Y-57500D01*
X45000D01*
X44700Y-61500D02*
Y-62500D01*
X46700D01*
Y-61500D01*
X47700D01*
Y-59500D01*
X46700D01*
Y-58500D01*
X44700D01*
Y-59500D01*
X43700D01*
Y-61500D01*
X44700D01*
X17800Y-31471D02*
Y-32471D01*
X19800D01*
Y-31471D01*
X20800D01*
Y-29471D01*
X19800D01*
Y-28471D01*
X17800D01*
Y-29471D01*
X16800D01*
Y-31471D01*
X17800D01*
X15400Y-77900D02*
Y-78900D01*
X17400D01*
Y-77900D01*
X18400D01*
Y-75900D01*
X17400D01*
Y-74900D01*
X15400D01*
Y-75900D01*
X14400D01*
Y-77900D01*
X15400D01*
X-14100Y-52300D02*
Y-53300D01*
X-12100D01*
Y-52300D01*
X-11100D01*
Y-50300D01*
X-12100D01*
Y-49300D01*
X-14100D01*
Y-50300D01*
X-15100D01*
Y-52300D01*
X-14100D01*
X-36358Y68900D02*
Y67900D01*
X-34358D01*
Y68900D01*
X-33358D01*
Y70900D01*
X-34358D01*
Y71900D01*
X-36358D01*
Y70900D01*
X-37358D01*
Y68900D01*
X-36358D01*
X-33067Y69000D02*
Y68000D01*
X-31067D01*
Y69000D01*
X-30067D01*
Y71000D01*
X-31067D01*
Y72000D01*
X-33067D01*
Y71000D01*
X-34067D01*
Y69000D01*
X-33067D01*
X-30000Y72500D02*
Y71500D01*
X-28000D01*
Y72500D01*
X-27000D01*
Y74500D01*
X-28000D01*
Y75500D01*
X-30000D01*
Y74500D01*
X-31000D01*
Y72500D01*
X-30000D01*
X-25700Y72600D02*
Y71600D01*
X-23700D01*
Y72600D01*
X-22700D01*
Y74600D01*
X-23700D01*
Y75600D01*
X-25700D01*
Y74600D01*
X-26700D01*
Y72600D01*
X-25700D01*
X-14308Y73000D02*
Y72000D01*
X-12308D01*
Y73000D01*
X-11308D01*
Y75000D01*
X-12308D01*
Y76000D01*
X-14308D01*
Y75000D01*
X-15308D01*
Y73000D01*
X-14308D01*
X-17700Y75597D02*
Y74597D01*
X-15700D01*
Y75597D01*
X-14700D01*
Y77597D01*
X-15700D01*
Y78597D01*
X-17700D01*
Y77597D01*
X-18700D01*
Y75597D01*
X-17700D01*
Y79900D02*
Y78900D01*
X-15700D01*
Y79900D01*
X-14700D01*
Y81900D01*
X-15700D01*
Y82900D01*
X-17700D01*
Y81900D01*
X-18700D01*
Y79900D01*
X-17700D01*
X-9500Y84700D02*
Y83700D01*
X-7500D01*
Y84700D01*
X-6500D01*
Y86700D01*
X-7500D01*
Y87700D01*
X-9500D01*
Y86700D01*
X-10500D01*
Y84700D01*
X-9500D01*
X-11661Y81200D02*
Y80200D01*
X-9661D01*
Y81200D01*
X-8661D01*
Y83200D01*
X-9661D01*
Y84200D01*
X-11661D01*
Y83200D01*
X-12661D01*
Y81200D01*
X-11661D01*
X27946Y71900D02*
Y70900D01*
X29946D01*
Y71900D01*
X30946D01*
Y73900D01*
X29946D01*
Y74900D01*
X27946D01*
Y73900D01*
X26946D01*
Y71900D01*
X27946D01*
X28100Y68410D02*
Y67410D01*
X30100D01*
Y68410D01*
X31100D01*
Y70410D01*
X30100D01*
Y71410D01*
X28100D01*
Y70410D01*
X27100D01*
Y68410D01*
X28100D01*
X28900Y64032D02*
Y63032D01*
X30900D01*
Y64032D01*
X31900D01*
Y66032D01*
X30900D01*
Y67032D01*
X28900D01*
Y66032D01*
X27900D01*
Y64032D01*
X28900D01*
X31200Y68800D02*
Y67800D01*
X33200D01*
Y68800D01*
X34200D01*
Y70800D01*
X33200D01*
Y71800D01*
X31200D01*
Y70800D01*
X30200D01*
Y68800D01*
X31200D01*
X25500Y68400D02*
Y67400D01*
X27500D01*
Y68400D01*
X28500D01*
Y70400D01*
X27500D01*
Y71400D01*
X25500D01*
Y70400D01*
X24500D01*
Y68400D01*
X25500D01*
X9236Y79700D02*
Y78700D01*
X11236D01*
Y79700D01*
X12236D01*
Y81700D01*
X11236D01*
Y82700D01*
X9236D01*
Y81700D01*
X8236D01*
Y79700D01*
X9236D01*
X13452Y78800D02*
Y77800D01*
X15452D01*
Y78800D01*
X16452D01*
Y80800D01*
X15452D01*
Y81800D01*
X13452D01*
Y80800D01*
X12453D01*
Y78800D01*
X13452D01*
D11*
X-7000Y7200D02*
G03*
X-7000Y7200I-2000J0D01*
G01*
X7900Y38000D02*
G03*
X7900Y38000I-2000J0D01*
G01*
M02*
