%FSLAX25Y25*%
%MOIN*%
G70*
G01*
G75*
G04 Layer_Physical_Order=2*
G04 Layer_Color=16711680*
%ADD10C,0.00787*%
%ADD11C,0.01181*%
%ADD12C,0.00984*%
%ADD13R,0.01969X0.02362*%
%ADD14R,0.03937X0.03150*%
%ADD15R,0.03150X0.03543*%
%ADD16R,0.02756X0.01575*%
%ADD17R,0.02362X0.01969*%
%ADD18R,0.04724X0.03543*%
%ADD19R,0.03937X0.02756*%
%ADD20R,0.01969X0.03937*%
%ADD21R,0.02362X0.03937*%
%ADD22O,0.07874X0.05906*%
%ADD23R,0.07874X0.05906*%
%ADD24R,0.03937X0.04724*%
%ADD25R,0.03543X0.03937*%
%ADD26R,0.04921X0.02362*%
%ADD27O,0.04921X0.02362*%
%ADD28R,0.04724X0.03937*%
%ADD29R,0.03543X0.02362*%
%ADD30R,0.06299X0.04921*%
%ADD31O,0.02362X0.07874*%
%ADD32R,0.04724X0.01575*%
%ADD33O,0.02362X0.07874*%
%ADD34R,0.03400X0.10000*%
%ADD35R,0.03400X0.05000*%
%ADD36R,0.02362X0.03543*%
G04:AMPARAMS|DCode=37|XSize=59.06mil|YSize=78.74mil|CornerRadius=0mil|HoleSize=0mil|Usage=FLASHONLY|Rotation=45.000|XOffset=0mil|YOffset=0mil|HoleType=Round|Shape=Round|*
%AMOVALD37*
21,1,0.01969,0.05906,0.00000,0.00000,135.0*
1,1,0.05906,0.00696,-0.00696*
1,1,0.05906,-0.00696,0.00696*
%
%ADD37OVALD37*%

%ADD38R,0.01575X0.04921*%
%ADD39R,0.02362X0.05315*%
%ADD40C,0.01969*%
%ADD41C,0.03937*%
%ADD42C,0.05906*%
%ADD43R,0.06717X0.02806*%
%ADD44R,0.15106X0.14091*%
%ADD45R,0.12325X0.05909*%
%ADD46R,0.08728X0.04000*%
%ADD47R,0.07905X0.22706*%
%ADD48R,0.47900X0.06374*%
%ADD49R,0.06200X0.11200*%
%ADD50R,0.02400X0.07447*%
%ADD51R,0.11060X0.04191*%
%ADD52R,0.38700X0.08270*%
%ADD53R,0.31672X0.09600*%
%ADD54C,0.03937*%
%ADD55C,0.09843*%
%ADD56O,0.11811X0.09843*%
%ADD57C,0.05118*%
%ADD58O,0.04331X0.07087*%
%ADD59C,0.02362*%
%ADD60C,0.07874*%
%ADD61R,0.07874X0.07874*%
%ADD62R,0.05906X0.07874*%
%ADD63C,0.04724*%
G36*
X39242Y85530D02*
X39198Y85031D01*
X38467Y84935D01*
X37605Y84578D01*
X36865Y84010D01*
X36297Y83270D01*
X35940Y82408D01*
X35818Y81483D01*
X35940Y80558D01*
X36297Y79696D01*
X36865Y78956D01*
X37605Y78388D01*
X38467Y78031D01*
X39392Y77909D01*
X40317Y78031D01*
X41179Y78388D01*
X41919Y78956D01*
X42487Y79696D01*
X42844Y80558D01*
X42966Y81483D01*
X42844Y82408D01*
X42487Y83270D01*
X41919Y84010D01*
X41670Y84201D01*
X41914Y84638D01*
X47858Y82369D01*
X54288Y79492D01*
X57402Y77883D01*
X57640Y77526D01*
X67309Y67857D01*
Y59677D01*
X66847Y59486D01*
X66530Y59803D01*
X66075Y60107D01*
X65537Y60214D01*
X61665D01*
X61543Y60699D01*
X62369Y61141D01*
X63268Y61879D01*
X64006Y62778D01*
X64555Y63804D01*
X64892Y64917D01*
X65006Y66075D01*
X64892Y67233D01*
X64555Y68346D01*
X64006Y69372D01*
X63268Y70271D01*
X62369Y71009D01*
X61343Y71557D01*
X60230Y71895D01*
X59072Y72009D01*
X57915Y71895D01*
X56801Y71557D01*
X55775Y71009D01*
X54876Y70271D01*
X54138Y69372D01*
X53590Y68346D01*
X53252Y67233D01*
X53138Y66075D01*
X53252Y64917D01*
X53590Y63804D01*
X54138Y62778D01*
X54876Y61879D01*
X55775Y61141D01*
X56601Y60699D01*
X56480Y60214D01*
X53772D01*
X51043Y62944D01*
X51043Y62944D01*
X51048Y62949D01*
X51005Y62982D01*
X50436Y63551D01*
X50414Y63605D01*
X50268Y64337D01*
X49790Y65053D01*
X49073Y65532D01*
X48228Y65700D01*
X47383Y65532D01*
X46667Y65053D01*
X46232Y64403D01*
X45983Y64378D01*
X45643Y64446D01*
X45524Y64565D01*
X45524Y64591D01*
D01*
X45518Y64605D01*
Y64605D01*
X45518D01*
Y64605D01*
Y64605D01*
X45512Y64607D01*
X45347Y65436D01*
X44868Y66152D01*
X44152Y66631D01*
X43307Y66799D01*
X42462Y66631D01*
X41746Y66152D01*
X41267Y65436D01*
X41099Y64591D01*
X41252Y63824D01*
X40935Y63437D01*
X38537D01*
X38457Y63837D01*
X37978Y64553D01*
X37262Y65032D01*
X36417Y65200D01*
X35572Y65032D01*
X34856Y64553D01*
X34378Y63837D01*
X34209Y62992D01*
X34378Y62147D01*
X34405Y62107D01*
X34169Y61666D01*
X26821D01*
X25346Y63141D01*
Y70959D01*
X25239Y71497D01*
X24934Y71952D01*
X22375Y74512D01*
X21923Y74814D01*
X22068Y75292D01*
X32098D01*
X32636Y75399D01*
X33091Y75704D01*
X33396Y76160D01*
X33503Y76697D01*
X33503Y76697D01*
X33503Y76697D01*
Y76697D01*
Y85892D01*
X38104D01*
X39242Y85530D01*
D02*
G37*
G36*
X17378Y77340D02*
X17485Y76802D01*
X17790Y76346D01*
X18432Y75704D01*
X18884Y75402D01*
X18738Y74924D01*
X14672D01*
X14134Y74817D01*
X13678Y74512D01*
X12307Y73141D01*
X7218D01*
X5626Y74734D01*
X5170Y75038D01*
X4632Y75145D01*
X-672D01*
X-1209Y75038D01*
X-1665Y74734D01*
X-6682Y69717D01*
X-10930D01*
X-14786Y73573D01*
X-15242Y73878D01*
X-15780Y73985D01*
X-21620D01*
X-22158Y73878D01*
X-22614Y73573D01*
X-26053Y70134D01*
X-26878D01*
X-26982Y70290D01*
X-27698Y70769D01*
X-28543Y70937D01*
X-29388Y70769D01*
X-30104Y70290D01*
X-30583Y69574D01*
X-30751Y68729D01*
X-30673Y68335D01*
X-30700Y68308D01*
X-31545Y68140D01*
X-32261Y67661D01*
X-32740Y66945D01*
X-32908Y66100D01*
X-32740Y65255D01*
X-32261Y64539D01*
X-31545Y64060D01*
X-30700Y63892D01*
X-29855Y64060D01*
X-29551Y64264D01*
X-29105Y63818D01*
Y60561D01*
X-28998Y60023D01*
X-28694Y59567D01*
X-28394Y59267D01*
X-27973Y58987D01*
X-27834Y58847D01*
D01*
X-27834D01*
Y58847D01*
D01*
X-27834D01*
Y58847D01*
X-27834D01*
X-27834Y58847D01*
Y58847D01*
X-27834Y58847D01*
Y58847D01*
X-27379Y58543D01*
X-26841Y58436D01*
X-15570D01*
X-15033Y58543D01*
X-14577Y58847D01*
X-10079Y63345D01*
X-1108D01*
X-1017Y63363D01*
X-274D01*
X-183Y63345D01*
X3018D01*
X14183Y52181D01*
X14639Y51876D01*
X15176Y51769D01*
X37241D01*
X37330Y51320D01*
X37809Y50604D01*
X38525Y50126D01*
X39370Y49958D01*
X40215Y50126D01*
X40418Y50261D01*
X44944Y45735D01*
X44971Y45597D01*
X45319Y45076D01*
X45840Y44728D01*
X46455Y44605D01*
X52742D01*
Y-1436D01*
X52139Y-1839D01*
X51660Y-2555D01*
X51492Y-3400D01*
X51660Y-4245D01*
X52139Y-4961D01*
X52855Y-5440D01*
X53700Y-5608D01*
X54525Y-5444D01*
X54912Y-5761D01*
Y-59421D01*
X51978D01*
X51440Y-59528D01*
X50985Y-59833D01*
X45696Y-65121D01*
X25962D01*
X25830Y-64960D01*
X25662Y-64116D01*
X25183Y-63399D01*
X24467Y-62921D01*
X23622Y-62753D01*
X22777Y-62921D01*
X22061Y-63399D01*
X21582Y-64116D01*
X21414Y-64960D01*
X21582Y-65805D01*
X22061Y-66522D01*
X22082Y-66536D01*
X21936Y-67014D01*
X19099D01*
X18738Y-66653D01*
X18657Y-66246D01*
X18178Y-65529D01*
X17462Y-65051D01*
X16617Y-64883D01*
X15772Y-65051D01*
X15056Y-65529D01*
X14578Y-66246D01*
X14409Y-67090D01*
X14578Y-67935D01*
X14622Y-68002D01*
X14268Y-68356D01*
X13962Y-68151D01*
X13117Y-67983D01*
X12272Y-68151D01*
X11556Y-68629D01*
X11078Y-69346D01*
X10909Y-70191D01*
X11078Y-71035D01*
X11556Y-71752D01*
X12272Y-72230D01*
X13113Y-72398D01*
X13113D01*
X13064Y-72895D01*
X3799D01*
X-1034Y-68062D01*
X-1489Y-67758D01*
X-2027Y-67651D01*
X-32400D01*
X-32938Y-67758D01*
X-33393Y-68062D01*
X-34493Y-69162D01*
X-34798Y-69618D01*
X-34905Y-70156D01*
Y-72169D01*
X-35061Y-72273D01*
X-35540Y-72990D01*
X-35708Y-73835D01*
X-35540Y-74679D01*
X-35061Y-75396D01*
X-34345Y-75874D01*
X-33500Y-76042D01*
X-32655Y-75874D01*
X-31939Y-75396D01*
X-31460Y-74679D01*
X-31292Y-73835D01*
X-31460Y-72990D01*
X-31939Y-72273D01*
X-32095Y-72169D01*
Y-70738D01*
X-31818Y-70461D01*
X-2609D01*
X2224Y-75293D01*
X2679Y-75598D01*
X3217Y-75705D01*
X21418D01*
X22529Y-76816D01*
X22492Y-77000D01*
X22660Y-77845D01*
X23139Y-78561D01*
X23855Y-79040D01*
X24700Y-79208D01*
X25545Y-79040D01*
X26261Y-78561D01*
X26740Y-77845D01*
X26908Y-77000D01*
X26740Y-76155D01*
X26261Y-75439D01*
X25545Y-74960D01*
X24700Y-74792D01*
X24516Y-74829D01*
X22994Y-73307D01*
X22538Y-73002D01*
X22000Y-72895D01*
X13171D01*
X13163Y-72821D01*
X13122Y-72398D01*
X13962Y-72230D01*
X14678Y-71752D01*
X14783Y-71596D01*
X25649D01*
X25885Y-72036D01*
X25836Y-72110D01*
X25668Y-72955D01*
X25836Y-73800D01*
X26315Y-74516D01*
X27031Y-74994D01*
X27876Y-75163D01*
X28721Y-74994D01*
X29437Y-74516D01*
X29541Y-74360D01*
X47010D01*
X47148Y-74840D01*
X44209Y-76668D01*
X39108Y-79394D01*
X33840Y-81781D01*
X28427Y-83819D01*
X26702Y-84342D01*
X25319D01*
X25183Y-84139D01*
X24467Y-83660D01*
X23622Y-83492D01*
X22777Y-83660D01*
X22061Y-84139D01*
X21582Y-84855D01*
X21414Y-85700D01*
X21582Y-86545D01*
X22061Y-87261D01*
X22488Y-87546D01*
X22398Y-88038D01*
X20297Y-88528D01*
X19905Y-88218D01*
Y-80993D01*
X19798Y-80456D01*
X19493Y-80000D01*
X18000Y-78507D01*
X17544Y-78202D01*
X17007Y-78095D01*
X5065D01*
X4961Y-77939D01*
X4245Y-77460D01*
X3400Y-77292D01*
X2555Y-77460D01*
X1839Y-77939D01*
X1735Y-78095D01*
X-2900D01*
X-3438Y-78202D01*
X-3893Y-78507D01*
X-6782Y-81395D01*
X-12139D01*
X-12340Y-81150D01*
Y-76266D01*
X-12184Y-76161D01*
X-11705Y-75445D01*
X-11537Y-74600D01*
X-11705Y-73755D01*
X-12184Y-73039D01*
X-12900Y-72560D01*
X-13745Y-72392D01*
X-14590Y-72560D01*
X-15306Y-73039D01*
X-15785Y-73755D01*
X-15953Y-74600D01*
X-15879Y-74971D01*
X-16232Y-75325D01*
X-16900Y-75192D01*
X-17745Y-75360D01*
X-18461Y-75839D01*
X-18940Y-76555D01*
X-19108Y-77400D01*
X-18940Y-78245D01*
X-18461Y-78961D01*
X-18305Y-79066D01*
Y-79776D01*
X-18783Y-79921D01*
X-19039Y-79539D01*
X-19755Y-79060D01*
X-20600Y-78892D01*
X-20708Y-78914D01*
X-21095Y-78597D01*
Y-77166D01*
X-20939Y-77061D01*
X-20460Y-76345D01*
X-20292Y-75500D01*
X-20460Y-74655D01*
X-20939Y-73939D01*
X-21655Y-73460D01*
X-22500Y-73292D01*
X-23345Y-73460D01*
X-24061Y-73939D01*
X-24540Y-74655D01*
X-24708Y-75500D01*
X-24540Y-76345D01*
X-24061Y-77061D01*
X-23905Y-77166D01*
Y-80000D01*
X-23905Y-80000D01*
X-23905D01*
X-23798Y-80538D01*
X-23494Y-80993D01*
X-23039Y-81448D01*
X-23184Y-81926D01*
X-23544Y-81998D01*
X-27380Y-80835D01*
X-32600Y-78870D01*
X-37680Y-76568D01*
X-42599Y-73939D01*
X-47335Y-70994D01*
X-51869Y-67745D01*
X-53713Y-66231D01*
Y-60890D01*
X-53272Y-60655D01*
X-53145Y-60740D01*
X-52300Y-60908D01*
X-51455Y-60740D01*
X-51396Y-60700D01*
X-51269D01*
X-51033Y-61141D01*
X-51109Y-61255D01*
X-51277Y-62100D01*
X-51109Y-62945D01*
X-50630Y-63661D01*
X-49914Y-64140D01*
X-49069Y-64308D01*
X-48224Y-64140D01*
X-47508Y-63661D01*
X-47030Y-62945D01*
X-46861Y-62100D01*
X-47030Y-61255D01*
X-47508Y-60539D01*
X-47928Y-60258D01*
Y-51917D01*
X-47772Y-51812D01*
X-47293Y-51096D01*
X-47125Y-50251D01*
X-47293Y-49406D01*
X-47772Y-48690D01*
X-48488Y-48212D01*
X-49333Y-48043D01*
X-50178Y-48212D01*
X-50654Y-48529D01*
X-50939Y-48377D01*
X-50964Y-47878D01*
X-50939Y-47861D01*
X-50460Y-47145D01*
X-50292Y-46300D01*
X-50460Y-45455D01*
X-50939Y-44739D01*
X-51655Y-44260D01*
X-52500Y-44092D01*
X-53345Y-44260D01*
X-54061Y-44739D01*
X-54540Y-45455D01*
X-54574Y-45625D01*
X-55052Y-45770D01*
X-55465Y-45357D01*
Y-34272D01*
X-55572Y-33734D01*
X-55877Y-33278D01*
X-59028Y-30127D01*
Y-10972D01*
X-57987Y-9931D01*
X-51957D01*
X-51345Y-10340D01*
X-50500Y-10508D01*
X-49655Y-10340D01*
X-48939Y-9861D01*
X-48460Y-9145D01*
X-48292Y-8300D01*
X-48460Y-7455D01*
X-48939Y-6739D01*
X-49655Y-6260D01*
X-50500Y-6092D01*
X-51345Y-6260D01*
X-52061Y-6739D01*
X-52316Y-7121D01*
X-58569D01*
X-59106Y-7228D01*
X-59562Y-7532D01*
X-60338Y-8308D01*
X-60800Y-8117D01*
Y4783D01*
X-60321Y4928D01*
X-60061Y4539D01*
X-59345Y4060D01*
X-58500Y3892D01*
X-57655Y4060D01*
X-56939Y4539D01*
X-56460Y5255D01*
X-56292Y6100D01*
X-56460Y6945D01*
X-56939Y7661D01*
X-57655Y8140D01*
X-58500Y8308D01*
X-58684Y8271D01*
X-59028Y8615D01*
Y54442D01*
X-59018Y54452D01*
X-52276D01*
X-51738Y54559D01*
X-51282Y54863D01*
X-46646Y59499D01*
X-46341Y59955D01*
X-46235Y60493D01*
Y64439D01*
X-45901Y64938D01*
X-45848Y64982D01*
X-45024Y64818D01*
X-44179Y64986D01*
X-43463Y65465D01*
X-42985Y66181D01*
X-42817Y67026D01*
X-42985Y67871D01*
X-43463Y68587D01*
X-44179Y69066D01*
X-44281Y69401D01*
X-44272Y69410D01*
X-43968Y69866D01*
X-43861Y70404D01*
Y72642D01*
X-43871Y72692D01*
Y74221D01*
X-43376Y74716D01*
X-36937D01*
Y74695D01*
X-36782Y74716D01*
X-35036D01*
Y74712D01*
X-35005Y74716D01*
X-34228D01*
X-33465Y74564D01*
X-32620Y74732D01*
X-31903Y75210D01*
X-31730Y75469D01*
X-31240Y75567D01*
X-30840Y75299D01*
X-30302Y75192D01*
X-20602D01*
X-20595Y75194D01*
X-20587Y75192D01*
X-20049Y75299D01*
X-19594Y75604D01*
X-19289Y76060D01*
X-19182Y76597D01*
Y89279D01*
X-11041D01*
X-10991Y87408D01*
X-10991Y87398D01*
Y87398D01*
D01*
D01*
X-10991Y87398D01*
X-10990Y87377D01*
X-10980Y87388D01*
X-10980D01*
X-10968Y87399D01*
X-10968D01*
Y88926D01*
X-10615Y89279D01*
X17378D01*
Y77340D01*
D02*
G37*
%LPC*%
G36*
X-32618Y-26193D02*
X-33463Y-26361D01*
X-34180Y-26840D01*
X-34658Y-27556D01*
X-34826Y-28401D01*
X-34658Y-29246D01*
X-34180Y-29962D01*
X-34023Y-30066D01*
Y-30913D01*
X-33916Y-31450D01*
X-33612Y-31906D01*
X-31925Y-33593D01*
X-31469Y-33898D01*
X-30931Y-34005D01*
X-22065D01*
X-21961Y-34161D01*
X-21245Y-34640D01*
X-20400Y-34808D01*
X-19555Y-34640D01*
X-18839Y-34161D01*
X-18360Y-33445D01*
X-18192Y-32600D01*
X-18360Y-31755D01*
X-18839Y-31039D01*
X-19555Y-30560D01*
X-20400Y-30392D01*
X-21245Y-30560D01*
X-21961Y-31039D01*
X-22065Y-31195D01*
X-30349D01*
X-31214Y-30331D01*
X-31057Y-29962D01*
X-31057Y-29962D01*
X-31057D01*
X-30892Y-29714D01*
X-30667Y-29564D01*
X-30363Y-29109D01*
X-30256Y-28571D01*
X-30363Y-28033D01*
X-30535Y-27776D01*
X-30579Y-27556D01*
X-31057Y-26840D01*
X-31773Y-26361D01*
X-32618Y-26193D01*
D02*
G37*
G36*
X2800Y-23892D02*
X1955Y-24060D01*
X1239Y-24539D01*
X1135Y-24695D01*
X-11700D01*
X-12238Y-24802D01*
X-12693Y-25106D01*
X-14302Y-26715D01*
X-14606Y-27171D01*
X-14713Y-27708D01*
Y-27961D01*
X-14869Y-28065D01*
X-15348Y-28781D01*
X-15516Y-29626D01*
X-15348Y-30471D01*
X-14869Y-31187D01*
X-14153Y-31666D01*
X-13308Y-31834D01*
X-12463Y-31666D01*
X-11747Y-31187D01*
X-11269Y-30471D01*
X-11101Y-29626D01*
X-11269Y-28781D01*
X-11719Y-28106D01*
X-11118Y-27505D01*
X1135D01*
X1239Y-27661D01*
X1955Y-28140D01*
X2800Y-28308D01*
X3645Y-28140D01*
X4361Y-27661D01*
X4840Y-26945D01*
X5008Y-26100D01*
X4840Y-25255D01*
X4361Y-24539D01*
X3645Y-24060D01*
X2800Y-23892D01*
D02*
G37*
G36*
X-9568Y15023D02*
X-10919Y14890D01*
X-12218Y14496D01*
X-13415Y13856D01*
X-14464Y12995D01*
X-15325Y11946D01*
X-15965Y10749D01*
X-16359Y9451D01*
X-16492Y8100D01*
X-16359Y6749D01*
X-15965Y5451D01*
X-15325Y4254D01*
X-14464Y3205D01*
X-13891Y2735D01*
X-14060Y2264D01*
X-16241D01*
X-16779Y2157D01*
X-17234Y1853D01*
X-18994Y93D01*
X-19298Y-363D01*
X-19405Y-900D01*
Y-6425D01*
X-19561Y-6529D01*
X-20040Y-7246D01*
X-20208Y-8091D01*
X-20040Y-8935D01*
X-19561Y-9652D01*
X-18845Y-10130D01*
X-18000Y-10298D01*
X-17155Y-10130D01*
X-16629Y-9778D01*
X-16188Y-10014D01*
Y-16951D01*
X-16188Y-16951D01*
X-16188D01*
X-16081Y-17489D01*
X-15776Y-17945D01*
X-14502Y-19219D01*
X-14046Y-19524D01*
X-13508Y-19631D01*
X6869D01*
X7186Y-20017D01*
X7184Y-20026D01*
X7352Y-20871D01*
X7831Y-21587D01*
X8547Y-22066D01*
X9392Y-22234D01*
X10237Y-22066D01*
X10953Y-21587D01*
X11432Y-20871D01*
X11599Y-20026D01*
X11432Y-19181D01*
X10953Y-18465D01*
X10237Y-17986D01*
X9392Y-17818D01*
X9207Y-17855D01*
X8585Y-17233D01*
X8129Y-16928D01*
X7592Y-16821D01*
X4056D01*
X3959Y-16331D01*
X5037Y-15884D01*
X6517Y-14977D01*
X7836Y-13850D01*
X8963Y-12531D01*
X9870Y-11052D01*
X10534Y-9448D01*
X10939Y-7761D01*
X11075Y-6032D01*
X10939Y-4302D01*
X10534Y-2615D01*
X9870Y-1011D01*
X8963Y468D01*
X7836Y1788D01*
X6517Y2914D01*
X5037Y3821D01*
X3434Y4485D01*
X1747Y4890D01*
X17Y5026D01*
X-1713Y4890D01*
X-3138Y4548D01*
X-3443Y4944D01*
X-3172Y5451D01*
X-2778Y6749D01*
X-2645Y8100D01*
X-2778Y9451D01*
X-3172Y10749D01*
X-3812Y11946D01*
X-4673Y12995D01*
X-5722Y13856D01*
X-6919Y14496D01*
X-8218Y14890D01*
X-9568Y15023D01*
D02*
G37*
G36*
X8200Y-22692D02*
X7355Y-22860D01*
X6639Y-23339D01*
X6160Y-24055D01*
X5992Y-24900D01*
X6160Y-25745D01*
X6639Y-26461D01*
X6795Y-26566D01*
Y-32218D01*
X6418Y-32595D01*
X2900D01*
X2362Y-32702D01*
X1907Y-33007D01*
X807Y-34106D01*
X502Y-34562D01*
X395Y-35100D01*
Y-37558D01*
X395Y-37558D01*
X395D01*
X405Y-37606D01*
X278Y-38243D01*
X446Y-39088D01*
X924Y-39804D01*
X1641Y-40283D01*
X2486Y-40451D01*
X3331Y-40283D01*
X4047Y-39804D01*
X4525Y-39088D01*
X4693Y-38243D01*
X4525Y-37398D01*
X4047Y-36682D01*
X3331Y-36204D01*
X3205Y-36179D01*
Y-35682D01*
X3482Y-35405D01*
X7000D01*
X7538Y-35298D01*
X7993Y-34993D01*
X7993Y-34993D01*
X7993Y-34993D01*
X9193Y-33794D01*
X9498Y-33338D01*
X9605Y-32800D01*
X9605Y-32800D01*
X9605Y-32800D01*
Y-32800D01*
Y-26566D01*
X9761Y-26461D01*
X10240Y-25745D01*
X10408Y-24900D01*
X10240Y-24055D01*
X9761Y-23339D01*
X9045Y-22860D01*
X8200Y-22692D01*
D02*
G37*
G36*
X700Y-55492D02*
X-145Y-55660D01*
X-861Y-56139D01*
X-1340Y-56855D01*
X-1508Y-57700D01*
X-1340Y-58545D01*
X-861Y-59261D01*
X-505Y-59499D01*
Y-62176D01*
X-724Y-62395D01*
X-36469D01*
X-36786Y-62009D01*
X-36685Y-61500D01*
X-36853Y-60655D01*
X-37332Y-59939D01*
X-38048Y-59460D01*
X-38893Y-59292D01*
X-39737Y-59460D01*
X-40454Y-59939D01*
X-40932Y-60655D01*
X-41100Y-61500D01*
X-40932Y-62345D01*
X-40454Y-63061D01*
X-40080Y-63311D01*
X-39886Y-63601D01*
X-38702Y-64785D01*
X-38695Y-64795D01*
X-38693Y-64793D01*
X-38693Y-64793D01*
X-38238Y-65098D01*
X-37700Y-65205D01*
X-142D01*
X396Y-65098D01*
X852Y-64793D01*
X852Y-64793D01*
X852Y-64793D01*
X1893Y-63752D01*
X2198Y-63296D01*
X2305Y-62758D01*
X2305Y-62758D01*
X2305Y-62758D01*
Y-62758D01*
Y-59306D01*
X37034D01*
X37339Y-59761D01*
X38055Y-60240D01*
X38900Y-60408D01*
X39745Y-60240D01*
X40461Y-59761D01*
X40940Y-59045D01*
X41108Y-58200D01*
X40940Y-57355D01*
X40461Y-56639D01*
X39745Y-56160D01*
X38900Y-55992D01*
X38387Y-56094D01*
X2211D01*
X2167Y-56076D01*
X1545Y-55660D01*
X700Y-55492D01*
D02*
G37*
G36*
X-25739Y-48221D02*
X-26584Y-48389D01*
X-27301Y-48867D01*
X-27779Y-49584D01*
X-27947Y-50428D01*
X-27779Y-51273D01*
X-27301Y-51990D01*
X-27144Y-52094D01*
Y-55560D01*
X-27144Y-55561D01*
X-27144D01*
X-27038Y-56098D01*
X-26733Y-56554D01*
X-24093Y-59193D01*
X-23638Y-59498D01*
X-23100Y-59605D01*
X-11399D01*
X-11161Y-59961D01*
X-10445Y-60440D01*
X-9600Y-60608D01*
X-8755Y-60440D01*
X-8039Y-59961D01*
X-7560Y-59245D01*
X-7392Y-58400D01*
X-7560Y-57555D01*
X-8039Y-56839D01*
X-8755Y-56360D01*
X-9600Y-56192D01*
X-10445Y-56360D01*
X-11096Y-56795D01*
X-22518D01*
X-24335Y-54979D01*
Y-52094D01*
X-24178Y-51990D01*
X-23700Y-51273D01*
X-23532Y-50428D01*
X-23700Y-49584D01*
X-24178Y-48867D01*
X-24895Y-48389D01*
X-25739Y-48221D01*
D02*
G37*
G36*
X8092Y-37292D02*
X7247Y-37460D01*
X6531Y-37939D01*
X6052Y-38655D01*
X5884Y-39500D01*
X6052Y-40345D01*
X6531Y-41061D01*
X5883Y-42030D01*
X4118Y-43795D01*
X-13135D01*
X-13239Y-43639D01*
X-13955Y-43160D01*
X-14800Y-42992D01*
X-15645Y-43160D01*
X-16361Y-43639D01*
X-16840Y-44355D01*
X-17008Y-45200D01*
X-16840Y-46045D01*
X-16361Y-46761D01*
X-15645Y-47240D01*
X-14800Y-47408D01*
X-13955Y-47240D01*
X-13239Y-46761D01*
X-13135Y-46605D01*
X4700D01*
X5238Y-46498D01*
X5693Y-46194D01*
X9085Y-42802D01*
X9390Y-42346D01*
X9497Y-41808D01*
Y-41166D01*
X9653Y-41061D01*
X10131Y-40345D01*
X10300Y-39500D01*
X10131Y-38655D01*
X9653Y-37939D01*
X8937Y-37460D01*
X8092Y-37292D01*
D02*
G37*
G36*
X42340Y38625D02*
X41495Y38457D01*
X40779Y37978D01*
X40300Y37262D01*
X40132Y36417D01*
X40249Y35829D01*
X39335Y34914D01*
X33644D01*
X33408Y35355D01*
X33553Y35572D01*
X33721Y36417D01*
X33553Y37262D01*
X33074Y37978D01*
X32358Y38457D01*
X31513Y38625D01*
X30668Y38457D01*
X29952Y37978D01*
X29791Y37738D01*
X29680Y37715D01*
X29224Y37411D01*
X28452Y36639D01*
X28148Y36183D01*
X28041Y35646D01*
Y483D01*
X26776Y-782D01*
X26592Y-745D01*
X25747Y-913D01*
X25031Y-1392D01*
X24552Y-2108D01*
X24384Y-2953D01*
X24552Y-3798D01*
X24851Y-4245D01*
X24615Y-4686D01*
X21183D01*
X21078Y-4529D01*
X20362Y-4051D01*
X19517Y-3883D01*
X18672Y-4051D01*
X17956Y-4529D01*
X17478Y-5246D01*
X17309Y-6091D01*
X17478Y-6935D01*
X17956Y-7652D01*
X18672Y-8130D01*
X19517Y-8298D01*
X20362Y-8130D01*
X21078Y-7652D01*
X21183Y-7496D01*
X25817D01*
X26355Y-7389D01*
X26811Y-7084D01*
X27879Y-6016D01*
X28184Y-5560D01*
X28291Y-5022D01*
Y-4308D01*
X28592Y-3857D01*
X29092D01*
X29556Y-4552D01*
X30272Y-5030D01*
X31117Y-5198D01*
X31962Y-5030D01*
X32678Y-4552D01*
X33157Y-3835D01*
X33325Y-2991D01*
X33165Y-2185D01*
X33482Y-1799D01*
X37958D01*
X38052Y-2271D01*
X38531Y-2987D01*
X39247Y-3466D01*
X40092Y-3634D01*
X40937Y-3466D01*
X41653Y-2987D01*
X42132Y-2271D01*
X42300Y-1426D01*
X42132Y-581D01*
X41653Y135D01*
X40937Y614D01*
X40475Y706D01*
X40178Y904D01*
X39640Y1011D01*
X32899D01*
X32622Y1288D01*
Y31328D01*
X33399Y32105D01*
X39917D01*
X40455Y32212D01*
X40911Y32516D01*
X40911Y32516D01*
X40911Y32516D01*
X42670Y34275D01*
X43185Y34378D01*
X43901Y34856D01*
X44380Y35572D01*
X44548Y36417D01*
X44380Y37262D01*
X43901Y37978D01*
X43185Y38457D01*
X42340Y38625D01*
D02*
G37*
G36*
X17139Y44371D02*
X16008Y44222D01*
X14955Y43786D01*
X14050Y43092D01*
X13356Y42187D01*
X12920Y41134D01*
X12826Y40421D01*
X12334Y40332D01*
X11818Y41297D01*
X11080Y42196D01*
X10181Y42934D01*
X9155Y43482D01*
X8042Y43820D01*
X6884Y43934D01*
X4916D01*
X3758Y43820D01*
X2645Y43482D01*
X1619Y42934D01*
X720Y42196D01*
X-18Y41297D01*
X-567Y40271D01*
X-904Y39158D01*
X-1018Y38000D01*
X-904Y36842D01*
X-567Y35729D01*
X-18Y34703D01*
X720Y33804D01*
X1095Y33496D01*
X1105Y33415D01*
X1456Y32569D01*
X1601Y32218D01*
X2390Y31190D01*
X5246Y28334D01*
Y12050D01*
X5416Y10766D01*
X5912Y9568D01*
X6700Y8540D01*
X9408Y5833D01*
X9433Y5751D01*
X10073Y4554D01*
X10934Y3505D01*
X11041Y3417D01*
X11090Y3352D01*
X11527Y3017D01*
X11536Y3010D01*
X11983Y2644D01*
X12085Y2589D01*
X12118Y2564D01*
X12182Y2537D01*
X13180Y2004D01*
X13195Y1999D01*
Y-16300D01*
X13195Y-16300D01*
X13195D01*
X13302Y-16838D01*
X13607Y-17293D01*
X14207Y-17894D01*
X14662Y-18198D01*
X15200Y-18305D01*
X15435D01*
X15539Y-18461D01*
X16255Y-18940D01*
X17100Y-19108D01*
X17945Y-18940D01*
X18661Y-18461D01*
X19140Y-17745D01*
X19308Y-16900D01*
X19140Y-16055D01*
X18661Y-15339D01*
X17945Y-14860D01*
X17100Y-14692D01*
X16391Y-14833D01*
X16005Y-14516D01*
Y1494D01*
X17180Y1610D01*
X18478Y2004D01*
X19675Y2644D01*
X20724Y3505D01*
X21585Y4554D01*
X22225Y5751D01*
X22619Y7049D01*
X22725Y8125D01*
X22761Y8400D01*
X22725Y8675D01*
X22619Y9751D01*
X22225Y11049D01*
X21585Y12246D01*
X20724Y13295D01*
X19675Y14156D01*
X18478Y14796D01*
X17180Y15190D01*
X15829Y15323D01*
X15544Y15295D01*
X15299Y15518D01*
X15368Y16013D01*
X15611Y16132D01*
X16329Y15835D01*
X17100Y15733D01*
X17871Y15835D01*
X18589Y16132D01*
X19206Y16605D01*
X19679Y17222D01*
X19977Y17941D01*
X20078Y18711D01*
X19977Y19482D01*
X19679Y20201D01*
X19206Y20817D01*
X18589Y21291D01*
X17871Y21588D01*
X17100Y21690D01*
X16329Y21588D01*
X15611Y21291D01*
X15174Y21506D01*
Y28838D01*
X15894Y29558D01*
X15979Y29523D01*
X16749Y29422D01*
X17520Y29523D01*
X18239Y29821D01*
X18855Y30294D01*
X19329Y30911D01*
X19626Y31629D01*
X19728Y32400D01*
X19626Y33171D01*
X19329Y33889D01*
X18855Y34506D01*
X18239Y34979D01*
X17664Y35217D01*
X17730Y35713D01*
X18270Y35784D01*
X19323Y36220D01*
X20228Y36914D01*
X20922Y37819D01*
X21358Y38873D01*
X21507Y40003D01*
X21358Y41134D01*
X20922Y42187D01*
X20228Y43092D01*
X19323Y43786D01*
X18270Y44222D01*
X17139Y44371D01*
D02*
G37*
G36*
X50292Y77995D02*
X49447Y77827D01*
X48731Y77349D01*
X48252Y76632D01*
X48084Y75787D01*
X48252Y74942D01*
X48731Y74226D01*
X49447Y73748D01*
X50292Y73580D01*
X51137Y73748D01*
X51853Y74226D01*
X52332Y74942D01*
X52500Y75787D01*
X52332Y76632D01*
X51853Y77349D01*
X51137Y77827D01*
X50292Y77995D01*
D02*
G37*
G36*
X-18194Y45165D02*
X-19530Y44989D01*
X-20775Y44474D01*
X-21844Y43653D01*
X-22665Y42584D01*
X-23180Y41339D01*
X-23356Y40003D01*
X-23180Y38667D01*
X-22665Y37422D01*
X-21844Y36353D01*
X-20775Y35532D01*
X-19530Y35017D01*
X-18194Y34841D01*
X-16858Y35017D01*
X-15613Y35532D01*
X-14544Y36353D01*
X-13723Y37422D01*
X-13208Y38667D01*
X-13032Y40003D01*
X-13208Y41339D01*
X-13723Y42584D01*
X-14544Y43653D01*
X-15613Y44474D01*
X-16858Y44989D01*
X-18194Y45165D01*
D02*
G37*
G36*
X-36400Y37641D02*
X-37245Y37473D01*
X-37961Y36994D01*
X-38440Y36278D01*
X-38608Y35433D01*
X-38440Y34588D01*
X-37961Y33872D01*
X-37805Y33768D01*
Y32200D01*
X-37805Y32200D01*
X-37805D01*
X-37698Y31662D01*
X-37394Y31207D01*
X-36694Y30507D01*
X-36238Y30202D01*
X-35700Y30095D01*
X-27305D01*
Y-1100D01*
X-27305Y-1100D01*
X-27305D01*
X-27198Y-1638D01*
X-26893Y-2093D01*
X-25374Y-3613D01*
X-25519Y-4092D01*
X-25645Y-4117D01*
X-26361Y-4596D01*
X-26840Y-5312D01*
X-27008Y-6157D01*
X-26840Y-7002D01*
X-26361Y-7718D01*
X-25645Y-8196D01*
X-25305Y-8264D01*
Y-13200D01*
X-25198Y-13738D01*
X-24893Y-14194D01*
X-24893Y-14194D01*
X-24897Y-14197D01*
X-24867Y-14220D01*
X-23882Y-15205D01*
X-23882Y-15205D01*
D01*
X-23564Y-15523D01*
X-23144Y-16152D01*
X-22428Y-16630D01*
X-21583Y-16798D01*
X-20738Y-16630D01*
X-20022Y-16152D01*
X-19543Y-15435D01*
X-19375Y-14591D01*
X-19543Y-13746D01*
X-20022Y-13029D01*
X-20738Y-12551D01*
X-21583Y-12383D01*
X-22057Y-12477D01*
X-22068Y-12429D01*
X-22108Y-12437D01*
X-22495Y-12120D01*
Y-3100D01*
X-22602Y-2562D01*
X-22907Y-2107D01*
X-24495Y-518D01*
Y31200D01*
X-24602Y31738D01*
X-24906Y32193D01*
X-25207Y32493D01*
X-25662Y32798D01*
X-26200Y32905D01*
X-34995D01*
Y33699D01*
X-34985Y33714D01*
X-34971Y33784D01*
X-34839Y33872D01*
X-34360Y34588D01*
X-34192Y35433D01*
X-34360Y36278D01*
X-34839Y36994D01*
X-35555Y37473D01*
X-36400Y37641D01*
D02*
G37*
G36*
X34466Y-4682D02*
X33621Y-4850D01*
X32905Y-5329D01*
X32426Y-6045D01*
X32258Y-6890D01*
X32295Y-7074D01*
X30124Y-9245D01*
X29956Y-9495D01*
X29829Y-9686D01*
X23289D01*
X22751Y-9792D01*
X22295Y-10097D01*
X21624Y-10769D01*
X21319Y-11225D01*
X21212Y-11762D01*
Y-21486D01*
X15478D01*
X14940Y-21592D01*
X14484Y-21897D01*
X12516Y-23866D01*
X12211Y-24321D01*
X12104Y-24859D01*
Y-41403D01*
X11751Y-41639D01*
X11273Y-42355D01*
X11105Y-43200D01*
X11273Y-44045D01*
X11751Y-44761D01*
X12468Y-45240D01*
X13313Y-45408D01*
X14157Y-45240D01*
X14874Y-44761D01*
X15352Y-44045D01*
X15520Y-43200D01*
X15352Y-42355D01*
X14914Y-41700D01*
Y-25441D01*
X16060Y-24295D01*
X21917D01*
X22455Y-24189D01*
X22911Y-23884D01*
X22911Y-23884D01*
X22911Y-23884D01*
X23611Y-23184D01*
X23915Y-22728D01*
X24022Y-22191D01*
X24022Y-22191D01*
X24022Y-22190D01*
Y-22190D01*
Y-12495D01*
X30417D01*
X30955Y-12388D01*
X31411Y-12084D01*
X31411Y-12084D01*
X31411Y-12084D01*
X32111Y-11384D01*
X32415Y-10928D01*
X32415Y-10927D01*
X34282Y-9061D01*
X34466Y-9098D01*
X35311Y-8929D01*
X36027Y-8451D01*
X36506Y-7735D01*
X36674Y-6890D01*
X36506Y-6045D01*
X36027Y-5329D01*
X35311Y-4850D01*
X34466Y-4682D01*
D02*
G37*
G36*
X-47227Y37641D02*
X-48072Y37473D01*
X-48788Y36994D01*
X-49267Y36278D01*
X-49435Y35433D01*
X-49267Y34588D01*
X-48788Y33872D01*
X-48632Y33768D01*
Y19054D01*
X-48632Y19053D01*
X-48632D01*
X-48525Y18516D01*
X-48220Y18060D01*
X-47376Y17216D01*
X-46920Y16911D01*
X-46383Y16804D01*
X-38165D01*
X-37288Y15927D01*
Y-3097D01*
X-37444Y-3201D01*
X-37922Y-3917D01*
X-38091Y-4762D01*
X-37922Y-5607D01*
X-37444Y-6323D01*
X-36728Y-6802D01*
X-35883Y-6970D01*
X-35038Y-6802D01*
X-34322Y-6323D01*
X-33843Y-5607D01*
X-33675Y-4762D01*
X-33843Y-3917D01*
X-34322Y-3201D01*
X-34478Y-3097D01*
Y16510D01*
X-34585Y17047D01*
X-34889Y17503D01*
X-36589Y19203D01*
X-37045Y19508D01*
X-37583Y19614D01*
X-45801D01*
X-45822Y19636D01*
Y33768D01*
X-45666Y33872D01*
X-45187Y34588D01*
X-45019Y35433D01*
X-45187Y36278D01*
X-45666Y36994D01*
X-46382Y37473D01*
X-47227Y37641D01*
D02*
G37*
%LPD*%
D10*
X-65929Y-69918D02*
G03*
X65377Y-70528I65975J69048D01*
G01*
X19637Y-90139D02*
G03*
X62720Y-67621I-19620J90013D01*
G01*
X-55131Y-66914D02*
G03*
X-20049Y-84384I55148J66788D01*
G01*
X-56786Y-68099D02*
G03*
X-20696Y-86253I56803J67973D01*
G01*
X-59429Y-70506D02*
G03*
X-17802Y-90512I59446J70380D01*
G01*
X-62506Y-70444D02*
G03*
X64561Y-68594I62523J70318D01*
G01*
X26972Y-85747D02*
G03*
X57507Y-69064I-26955J85621D01*
G01*
X17841Y-76941D02*
G03*
X17043Y-77354I0J-977D01*
G01*
X17080Y-76504D02*
G03*
X17841Y-76941I760J443D01*
G01*
X14400D02*
G03*
X15843Y-76343I0J2041D01*
G01*
X15843Y-77457D02*
G03*
X14598Y-76941I-1245J-1245D01*
G01*
X37500Y-78270D02*
G03*
X37016Y-77280I-1254J0D01*
G01*
X37984D02*
G03*
X37500Y-78270I770J-989D01*
G01*
X-57439Y-62802D02*
G03*
X-56937Y-64663I1868J-495D01*
G01*
X-8599Y-79600D02*
G03*
X-9943Y-80157I0J-1901D01*
G01*
Y-79043D02*
G03*
X-8599Y-79600I1344J1344D01*
G01*
X-14783Y-4125D02*
G03*
X-15557Y-2257I-2642J0D01*
G01*
X-14443D02*
G03*
X-14783Y-3077I820J-820D01*
G01*
X-14983Y-3642D02*
G03*
X-15557Y-2257I-1960J0D01*
G01*
X-14443D02*
G03*
X-14983Y-3559I1303J-1303D01*
G01*
X31217Y-1331D02*
G03*
X31674Y-2434I1560J0D01*
G01*
X30560Y-2434D02*
G03*
X31217Y-848I-1586J1586D01*
G01*
X17917Y-9790D02*
G03*
X18474Y-11134I1901J0D01*
G01*
X17360D02*
G03*
X17917Y-9790I-1344J1344D01*
G01*
Y-10903D02*
G03*
X20456Y-9851I0J3591D01*
G01*
X17917Y-11691D02*
G03*
X19112Y-11196I0J1690D01*
G01*
X-23900Y-13200D02*
G03*
X-21755Y-13822I1638J1638D01*
G01*
X-22888Y-14212D02*
G03*
X-21583Y-14591I997J997D01*
G01*
X30217Y36417D02*
G03*
X30814Y36780I0J673D01*
G01*
Y36055D02*
G03*
X30217Y36417I-597J-310D01*
G01*
X18517Y-68419D02*
G03*
X16756Y-67866I-1410J-1410D01*
G01*
X-49169Y70238D02*
G03*
X-48612Y71582I-1344J1344D01*
G01*
X-47825Y70794D02*
G03*
X-49169Y70238I0J-1901D01*
G01*
X-50197Y76498D02*
G03*
X-50541Y77047I-611J0D01*
G01*
X-49853D02*
G03*
X-50197Y76498I267J-550D01*
G01*
X-52029Y74666D02*
G03*
X-50979Y77667I-2589J2589D01*
G01*
X-50873Y75822D02*
G03*
X-50197Y77756I-1669J1669D01*
G01*
X-36937Y76121D02*
G03*
X-34021Y77328I0J4124D01*
G01*
X-35036Y76121D02*
G03*
X-33465Y76772I0J2223D01*
G01*
X24192Y-65504D02*
G03*
X24203Y-66526I529J-505D01*
G01*
X44998Y63103D02*
G03*
X43307Y63804I-1691J-1691D01*
G01*
X44094Y64591D02*
G03*
X44508Y63594I1410J0D01*
G01*
X50049Y61951D02*
G03*
X48228Y62705I-1821J-1821D01*
G01*
X49016Y63492D02*
G03*
X49375Y62625I1227J0D01*
G01*
X-65945Y-69858D02*
G03*
X-66502Y-68514I-1901J0D01*
G01*
X-65388D02*
G03*
X-65945Y-69858I1344J-1344D01*
G01*
X-59802Y-51939D02*
G03*
X-60359Y-50595I-1901J0D01*
G01*
X-59245D02*
G03*
X-59802Y-51939I1344J-1344D01*
G01*
X-61024Y-50039D02*
G03*
X-60519Y-49713I0J554D01*
G01*
Y-50364D02*
G03*
X-61024Y-50039I-505J-229D01*
G01*
X-62205Y-48858D02*
G03*
X-60086Y-49304I1402J1402D01*
G01*
X-61350Y-49712D02*
G03*
X-59802Y-50039I1025J1025D01*
G01*
X-59802Y-56849D02*
G03*
X-60238Y-58016I1062J-1062D01*
G01*
X-60969Y-57285D02*
G03*
X-59802Y-56849I105J1499D01*
G01*
X-59429Y-37334D02*
G03*
X-59986Y-35990I-1901J0D01*
G01*
X-58872D02*
G03*
X-59429Y-37334I1344J-1344D01*
G01*
X-52500Y-48201D02*
G03*
X-53057Y-46857I-1901J0D01*
G01*
X-51943D02*
G03*
X-52500Y-48201I1344J-1344D01*
G01*
Y-56316D02*
G03*
X-51743Y-58143I2584J0D01*
G01*
X-52857Y-58143D02*
G03*
X-52500Y-57282I-861J861D01*
G01*
X-19695Y-87100D02*
G03*
X-20179Y-87416I0J-529D01*
G01*
Y-86784D02*
G03*
X-19695Y-87100I484J213D01*
G01*
X-21580Y-87497D02*
G03*
X-24551Y-85239I-4211J-2457D01*
G01*
X-20900Y-87100D02*
G03*
X-22712Y-85723I-2569J-1499D01*
G01*
X-22500Y-80000D02*
G03*
X-20870Y-80360I1097J1097D01*
G01*
X-38152Y-61768D02*
G03*
X-37700Y-63800I1824J-660D01*
G01*
X-38893Y-61500D02*
G03*
X-38576Y-62924I1278J-463D01*
G01*
X54758Y-71263D02*
G03*
X56217Y-68613I-2469J3087D01*
G01*
X56243Y-70076D02*
G03*
X57000Y-68700I-1282J1602D01*
G01*
X11717Y32183D02*
G03*
X7587Y33527I-3386J-3386D01*
G01*
X10623Y33277D02*
G03*
X7465Y34305I-2589J-2589D01*
G01*
X11004Y36123D02*
G03*
X11717Y32183I3196J-1456D01*
G01*
X10288Y36449D02*
G03*
X10914Y32986I2810J-1280D01*
G01*
X9571Y36776D02*
G03*
X10112Y33788I2424J-1104D01*
G01*
X17841Y-76941D02*
G03*
X17043Y-77354I0J-977D01*
G01*
X17080Y-76504D02*
G03*
X17841Y-76941I760J443D01*
G01*
X14400D02*
G03*
X15843Y-76343I0J2041D01*
G01*
X15843Y-77457D02*
G03*
X14598Y-76941I-1245J-1245D01*
G01*
X37500Y-78270D02*
G03*
X37016Y-77280I-1254J0D01*
G01*
X37984D02*
G03*
X37500Y-78270I770J-989D01*
G01*
X-57439Y-62802D02*
G03*
X-56937Y-64663I1868J-495D01*
G01*
X-8599Y-79600D02*
G03*
X-9943Y-80157I0J-1901D01*
G01*
Y-79043D02*
G03*
X-8599Y-79600I1344J1344D01*
G01*
X-12893Y859D02*
G03*
X-11634Y361I1204J1204D01*
G01*
X-12395Y-400D02*
G03*
X-12893Y859I-1702J55D01*
G01*
X-14783Y-4125D02*
G03*
X-15557Y-2257I-2642J0D01*
G01*
X-14443D02*
G03*
X-14783Y-3077I820J-820D01*
G01*
X-14983Y-3642D02*
G03*
X-15557Y-2257I-1960J0D01*
G01*
X-14443D02*
G03*
X-14983Y-3559I1303J-1303D01*
G01*
X31217Y-1331D02*
G03*
X31674Y-2434I1560J0D01*
G01*
X30560Y-2434D02*
G03*
X31217Y-848I-1586J1586D01*
G01*
X-29400Y66100D02*
G03*
X-30002Y65735I0J-679D01*
G01*
Y66465D02*
G03*
X-29400Y66100I602J315D01*
G01*
X17917Y-9790D02*
G03*
X18474Y-11134I1901J0D01*
G01*
X17360D02*
G03*
X17917Y-9790I-1344J1344D01*
G01*
X19324Y-10526D02*
G03*
X17917Y-11691I568J-2118D01*
G01*
Y-10903D02*
G03*
X20456Y-9851I0J3591D01*
G01*
X17917Y-11691D02*
G03*
X19112Y-11196I0J1690D01*
G01*
X18705Y-11691D02*
G03*
X19792Y-14316I3713J0D01*
G01*
X17917Y-11691D02*
G03*
X18448Y-12972I1812J0D01*
G01*
X-23900Y-13200D02*
G03*
X-21755Y-13822I1638J1638D01*
G01*
X-22888Y-14212D02*
G03*
X-21583Y-14591I997J997D01*
G01*
X30217Y36417D02*
G03*
X30814Y36780I0J673D01*
G01*
Y36055D02*
G03*
X30217Y36417I-597J-310D01*
G01*
X204Y70615D02*
G03*
X-295Y69410I1206J-1206D01*
G01*
X-1083Y70197D02*
G03*
X400Y70811I0J2096D01*
G01*
X3952Y69410D02*
G03*
X3306Y69029I0J-738D01*
G01*
Y69790D02*
G03*
X3952Y69410I646J357D01*
G01*
X18517Y-68419D02*
G03*
X16756Y-67866I-1410J-1410D01*
G01*
X-23691Y62743D02*
G03*
X-22187Y61800I1504J728D01*
G01*
X-22787Y62400D02*
G03*
X-23779Y61916I0J-1257D01*
G01*
Y62884D02*
G03*
X-22787Y62400I992J773D01*
G01*
X-23100Y61800D02*
G03*
X-23870Y61818I-394J-394D01*
G01*
X-23701Y62762D02*
G03*
X-22296Y61908I1405J729D01*
G01*
X-49169Y70238D02*
G03*
X-48612Y71582I-1344J1344D01*
G01*
X-47825Y70794D02*
G03*
X-49169Y70238I0J-1901D01*
G01*
X-50197Y77756D02*
G03*
X-51222Y76053I1543J-2089D01*
G01*
X-50378Y76548D02*
G03*
X-50625Y77095I-548J82D01*
G01*
X-49982Y76998D02*
G03*
X-50378Y76548I151J-533D01*
G01*
X-50197Y76498D02*
G03*
X-50541Y77047I-611J0D01*
G01*
X-49853D02*
G03*
X-50197Y76498I267J-550D01*
G01*
X-52029Y74666D02*
G03*
X-50979Y77667I-2589J2589D01*
G01*
X-50873Y75822D02*
G03*
X-50197Y77756I-1669J1669D01*
G01*
X-34053Y76249D02*
G03*
X-35490Y76481I-861J-765D01*
G01*
X-33465Y76772D02*
G03*
X-34653Y76964I-712J-633D01*
G01*
X-36937Y76121D02*
G03*
X-34021Y77328I0J4124D01*
G01*
X-35036Y76121D02*
G03*
X-33465Y76772I0J2223D01*
G01*
X24192Y-65504D02*
G03*
X24203Y-66526I529J-505D01*
G01*
X43307Y64591D02*
G03*
X44420Y63506I1524J449D01*
G01*
X44998Y63103D02*
G03*
X43307Y63804I-1691J-1691D01*
G01*
X44094Y64591D02*
G03*
X44508Y63594I1410J0D01*
G01*
X48228Y63492D02*
G03*
X49386Y62395I1591J518D01*
G01*
X50049Y61951D02*
G03*
X48228Y62705I-1821J-1821D01*
G01*
X49016Y63492D02*
G03*
X49375Y62625I1227J0D01*
G01*
X-65945Y-69858D02*
G03*
X-66502Y-68514I-1901J0D01*
G01*
X-65388D02*
G03*
X-65945Y-69858I1344J-1344D01*
G01*
X-59802Y-51939D02*
G03*
X-60359Y-50595I-1901J0D01*
G01*
X-59245D02*
G03*
X-59802Y-51939I1344J-1344D01*
G01*
Y-50039D02*
G03*
X-60978Y-49401I-1050J-533D01*
G01*
X-61024Y-50039D02*
G03*
X-60519Y-49713I0J554D01*
G01*
Y-50364D02*
G03*
X-61024Y-50039I-505J-229D01*
G01*
X-62205Y-48858D02*
G03*
X-60086Y-49304I1402J1402D01*
G01*
X-61350Y-49712D02*
G03*
X-59802Y-50039I1025J1025D01*
G01*
X-59802Y-56849D02*
G03*
X-60238Y-58016I1062J-1062D01*
G01*
X-60969Y-57285D02*
G03*
X-59802Y-56849I105J1499D01*
G01*
X-59429Y-37334D02*
G03*
X-59986Y-35990I-1901J0D01*
G01*
X-58872D02*
G03*
X-59429Y-37334I1344J-1344D01*
G01*
X-52500Y-48201D02*
G03*
X-53057Y-46857I-1901J0D01*
G01*
X-51943D02*
G03*
X-52500Y-48201I1344J-1344D01*
G01*
Y-56316D02*
G03*
X-51743Y-58143I2584J0D01*
G01*
X-52857Y-58143D02*
G03*
X-52500Y-57282I-861J861D01*
G01*
X-23368Y-85726D02*
G03*
X-21098Y-86338I1673J1688D01*
G01*
X-22385Y-86700D02*
G03*
X-20900Y-87100I1094J1104D01*
G01*
X-19695D02*
G03*
X-20179Y-87416I0J-529D01*
G01*
Y-86784D02*
G03*
X-19695Y-87100I484J213D01*
G01*
X-21580Y-87497D02*
G03*
X-24551Y-85239I-4211J-2457D01*
G01*
X-20900Y-87100D02*
G03*
X-22712Y-85723I-2569J-1499D01*
G01*
X-22500Y-80000D02*
G03*
X-20870Y-80360I1097J1097D01*
G01*
X-38269Y-63127D02*
G03*
X-38893Y-61500I-1988J171D01*
G01*
X-38152Y-61768D02*
G03*
X-37700Y-63800I1824J-660D01*
G01*
X-38893Y-61500D02*
G03*
X-38576Y-62924I1278J-463D01*
G01*
X57000Y-68700D02*
G03*
X55742Y-69830I494J-1815D01*
G01*
X54758Y-71263D02*
G03*
X56217Y-68613I-2469J3087D01*
G01*
X56243Y-70076D02*
G03*
X57000Y-68700I-1282J1602D01*
G01*
X-32618Y-30913D02*
Y-28401D01*
Y-30913D02*
X-30931Y-32600D01*
X-20400D01*
X-59600Y55857D02*
X-52276D01*
X-60433Y55024D02*
X-59600Y55857D01*
X-52276D02*
X-47640Y60493D01*
X-60433Y8033D02*
Y55024D01*
X-61000Y57628D02*
X-53009D01*
X-62205Y56424D02*
X-61000Y57628D01*
X-53009D02*
X-49411Y61227D01*
X-62205Y-48858D02*
Y56424D01*
X-53743Y59400D02*
X-51183Y61961D01*
X-62600Y59400D02*
X-53743D01*
X-63976Y58024D02*
X-62600Y59400D01*
X-63976Y-50197D02*
Y58024D01*
X-60433Y8033D02*
X-58500Y6100D01*
X-47640Y60493D02*
Y65524D01*
X-46138Y67026D01*
X-45024D01*
X-49333Y-61836D02*
Y-50251D01*
Y-61836D02*
X-49069Y-62100D01*
X56400Y-69200D02*
Y-68700D01*
X600Y-57700D02*
X900Y-58000D01*
Y-62758D02*
Y-58000D01*
X-142Y-63800D02*
X900Y-62758D01*
X-37700Y-63800D02*
X-142D01*
X-38893Y-62607D02*
X-37700Y-63800D01*
X-38893Y-62607D02*
Y-61500D01*
X-52500Y-58500D02*
X-52300Y-58700D01*
X-52500Y-58500D02*
Y-46300D01*
X-23100Y-58200D02*
X-9500D01*
X-25739Y-55561D02*
X-23100Y-58200D01*
X-25739Y-55561D02*
Y-50428D01*
X-25368Y-50800D01*
X-60433Y-30709D02*
X-56870Y-34272D01*
X-60433Y-30709D02*
Y-10391D01*
X-58569Y-8526D01*
X-57480Y-48228D02*
X-57243D01*
X-64173Y-61024D02*
Y-56299D01*
Y-61186D02*
Y-61024D01*
Y-61186D02*
X-59429Y-65930D01*
X37377Y62032D02*
X43161D01*
X36417Y62992D02*
X37377Y62032D01*
X-61024Y-58071D02*
X-59802Y-56849D01*
Y-50039D01*
X-63976Y-50197D02*
X-62313Y-51861D01*
Y-54439D02*
Y-51861D01*
X-64173Y-56299D02*
X-62313Y-54439D01*
X-65945Y-63351D02*
Y-52300D01*
Y-63351D02*
X-62506Y-66790D01*
X-65945Y-52300D02*
X-64883Y-53362D01*
X-65945Y-52300D02*
Y68144D01*
X-61024Y-50039D02*
X-59802D01*
X-62205Y-48858D02*
X-61024Y-50039D01*
X-65945Y-69935D02*
X-65843Y-70037D01*
X-65945Y-69935D02*
Y-67957D01*
X65377Y-70528D02*
X66946Y-69056D01*
X23622Y-65945D02*
Y-64960D01*
Y-65945D02*
X24203Y-66526D01*
X-45276Y74803D02*
X-43958Y76121D01*
X-34116D01*
X-33465Y76772D01*
X-49411Y61227D02*
Y66258D01*
X-45266Y70404D01*
Y72642D01*
X-45276Y72652D02*
X-45266Y72642D01*
X-45276Y72652D02*
Y74803D01*
X-51183Y61961D02*
Y68224D01*
X-47825Y71582D01*
X-50197Y76498D02*
Y77756D01*
X-52029Y74666D02*
X-50197Y76498D01*
X-65945Y68144D02*
X-59423Y74666D01*
X-52029D01*
X-1090Y64768D02*
X-165D01*
X-1108Y64750D02*
X-1090Y64768D01*
X-13508Y-18226D02*
X7592D01*
X9392Y-20026D01*
X-14783Y-16951D02*
Y-5971D01*
Y-16951D02*
X-13508Y-18226D01*
X-14783Y-5971D02*
Y-2691D01*
X-183Y64750D02*
X-165Y64768D01*
X17189Y-67090D02*
X18517Y-68419D01*
X16617Y-67090D02*
X17189D01*
X42340Y35932D02*
Y36417D01*
X39917Y33509D02*
X42340Y35932D01*
X32817Y33509D02*
X39917D01*
X31217Y31909D02*
X32817Y33509D01*
X32317Y-394D02*
X39640D01*
X31217Y706D02*
X32317Y-394D01*
X31217Y706D02*
Y31909D01*
X30217Y36417D02*
X31513D01*
X29445Y35646D02*
X30217Y36417D01*
X-36400Y34369D02*
Y35433D01*
Y34369D02*
X-36283Y34252D01*
X-35883Y-4762D02*
Y16510D01*
X-47227Y19053D02*
Y35433D01*
Y19053D02*
X-46383Y18210D01*
X-37583D01*
X-35883Y16510D01*
X21917Y-22891D02*
X22617Y-22190D01*
Y-11762D01*
X29445Y-99D02*
Y35646D01*
X26886Y-2659D02*
X29445Y-99D01*
X26886Y-5022D02*
Y-2659D01*
X25817Y-6091D02*
X26886Y-5022D01*
X19517Y-6091D02*
X25817D01*
X17917Y-11691D02*
X18617D01*
X21517Y-8791D01*
X31117Y-10239D02*
X34466Y-6890D01*
X31117Y-10391D02*
Y-10239D01*
X30417Y-11091D02*
X31117Y-10391D01*
X23289Y-11091D02*
X30417D01*
X22617Y-11762D02*
X23289Y-11091D01*
X31217Y-2891D02*
Y706D01*
X31117Y-2991D02*
X31217Y-2891D01*
X17917Y-11691D02*
Y-9391D01*
X17717Y-9191D02*
X17917Y-9391D01*
X17717Y-9191D02*
X18117Y-8791D01*
X21517D02*
X28946D01*
X33406Y-4331D01*
X37457D01*
X40017Y-6891D01*
X18117Y-8791D02*
X21517D01*
X-14983Y-5771D02*
X-14783Y-5971D01*
X39640Y-394D02*
X40156Y-910D01*
X-31831Y-28401D02*
X-31661Y-28571D01*
X-32618Y-28401D02*
X-31831D01*
X-55118Y-66800D02*
Y-47691D01*
X7000Y-34000D02*
X8200Y-32800D01*
X-11700Y-26100D02*
X2800D01*
X-13308Y-27708D02*
X-11700Y-26100D01*
X-13308Y-29626D02*
Y-27708D01*
X2900Y-34000D02*
X7000D01*
X1800Y-35100D02*
X2900Y-34000D01*
X1800Y-37558D02*
Y-35100D01*
Y-37558D02*
X2486Y-38243D01*
X13509Y-43003D02*
Y-24859D01*
X13313Y-43200D02*
X13509Y-43003D01*
X-56870Y-45939D02*
Y-34272D01*
Y-45939D02*
X-55118Y-47691D01*
X-59429Y-46279D02*
Y-35433D01*
Y-46279D02*
X-57480Y-48228D01*
X8200Y-32800D02*
Y-24900D01*
X8092Y-41808D02*
Y-39500D01*
X4700Y-45200D02*
X8092Y-41808D01*
X-14800Y-45200D02*
X4700D01*
X3400Y-79500D02*
X3740Y-79840D01*
X53190Y58810D02*
X65537D01*
X66946Y57400D01*
Y-69056D02*
Y57400D01*
X48228Y63492D02*
X48508D01*
X53190Y58810D01*
X43307Y64591D02*
X43510D01*
X51064Y57038D01*
X63637D01*
X65175Y55500D01*
Y-67980D02*
Y55500D01*
X49927Y55266D02*
X62437D01*
X63403Y54300D01*
Y-66790D02*
Y54300D01*
X62647Y-67547D02*
X62720Y-67473D01*
X63403Y-66790D01*
X43161Y62032D02*
X49927Y55266D01*
X42427Y60261D02*
X49193Y53495D01*
X60637D01*
X61632Y52500D01*
Y-65000D02*
Y52500D01*
X60491Y-66141D02*
X61632Y-65000D01*
X47498Y-72823D02*
X54180Y-66141D01*
X27876Y-72955D02*
X47630D01*
X54443Y-66141D01*
X54180D02*
X54443D01*
X60491D01*
X41693Y58489D02*
X48459Y51723D01*
X59537D01*
X59860Y51400D01*
Y-64266D02*
Y51400D01*
X59757Y-64369D02*
X59860Y-64266D01*
X53446Y-64369D02*
X59757D01*
X47624Y-70191D02*
X53446Y-64369D01*
X13117Y-70191D02*
X47624D01*
X18517Y-68419D02*
X46891D01*
X52712Y-62598D01*
X58088D01*
Y48900D01*
X57037Y49951D02*
X58088Y48900D01*
X47725Y49951D02*
X57037D01*
X40959Y56717D02*
X47725Y49951D01*
X40226Y54946D02*
X46992Y48180D01*
X55437D01*
X56317Y47300D01*
Y-60110D02*
Y47300D01*
X55600Y-60826D02*
X56317Y-60110D01*
X51978Y-60826D02*
X55600D01*
X46278Y-66526D02*
X51978Y-60826D01*
X24203Y-66526D02*
X46278D01*
X-22500Y-80000D02*
Y-75500D01*
Y-80000D02*
X-21400Y-81100D01*
X-14341Y-75196D02*
X-13745Y-74600D01*
X-56937Y-67947D02*
Y-64663D01*
X-57900Y-63700D02*
X-56937Y-64663D01*
Y-67947D02*
X-56786Y-68099D01*
X-56786Y-68099D01*
X-57243Y-57909D02*
Y-48228D01*
X-59964Y-60630D02*
X-57243Y-57909D01*
X-63779Y-60630D02*
X-59964D01*
X-64173Y-61024D02*
X-63779Y-60630D01*
X23622Y-85700D02*
X23669Y-85747D01*
X22000Y-74300D02*
X24700Y-77000D01*
X62720Y-67621D02*
Y-67621D01*
Y-67473D01*
X-2900Y-79500D02*
X3400D01*
X-6200Y-82800D02*
X-2900Y-79500D01*
X-19484Y-84384D02*
X-16900Y-81800D01*
X-20049Y-84384D02*
X-20049D01*
X-19484D01*
X-16900Y-81800D02*
Y-77400D01*
X-13745Y-81150D02*
Y-74600D01*
X-12889Y-82800D02*
X-6200D01*
X-17095Y-87006D02*
X-12889Y-82800D01*
X-17095Y-89804D02*
Y-87006D01*
X-17802Y-90512D02*
X-17802D01*
X-17095Y-89804D01*
X-59429Y-70506D02*
Y-65930D01*
X-19694Y-87100D02*
X-13745Y-81150D01*
X-20900Y-87100D02*
X-19694D01*
X-10000Y-93046D02*
Y-87598D01*
X-10119Y-93164D02*
X-10000Y-93046D01*
X64561Y-68594D02*
X65175Y-67980D01*
X-62506Y-70444D02*
Y-66790D01*
X-22510Y-14591D02*
X-21583D01*
X-36400Y32200D02*
X-35700Y31500D01*
X-26200D01*
X-25900Y31200D01*
Y-1100D02*
Y31200D01*
Y-1100D02*
X-23900Y-3100D01*
X-36400Y32200D02*
Y34369D01*
X-23900Y-13200D02*
X-22510Y-14591D01*
X-23900Y-13200D02*
Y-3100D01*
X-15000Y-1700D02*
X-14783Y-2691D01*
X-14983Y-5771D02*
Y-1390D01*
X3400Y-79500D02*
X17007D01*
X18500Y-80993D01*
Y-89002D02*
Y-80993D01*
Y-89002D02*
X19637Y-90139D01*
X-10500Y-79600D02*
X-5505D01*
X-2846Y-76941D01*
X17841D01*
X22300Y-81400D01*
X31500D01*
X34030Y-78870D01*
X38100D01*
X37500Y-78270D02*
X38100Y-78870D01*
X37500Y-78270D02*
Y-76659D01*
X23669Y-85747D02*
X26972D01*
X3217Y-74300D02*
X22000D01*
X-33500Y-73835D02*
Y-70156D01*
X-32400Y-69056D01*
X-2027D01*
X3217Y-74300D01*
X38361Y53174D02*
X39370Y52165D01*
X39492Y53174D02*
X46455Y46211D01*
X-10661Y64750D02*
X-1108D01*
X-15570Y59841D02*
X-10661Y64750D01*
X-23700Y61800D02*
X-23100D01*
X-22187D01*
X-16900D01*
X-26841Y59841D02*
X-15570D01*
X-27300Y60300D02*
X-26841Y59841D01*
X-27361Y60300D02*
X-27300D01*
X-27400Y60261D02*
X-27361Y60300D01*
X-27700Y60561D02*
X-27400Y60261D01*
X-27700Y60561D02*
Y64400D01*
X-29400Y66100D02*
X-27700Y64400D01*
X-30700Y66100D02*
X-29400D01*
X-23700Y62400D02*
X-22787D01*
X-16008Y61908D02*
X-11377Y66540D01*
X-24400Y62400D02*
X-23908Y61908D01*
X-23700Y62400D02*
X-23208Y61908D01*
X-23100Y61800D01*
X-23908Y61908D02*
X-23208D01*
X-22296D01*
X-16792D01*
X-16008D01*
X-16900Y61800D02*
X-16792Y61908D01*
X-22787Y62400D02*
X-22296Y61908D01*
X-22187Y61800D01*
X-28543Y68729D02*
X-25471D01*
X-21620Y72580D01*
X-15780D01*
X-11512Y68312D01*
X15176Y53174D02*
X38361D01*
X39492D01*
X3600Y64750D02*
X15176Y53174D01*
X-183Y64750D02*
X3600D01*
X15910Y54946D02*
X40226D01*
X-11377Y66540D02*
X4316D01*
X15910Y54946D01*
X16644Y56717D02*
X40959D01*
X2617Y69410D02*
X3952D01*
X16644Y56717D01*
X17378Y58489D02*
X41693D01*
X3898Y71969D02*
X17378Y58489D01*
X1557Y71969D02*
X3898D01*
X-1002Y69410D02*
X1557Y71969D01*
X-1083Y69410D02*
X-1002D01*
X26239Y60261D02*
X42427D01*
X23941Y62559D02*
X26239Y60261D01*
X21381Y73519D02*
X23941Y70959D01*
Y62559D02*
Y70959D01*
X5900Y38000D02*
X11717Y32183D01*
X13200Y28850D02*
X16749Y32400D01*
X13200Y14500D02*
Y28850D01*
X15200Y-16900D02*
X17100D01*
X14600Y-16300D02*
X15200Y-16900D01*
X13200Y14500D02*
X14600Y13100D01*
X15478Y-22891D02*
X21917D01*
X13509Y-24859D02*
X15478Y-22891D01*
X17917Y-12441D02*
Y-11691D01*
Y-12441D02*
X20576Y-15100D01*
Y-18424D02*
Y-15100D01*
X18200Y-20800D02*
X20576Y-18424D01*
X14400Y-20800D02*
X18200D01*
X11533Y-17933D02*
X14400Y-20800D01*
X11533Y-17933D02*
Y-733D01*
X16762Y-11691D02*
X17917D01*
X16372Y-11300D02*
X16762Y-11691D01*
X16372Y-11300D02*
Y-4419D01*
X19400Y-1390D01*
X7700Y3100D02*
X11533Y-733D01*
X-18000Y-8091D02*
Y-900D01*
X-16241Y859D01*
X-12893D01*
X-11608Y-426D01*
X14600Y6862D02*
Y9938D01*
Y13100D01*
Y-16300D02*
Y6862D01*
X14672Y73519D02*
X21381D01*
X4632Y73740D02*
X6636Y71736D01*
X12889D01*
X14672Y73519D01*
X-672Y73740D02*
X4632D01*
X-11512Y68312D02*
X-6100D01*
X-672Y73740D01*
X-58569Y-8526D02*
X-50500D01*
D11*
X-12174Y-5227D02*
G03*
X-12591Y-4219I-1426J0D01*
G01*
X-11756D02*
G03*
X-12174Y-5227I1008J-1008D01*
G01*
X-10816Y-13618D02*
G03*
X-9808Y-14035I1008J1008D01*
G01*
X-10399Y-14626D02*
G03*
X-10816Y-13618I-1426J0D01*
G01*
X2126Y-57700D02*
G03*
X1118Y-58118I0J-1426D01*
G01*
Y-57282D02*
G03*
X2126Y-57700I1008J1008D01*
G01*
X-12174Y-5227D02*
G03*
X-12591Y-4219I-1426J0D01*
G01*
X-11756D02*
G03*
X-12174Y-5227I1008J-1008D01*
G01*
X-10816Y-13618D02*
G03*
X-9808Y-14035I1008J1008D01*
G01*
X-10399Y-14626D02*
G03*
X-10816Y-13618I-1426J0D01*
G01*
X2126Y-57700D02*
G03*
X1118Y-58118I0J-1426D01*
G01*
Y-57282D02*
G03*
X2126Y-57700I1008J1008D01*
G01*
X600D02*
X700D01*
X38900Y-58200D02*
X39000Y-58100D01*
Y-57900D01*
X38800Y-57700D02*
X39000Y-57900D01*
X700Y-57700D02*
X38800D01*
X-12174Y-12261D02*
X-9808Y-14626D01*
X-12174Y-12261D02*
Y-3802D01*
X53700Y-3400D02*
X54348Y-2752D01*
Y45663D01*
X53800Y46211D02*
X54348Y45663D01*
X46455Y46211D02*
X53800D01*
D54*
X16749Y32400D02*
D03*
X17100Y18711D02*
D03*
D55*
X-9000Y7200D02*
D03*
D56*
X5900Y38000D02*
D03*
D57*
X-10236Y76246D02*
D03*
X10236D02*
D03*
D58*
X-14173Y86679D02*
D03*
X14173D02*
D03*
D59*
X23622Y-85700D02*
D03*
X-58500Y6100D02*
D03*
X-45024Y67026D02*
D03*
X-49069Y-62100D02*
D03*
X57000Y-68700D02*
D03*
X-38893Y-61500D02*
D03*
X-33500Y-73835D02*
D03*
X24700Y-77000D02*
D03*
X-20600Y-81100D02*
D03*
X-22500Y-75500D02*
D03*
X-16900Y-77400D02*
D03*
X-13745Y-74600D02*
D03*
X38900Y-58200D02*
D03*
X700Y-57700D02*
D03*
X8092Y-39500D02*
D03*
X-14800Y-45200D02*
D03*
X-9600Y-58400D02*
D03*
X-20900Y-87100D02*
D03*
X-49333Y-50251D02*
D03*
X-52300Y-58700D02*
D03*
X-25739Y-50428D02*
D03*
X-52500Y-46300D02*
D03*
X-50500Y-8300D02*
D03*
X-59429Y-35433D02*
D03*
X3400Y-79500D02*
D03*
X-61024Y-58071D02*
D03*
X-59802Y-50039D02*
D03*
X-65945Y-67957D02*
D03*
X48228Y63492D02*
D03*
X43307Y64591D02*
D03*
X36417Y62992D02*
D03*
X23622Y-64960D02*
D03*
X50292Y75787D02*
D03*
X-64883Y-53362D02*
D03*
X-33465Y76772D02*
D03*
X-50197Y77756D02*
D03*
X-47825Y71582D02*
D03*
X-24400Y62400D02*
D03*
X-28543Y68729D02*
D03*
X-2125Y59974D02*
D03*
X-5572Y60074D02*
D03*
X53700Y-3400D02*
D03*
X2800Y-26100D02*
D03*
X8200Y-24900D02*
D03*
X9392Y-20026D02*
D03*
X-9808Y-14626D02*
D03*
X-12174Y-3802D02*
D03*
X33017Y-54090D02*
D03*
X37517D02*
D03*
X37417Y-48891D02*
D03*
X31417Y-48491D02*
D03*
X43017Y-13191D02*
D03*
X46417Y-19390D02*
D03*
X46517Y-14390D02*
D03*
X46417Y-43165D02*
D03*
Y-38091D02*
D03*
X46517Y-33291D02*
D03*
Y-27891D02*
D03*
Y-23491D02*
D03*
X-42683Y-20491D02*
D03*
X-42583Y-16590D02*
D03*
X-42983Y-29091D02*
D03*
X417Y58810D02*
D03*
X-7683Y58909D02*
D03*
X13313Y-43200D02*
D03*
X-13308Y-29626D02*
D03*
X2486Y-38243D02*
D03*
X33982Y-11669D02*
D03*
X-18184Y-11669D02*
D03*
X16617Y-67090D02*
D03*
X13117Y-70191D02*
D03*
X-33883Y-11491D02*
D03*
X-34283Y-47691D02*
D03*
X42717Y-19290D02*
D03*
X26717Y-48312D02*
D03*
X2617Y69410D02*
D03*
X-1083D02*
D03*
X26592Y-2953D02*
D03*
X34466Y-6890D02*
D03*
X42340Y36417D02*
D03*
X31513D02*
D03*
X-36400Y35433D02*
D03*
X-47227D02*
D03*
X-3783Y62110D02*
D03*
X-3708Y58574D02*
D03*
X-10283Y61510D02*
D03*
X-10183Y59009D02*
D03*
X-7643Y61709D02*
D03*
X40092Y-1426D02*
D03*
X-21583Y-14591D02*
D03*
X-24800Y-6157D02*
D03*
X17917Y-11691D02*
D03*
X-35883Y-4762D02*
D03*
X-18000Y-8091D02*
D03*
X-30700Y66100D02*
D03*
X19517Y-6091D02*
D03*
X31117Y-2991D02*
D03*
X-183Y61709D02*
D03*
X-15000Y-1700D02*
D03*
X-11608Y-426D02*
D03*
X17100Y-16900D02*
D03*
X-20400Y-32600D02*
D03*
X-32618Y-28401D02*
D03*
X27876Y-72955D02*
D03*
X39370Y52165D02*
D03*
X-10500Y-79600D02*
D03*
X-58200Y-62600D02*
D03*
X-53900Y-38091D02*
D03*
X8687Y-54168D02*
D03*
X5072Y-62758D02*
D03*
X4937Y-67400D02*
D03*
X-39454Y-71700D02*
D03*
X-47300Y-66100D02*
D03*
X37500Y-76659D02*
D03*
X42800Y-76100D02*
D03*
X46400Y-52400D02*
D03*
X46000Y-56500D02*
D03*
X45700Y-60500D02*
D03*
X18800Y-30471D02*
D03*
X16400Y-76900D02*
D03*
X-13100Y-51300D02*
D03*
X-35357Y69900D02*
D03*
X-32067Y70000D02*
D03*
X-29000Y73500D02*
D03*
X-24700Y73600D02*
D03*
X-13308Y74000D02*
D03*
X-16700Y76597D02*
D03*
Y80900D02*
D03*
X-8500Y85700D02*
D03*
X-10661Y82200D02*
D03*
X28946Y72900D02*
D03*
X29100Y69410D02*
D03*
X29900Y65032D02*
D03*
X32200Y69800D02*
D03*
X26500Y69400D02*
D03*
X10236Y80700D02*
D03*
X14452Y79800D02*
D03*
D60*
X14600Y9938D02*
G03*
X13860Y8400I1229J-1538D01*
G01*
D02*
G03*
X14600Y6862I1969J0D01*
G01*
X17797Y8400D02*
G03*
X14600Y9938I-1969J0D01*
G01*
Y6862D02*
G03*
X17797Y8400I1229J1538D01*
G01*
D02*
G03*
X17797Y8400I-1969J0D01*
G01*
X-7600Y8100D02*
G03*
X-7600Y8100I-1969J0D01*
G01*
X7854Y37831D02*
G03*
X10210Y30390I8346J-1451D01*
G01*
X10210Y29695D02*
G03*
X6318Y37195I-9172J0D01*
G01*
X10210Y27594D02*
G03*
X6188Y37304I-13732J0D01*
G01*
X5900Y34700D02*
Y38000D01*
X10210Y12050D02*
X13860Y8400D01*
X5900Y34700D02*
X10210Y30390D01*
Y12050D02*
Y30390D01*
D61*
X9900Y-86200D02*
D03*
D62*
X-600Y-86600D02*
D03*
X-9700Y-89400D02*
D03*
D63*
X-10000Y-87598D02*
D03*
X0D02*
D03*
X10000D02*
D03*
M02*
