%FSLAX25Y25*%
%MOIN*%
G70*
G01*
G75*
%ADD10C,0.00500*%
%ADD11C,0.00667*%
D10*
X-11575Y-87598D02*
X-8425D01*
X-10000Y-89173D02*
Y-86024D01*
X-1575Y-87598D02*
X1575D01*
X0Y-89173D02*
Y-86024D01*
X8425Y-87598D02*
X11575D01*
X10000Y-89173D02*
Y-86024D01*
X-12543Y7200D02*
X-5457D01*
X-9000Y3657D02*
Y10743D01*
X2357Y38000D02*
X9443D01*
X5900Y34457D02*
Y41543D01*
X-11614Y76246D02*
X-8858D01*
X-10236Y74868D02*
Y77624D01*
X8858Y76246D02*
X11614D01*
X10236Y74868D02*
Y77624D01*
X-15157Y86679D02*
X-13189D01*
X-14173Y85695D02*
Y87663D01*
X13189Y86679D02*
X15157D01*
X14173Y85695D02*
Y87663D01*
X15765Y32400D02*
X17734D01*
X16749Y31416D02*
Y33384D01*
X16116Y18711D02*
X18084D01*
X17100Y17727D02*
Y19696D01*
X22835Y-85700D02*
X24409D01*
X23622Y-86487D02*
Y-84913D01*
X-59287Y6100D02*
X-57713D01*
X-58500Y5313D02*
Y6887D01*
X-45812Y67026D02*
X-44237D01*
X-45024Y66238D02*
Y67813D01*
X-49857Y-62100D02*
X-48282D01*
X-49069Y-62887D02*
Y-61313D01*
X56213Y-68700D02*
X57787D01*
X57000Y-69487D02*
Y-67913D01*
X-39680Y-61500D02*
X-38105D01*
X-38893Y-62287D02*
Y-60713D01*
X-34287Y-73835D02*
X-32713D01*
X-33500Y-74622D02*
Y-73047D01*
X23913Y-77000D02*
X25487D01*
X24700Y-77787D02*
Y-76213D01*
X-21387Y-81100D02*
X-19813D01*
X-20600Y-81887D02*
Y-80313D01*
X-23287Y-75500D02*
X-21713D01*
X-22500Y-76287D02*
Y-74713D01*
X-17687Y-77400D02*
X-16113D01*
X-16900Y-78187D02*
Y-76613D01*
X-14532Y-74600D02*
X-12957D01*
X-13745Y-75387D02*
Y-73813D01*
X38113Y-58200D02*
X39687D01*
X38900Y-58987D02*
Y-57413D01*
X-87Y-57700D02*
X1487D01*
X700Y-58487D02*
Y-56913D01*
X7304Y-39500D02*
X8879D01*
X8092Y-40287D02*
Y-38713D01*
X-15587Y-45200D02*
X-14013D01*
X-14800Y-45987D02*
Y-44413D01*
X-10387Y-58400D02*
X-8813D01*
X-9600Y-59187D02*
Y-57613D01*
X-21687Y-87100D02*
X-20113D01*
X-20900Y-87887D02*
Y-86313D01*
X-50121Y-50251D02*
X-48546D01*
X-49333Y-51039D02*
Y-49464D01*
X-53087Y-58700D02*
X-51513D01*
X-52300Y-59487D02*
Y-57913D01*
X-26527Y-50428D02*
X-24952D01*
X-25739Y-51216D02*
Y-49641D01*
X-53287Y-46300D02*
X-51713D01*
X-52500Y-47087D02*
Y-45513D01*
X-51287Y-8300D02*
X-49713D01*
X-50500Y-9087D02*
Y-7513D01*
X-60217Y-35433D02*
X-58642D01*
X-59429Y-36220D02*
Y-34646D01*
X2613Y-79500D02*
X4187D01*
X3400Y-80287D02*
Y-78713D01*
X-61811Y-58071D02*
X-60236D01*
X-61024Y-58858D02*
Y-57284D01*
X-60589Y-50039D02*
X-59014D01*
X-59802Y-50826D02*
Y-49251D01*
X-66732Y-67957D02*
X-65158D01*
X-65945Y-68745D02*
Y-67170D01*
X47441Y63492D02*
X49016D01*
X48228Y62705D02*
Y64280D01*
X42520Y64591D02*
X44094D01*
X43307Y63804D02*
Y65379D01*
X35630Y62992D02*
X37205D01*
X36417Y62205D02*
Y63779D01*
X22835Y-64960D02*
X24409D01*
X23622Y-65748D02*
Y-64173D01*
X49504Y75787D02*
X51079D01*
X50292Y75000D02*
Y76575D01*
X-65670Y-53362D02*
X-64095D01*
X-64883Y-54150D02*
Y-52575D01*
X-34252Y76772D02*
X-32677D01*
X-33465Y75984D02*
Y77559D01*
X-50984Y77756D02*
X-49409D01*
X-50197Y76968D02*
Y78543D01*
X-48612Y71582D02*
X-47037D01*
X-47825Y70794D02*
Y72369D01*
X-25187Y62400D02*
X-23613D01*
X-24400Y61613D02*
Y63187D01*
X-29331Y68729D02*
X-27756D01*
X-28543Y67942D02*
Y69516D01*
X-2912Y59974D02*
X-1337D01*
X-2125Y59187D02*
Y60761D01*
X-6360Y60074D02*
X-4785D01*
X-5572Y59287D02*
Y60861D01*
X52913Y-3400D02*
X54487D01*
X53700Y-4187D02*
Y-2613D01*
X2013Y-26100D02*
X3587D01*
X2800Y-26887D02*
Y-25313D01*
X7413Y-24900D02*
X8987D01*
X8200Y-25687D02*
Y-24113D01*
X8604Y-20026D02*
X10179D01*
X9392Y-20813D02*
Y-19239D01*
X-10596Y-14626D02*
X-9021D01*
X-9808Y-15413D02*
Y-13839D01*
X-12961Y-3802D02*
X-11386D01*
X-12174Y-4589D02*
Y-3014D01*
X32230Y-54090D02*
X33805D01*
X33017Y-54878D02*
Y-53303D01*
X36730Y-54090D02*
X38305D01*
X37517Y-54878D02*
Y-53303D01*
X36630Y-48891D02*
X38205D01*
X37417Y-49678D02*
Y-48103D01*
X30630Y-48491D02*
X32205D01*
X31417Y-49278D02*
Y-47703D01*
X42230Y-13191D02*
X43805D01*
X43017Y-13978D02*
Y-12403D01*
X45630Y-19390D02*
X47205D01*
X46417Y-20178D02*
Y-18603D01*
X45730Y-14390D02*
X47305D01*
X46517Y-15178D02*
Y-13603D01*
X45630Y-43165D02*
X47205D01*
X46417Y-43952D02*
Y-42377D01*
X45630Y-38091D02*
X47205D01*
X46417Y-38878D02*
Y-37303D01*
X45730Y-33291D02*
X47305D01*
X46517Y-34078D02*
Y-32503D01*
X45730Y-27891D02*
X47305D01*
X46517Y-28678D02*
Y-27103D01*
X45730Y-23491D02*
X47305D01*
X46517Y-24278D02*
Y-22703D01*
X-43470Y-20491D02*
X-41895D01*
X-42683Y-21278D02*
Y-19703D01*
X-43370Y-16590D02*
X-41795D01*
X-42583Y-17378D02*
Y-15803D01*
X-43770Y-29091D02*
X-42195D01*
X-42983Y-29878D02*
Y-28303D01*
X-370Y58810D02*
X1205D01*
X417Y58022D02*
Y59597D01*
X-8470Y58909D02*
X-6895D01*
X-7683Y58122D02*
Y59697D01*
X12525Y-43200D02*
X14100D01*
X13313Y-43987D02*
Y-42413D01*
X-14096Y-29626D02*
X-12521D01*
X-13308Y-30413D02*
Y-28839D01*
X1698Y-38243D02*
X3273D01*
X2486Y-39031D02*
Y-37456D01*
X33194Y-11669D02*
X34769D01*
X33982Y-12456D02*
Y-10881D01*
X-18971Y-11669D02*
X-17396D01*
X-18184Y-12456D02*
Y-10881D01*
X15830Y-67090D02*
X17405D01*
X16617Y-67878D02*
Y-66303D01*
X12330Y-70191D02*
X13905D01*
X13117Y-70978D02*
Y-69403D01*
X-34670Y-11491D02*
X-33095D01*
X-33883Y-12278D02*
Y-10703D01*
X-35070Y-47691D02*
X-33495D01*
X-34283Y-48478D02*
Y-46903D01*
X41930Y-19290D02*
X43505D01*
X42717Y-20078D02*
Y-18503D01*
X25930Y-48312D02*
X27505D01*
X26717Y-49099D02*
Y-47524D01*
X1830Y69410D02*
X3405D01*
X2617Y68622D02*
Y70197D01*
X-1870Y69410D02*
X-295D01*
X-1083Y68622D02*
Y70197D01*
X25804Y-2953D02*
X27379D01*
X26592Y-3740D02*
Y-2165D01*
X33679Y-6890D02*
X35253D01*
X34466Y-7677D02*
Y-6102D01*
X41553Y36417D02*
X43127D01*
X42340Y35630D02*
Y37205D01*
X30726Y36417D02*
X32301D01*
X31513Y35630D02*
Y37205D01*
X-37187Y35433D02*
X-35613D01*
X-36400Y34646D02*
Y36220D01*
X-48014Y35433D02*
X-46439D01*
X-47227Y34646D02*
Y36220D01*
X-4570Y62110D02*
X-2995D01*
X-3783Y61322D02*
Y62897D01*
X-4496Y58574D02*
X-2921D01*
X-3708Y57787D02*
Y59361D01*
X-11070Y61510D02*
X-9495D01*
X-10283Y60722D02*
Y62297D01*
X-10970Y59009D02*
X-9395D01*
X-10183Y58222D02*
Y59797D01*
X-8430Y61709D02*
X-6855D01*
X-7643Y60922D02*
Y62497D01*
X39304Y-1426D02*
X40879D01*
X40092Y-2213D02*
Y-639D01*
X-22370Y-14591D02*
X-20795D01*
X-21583Y-15378D02*
Y-13803D01*
X-25587Y-6157D02*
X-24013D01*
X-24800Y-6944D02*
Y-5369D01*
X17130Y-11691D02*
X18705D01*
X17917Y-12478D02*
Y-10903D01*
X-36670Y-4762D02*
X-35095D01*
X-35883Y-5550D02*
Y-3975D01*
X-18788Y-8091D02*
X-17213D01*
X-18000Y-8878D02*
Y-7303D01*
X-31487Y66100D02*
X-29913D01*
X-30700Y65313D02*
Y66887D01*
X18730Y-6091D02*
X20305D01*
X19517Y-6878D02*
Y-5303D01*
X30330Y-2991D02*
X31905D01*
X31117Y-3778D02*
Y-2203D01*
X-970Y61709D02*
X605D01*
X-183Y60922D02*
Y62497D01*
X-15787Y-1700D02*
X-14213D01*
X-15000Y-2487D02*
Y-913D01*
X-12396Y-426D02*
X-10821D01*
X-11608Y-1213D02*
Y361D01*
X16313Y-16900D02*
X17887D01*
X17100Y-17687D02*
Y-16113D01*
X-21187Y-32600D02*
X-19613D01*
X-20400Y-33387D02*
Y-31813D01*
X-33406Y-28401D02*
X-31831D01*
X-32618Y-29188D02*
Y-27613D01*
X27088Y-72955D02*
X28663D01*
X27876Y-73742D02*
Y-72167D01*
X38583Y52165D02*
X40157D01*
X39370Y51378D02*
Y52953D01*
X-11287Y-79600D02*
X-9713D01*
X-10500Y-80387D02*
Y-78813D01*
X-58987Y-62600D02*
X-57413D01*
X-58200Y-63387D02*
Y-61813D01*
X-54687Y-38091D02*
X-53113D01*
X-53900Y-38878D02*
Y-37303D01*
X7899Y-54168D02*
X9474D01*
X8687Y-54956D02*
Y-53381D01*
X4284Y-62758D02*
X5859D01*
X5072Y-63546D02*
Y-61971D01*
X4150Y-67400D02*
X5725D01*
X4937Y-68187D02*
Y-66613D01*
X-40242Y-71700D02*
X-38667D01*
X-39454Y-72487D02*
Y-70913D01*
X-48087Y-66100D02*
X-46513D01*
X-47300Y-66887D02*
Y-65313D01*
X36713Y-76659D02*
X38287D01*
X37500Y-77447D02*
Y-75872D01*
X42013Y-76100D02*
X43587D01*
X42800Y-76887D02*
Y-75313D01*
X45613Y-52400D02*
X47187D01*
X46400Y-53187D02*
Y-51613D01*
X45213Y-56500D02*
X46787D01*
X46000Y-57287D02*
Y-55713D01*
X44913Y-60500D02*
X46487D01*
X45700Y-61287D02*
Y-59713D01*
X18013Y-30471D02*
X19587D01*
X18800Y-31258D02*
Y-29684D01*
X15613Y-76900D02*
X17187D01*
X16400Y-77687D02*
Y-76113D01*
X-13887Y-51300D02*
X-12313D01*
X-13100Y-52087D02*
Y-50513D01*
X-36145Y69900D02*
X-34570D01*
X-35357Y69113D02*
Y70687D01*
X-32854Y70000D02*
X-31280D01*
X-32067Y69213D02*
Y70787D01*
X-29787Y73500D02*
X-28213D01*
X-29000Y72713D02*
Y74287D01*
X-25487Y73600D02*
X-23913D01*
X-24700Y72813D02*
Y74387D01*
X-14096Y74000D02*
X-12521D01*
X-13308Y73213D02*
Y74787D01*
X-17487Y76597D02*
X-15913D01*
X-16700Y75810D02*
Y77385D01*
X-17487Y80900D02*
X-15913D01*
X-16700Y80113D02*
Y81687D01*
X-9287Y85700D02*
X-7713D01*
X-8500Y84913D02*
Y86487D01*
X-11448Y82200D02*
X-9873D01*
X-10661Y81413D02*
Y82987D01*
X28159Y72900D02*
X29734D01*
X28946Y72113D02*
Y73687D01*
X28313Y69410D02*
X29887D01*
X29100Y68623D02*
Y70197D01*
X29113Y65032D02*
X30687D01*
X29900Y64244D02*
Y65819D01*
X31413Y69800D02*
X32987D01*
X32200Y69013D02*
Y70587D01*
X25713Y69400D02*
X27287D01*
X26500Y68613D02*
Y70187D01*
X9449Y80700D02*
X11024D01*
X10236Y79913D02*
Y81487D01*
X13665Y79800D02*
X15240D01*
X14452Y79013D02*
Y80587D01*
M02*
