%FSLAX25Y25*%
%MOIN*%
G70*
G01*
G75*
G04 Layer_Color=8421504*
%ADD10C,0.00787*%
%ADD11C,0.01181*%
%ADD12C,0.00984*%
%ADD13R,0.01969X0.02362*%
%ADD14R,0.03937X0.03150*%
%ADD15R,0.03150X0.03543*%
%ADD16R,0.02756X0.01575*%
%ADD17R,0.02362X0.01969*%
%ADD18R,0.04724X0.03543*%
%ADD19R,0.03937X0.02756*%
%ADD20R,0.01969X0.03937*%
%ADD21R,0.02362X0.03937*%
%ADD22O,0.07874X0.05906*%
%ADD23R,0.07874X0.05906*%
%ADD24R,0.03937X0.04724*%
%ADD25R,0.03543X0.03937*%
%ADD26R,0.04921X0.02362*%
%ADD27O,0.04921X0.02362*%
%ADD28R,0.04724X0.03937*%
%ADD29R,0.03543X0.02362*%
%ADD30R,0.06299X0.04921*%
%ADD31O,0.02362X0.07874*%
%ADD32R,0.04724X0.01575*%
%ADD33O,0.02362X0.07874*%
%ADD34R,0.03400X0.10000*%
%ADD35R,0.03400X0.05000*%
%ADD36R,0.02362X0.03543*%
G04:AMPARAMS|DCode=37|XSize=59.06mil|YSize=78.74mil|CornerRadius=0mil|HoleSize=0mil|Usage=FLASHONLY|Rotation=45.000|XOffset=0mil|YOffset=0mil|HoleType=Round|Shape=Round|*
%AMOVALD37*
21,1,0.01969,0.05906,0.00000,0.00000,135.0*
1,1,0.05906,0.00696,-0.00696*
1,1,0.05906,-0.00696,0.00696*
%
%ADD37OVALD37*%

%ADD38R,0.01575X0.04921*%
%ADD39R,0.02362X0.05315*%
%ADD40C,0.01969*%
%ADD41C,0.03937*%
%ADD42C,0.05906*%
%ADD43R,0.06717X0.02806*%
%ADD44R,0.15106X0.14091*%
%ADD45R,0.12325X0.05909*%
%ADD46R,0.08728X0.04000*%
%ADD47R,0.07905X0.22706*%
%ADD48R,0.47900X0.06374*%
%ADD49R,0.06200X0.11200*%
%ADD50R,0.02400X0.07447*%
%ADD51R,0.11060X0.04191*%
%ADD52R,0.38700X0.08270*%
%ADD53R,0.31672X0.09600*%
%ADD54C,0.03937*%
%ADD55C,0.09843*%
%ADD56O,0.11811X0.09843*%
%ADD57C,0.05118*%
%ADD58O,0.04331X0.07087*%
%ADD59C,0.02362*%
%ADD60C,0.07874*%
%ADD61R,0.07874X0.07874*%
%ADD62R,0.05906X0.07874*%
%ADD63C,0.04724*%
%ADD64C,0.00197*%
%ADD65C,0.00394*%
%ADD66C,0.00591*%
%ADD67C,0.01969*%
%ADD68C,0.00250*%
%ADD69C,0.00200*%
%ADD70C,0.00500*%
%ADD71C,0.00374*%
%ADD72C,0.00400*%
%ADD73C,0.00800*%
%ADD74R,0.00200X0.00700*%
%ADD75R,0.00300X0.00600*%
%ADD76R,0.00300X0.00500*%
%ADD77O,0.05906X0.09843*%
D13*
X43110Y69882D02*
D03*
X39567D02*
D03*
X-39109D02*
D03*
X-42653D02*
D03*
X9328Y-81400D02*
D03*
X12872D02*
D03*
X16666Y-56334D02*
D03*
X13122D02*
D03*
X5072Y-65500D02*
D03*
X1528D02*
D03*
X25228Y-34378D02*
D03*
X28772D02*
D03*
X-23819Y66929D02*
D03*
X-27362D02*
D03*
X30528Y-77800D02*
D03*
X34072D02*
D03*
X22020Y-72955D02*
D03*
X25563D02*
D03*
X39690Y-22495D02*
D03*
X36147D02*
D03*
X-39292Y-73835D02*
D03*
X-35748D02*
D03*
X1528Y-69700D02*
D03*
X5072D02*
D03*
X1501Y-60199D02*
D03*
X5045D02*
D03*
X54348Y-43798D02*
D03*
X57891D02*
D03*
X52379Y-29806D02*
D03*
X55923D02*
D03*
X5072Y-74100D02*
D03*
X1528D02*
D03*
X22204Y-16326D02*
D03*
X25748D02*
D03*
X28657Y-30300D02*
D03*
X25114D02*
D03*
X36094Y-29806D02*
D03*
X39638D02*
D03*
X30246Y-73012D02*
D03*
X33789D02*
D03*
X36021Y-34100D02*
D03*
X39565D02*
D03*
X13116Y-67771D02*
D03*
X9572D02*
D03*
X9528Y-76500D02*
D03*
X13072D02*
D03*
Y-72500D02*
D03*
X9528D02*
D03*
X17931Y-2953D02*
D03*
X21474D02*
D03*
X32694D02*
D03*
X36238D02*
D03*
X-38656Y-18558D02*
D03*
X-35113D02*
D03*
Y-23480D02*
D03*
X-38656D02*
D03*
Y-33322D02*
D03*
X-35113D02*
D03*
Y-28401D02*
D03*
X-38656D02*
D03*
Y-42180D02*
D03*
X-35113D02*
D03*
X-270D02*
D03*
X3273D02*
D03*
X3272Y-46500D02*
D03*
X-272D02*
D03*
X3273Y-22495D02*
D03*
X-270D02*
D03*
X3273Y-33322D02*
D03*
X-270D02*
D03*
Y-28401D02*
D03*
X3273D02*
D03*
D14*
X19437Y-51400D02*
D03*
X11563D02*
D03*
X30380Y-16091D02*
D03*
X38254D02*
D03*
D15*
X17643Y-61865D02*
D03*
X10950D02*
D03*
D16*
X30537Y-6157D02*
D03*
Y-8716D02*
D03*
Y-11275D02*
D03*
X38411Y-6157D02*
D03*
Y-8716D02*
D03*
Y-11275D02*
D03*
X15765Y-6299D02*
D03*
Y-8858D02*
D03*
Y-11417D02*
D03*
X23639Y-6299D02*
D03*
Y-8858D02*
D03*
Y-11417D02*
D03*
X-22121Y-6157D02*
D03*
Y-8716D02*
D03*
Y-11275D02*
D03*
X-14247Y-6157D02*
D03*
Y-8716D02*
D03*
Y-11275D02*
D03*
X-37869Y-6157D02*
D03*
Y-8716D02*
D03*
Y-11275D02*
D03*
X-29995Y-6157D02*
D03*
Y-8716D02*
D03*
Y-11275D02*
D03*
D17*
X-39373Y-64419D02*
D03*
Y-67962D02*
D03*
X-29100Y-80928D02*
D03*
Y-84472D02*
D03*
X-13900Y-84272D02*
D03*
Y-80728D02*
D03*
X-7100Y-80128D02*
D03*
Y-83672D02*
D03*
X-44645Y-14032D02*
D03*
Y-10489D02*
D03*
X-1300Y-79928D02*
D03*
Y-83472D02*
D03*
X19323Y-21828D02*
D03*
Y-25372D02*
D03*
X32013Y-25448D02*
D03*
Y-21905D02*
D03*
X-18300Y-80828D02*
D03*
Y-84372D02*
D03*
X-24500Y-80928D02*
D03*
Y-84472D02*
D03*
X23423Y-25406D02*
D03*
Y-21862D02*
D03*
X5717Y53968D02*
D03*
Y57512D02*
D03*
X28076Y-21905D02*
D03*
Y-25448D02*
D03*
X-44645Y-6898D02*
D03*
Y-3354D02*
D03*
X63009Y-48523D02*
D03*
Y-44980D02*
D03*
D18*
X-44489Y-70008D02*
D03*
Y-62134D02*
D03*
X-53938Y-66071D02*
D03*
D19*
X35098Y74185D02*
D03*
X48484D02*
D03*
X-48040D02*
D03*
X-34654D02*
D03*
D20*
X39823D02*
D03*
X-43315D02*
D03*
D21*
X43760D02*
D03*
X-39378D02*
D03*
D22*
X-62205Y-24606D02*
D03*
Y-16732D02*
D03*
Y-8858D02*
D03*
Y-984D02*
D03*
Y-32480D02*
D03*
D23*
Y6890D02*
D03*
D24*
X-25521Y60874D02*
D03*
X-16860D02*
D03*
X60409Y-61047D02*
D03*
X52535D02*
D03*
X60253Y-54412D02*
D03*
X51592D02*
D03*
X60450Y-36909D02*
D03*
X51789D02*
D03*
X-25000Y48228D02*
D03*
X-16339D02*
D03*
X-25000Y54134D02*
D03*
X-16339D02*
D03*
D25*
X9694Y-36124D02*
D03*
X17568D02*
D03*
X13631Y-26676D02*
D03*
D26*
X-29196Y-17608D02*
D03*
D27*
Y-22608D02*
D03*
Y-27608D02*
D03*
Y-32608D02*
D03*
Y-37608D02*
D03*
Y-42608D02*
D03*
Y-47608D02*
D03*
X-5574Y-17608D02*
D03*
Y-22608D02*
D03*
Y-27608D02*
D03*
Y-32608D02*
D03*
Y-37608D02*
D03*
Y-42608D02*
D03*
Y-47608D02*
D03*
D28*
X-6780Y51458D02*
D03*
Y60119D02*
D03*
X20D02*
D03*
Y51458D02*
D03*
D29*
X38903Y-72889D02*
D03*
Y-78401D02*
D03*
X54151Y24803D02*
D03*
Y30315D02*
D03*
X23639D02*
D03*
Y24803D02*
D03*
X-59802Y29806D02*
D03*
Y24295D02*
D03*
X-52912D02*
D03*
Y29806D02*
D03*
D30*
X-15292Y17039D02*
D03*
Y29637D02*
D03*
X-7418D02*
D03*
Y17039D02*
D03*
X456D02*
D03*
Y29637D02*
D03*
X8330D02*
D03*
Y17039D02*
D03*
D31*
X31887Y39514D02*
D03*
X46887Y15105D02*
D03*
X36887D02*
D03*
X46887Y39514D02*
D03*
X36887D02*
D03*
X31887Y15105D02*
D03*
X41887D02*
D03*
Y39514D02*
D03*
X-46853Y38875D02*
D03*
X-31853Y14465D02*
D03*
X-41853D02*
D03*
X-31853Y38875D02*
D03*
X-41853D02*
D03*
X-46853Y14465D02*
D03*
X-36853D02*
D03*
Y38875D02*
D03*
D32*
X-29500Y-76394D02*
D03*
X-5877D02*
D03*
X-29500Y-73835D02*
D03*
Y-71276D02*
D03*
Y-68716D02*
D03*
Y-66157D02*
D03*
Y-63598D02*
D03*
Y-61039D02*
D03*
Y-58480D02*
D03*
Y-55921D02*
D03*
Y-53362D02*
D03*
X-5877D02*
D03*
Y-55921D02*
D03*
Y-58480D02*
D03*
Y-61039D02*
D03*
Y-63598D02*
D03*
Y-66157D02*
D03*
Y-68716D02*
D03*
Y-71276D02*
D03*
Y-73835D02*
D03*
D33*
X34817Y-40807D02*
D03*
X34817Y-65216D02*
D03*
X24817D02*
D03*
X29817Y-40807D02*
D03*
X39817Y-40807D02*
D03*
X29817Y-65216D02*
D03*
X39817D02*
D03*
X24817Y-40807D02*
D03*
D34*
X56120Y-23901D02*
D03*
D35*
X62120D02*
D03*
X50120D02*
D03*
D36*
X6029Y-54976D02*
D03*
X517D02*
D03*
D37*
X-35800Y-84100D02*
D03*
X-49600Y-76500D02*
D03*
D38*
X5118Y76246D02*
D03*
X2559D02*
D03*
X0D02*
D03*
X-2559D02*
D03*
X-5118D02*
D03*
D39*
X-3150Y86679D02*
D03*
X3150D02*
D03*
D77*
X56120Y-12101D02*
D03*
M02*
